<svg xmlns="http://www.w3.org/2000/svg" xmlns:xlink="http://www.w3.org/1999/xlink" width="29.378" height="29.368" viewBox="0 0 29.378 29.368">
  <defs>
    <clipPath id="clip-path">
      <rect id="Rectangle_2326" data-name="Rectangle 2326" width="29.378" height="29.368" fill="#449994"/>
    </clipPath>
  </defs>
  <g id="Group_16066" data-name="Group 16066" transform="translate(0)">
    <g id="Group_16074" data-name="Group 16074" transform="translate(0)">
      <g id="Group_16073" data-name="Group 16073" clip-path="url(#clip-path)">
        <path id="Path_11313" data-name="Path 11313" d="M29.379,14.665A14.689,14.689,0,1,1,14.711,0,14.658,14.658,0,0,1,29.379,14.665M10.312,13.651c.068-.014.117-.02.164-.035.128-.04.255-.088.384-.126a2.771,2.771,0,0,1,1.409-.066.774.774,0,0,1,.671.773,3.762,3.762,0,0,1-.086,1.241c-.259.954-.51,1.91-.772,2.863a12.568,12.568,0,0,0-.563,2.6,2.733,2.733,0,0,0,.172,1.324,2.377,2.377,0,0,0,1.588,1.3,3.769,3.769,0,0,0,1.5.114,5.317,5.317,0,0,0,1.052-.183c.6-.192,1.195-.431,1.787-.661a.321.321,0,0,0,.148-.182c.052-.146.08-.3.118-.451.021-.086.046-.171.063-.257.022-.113,0-.134-.108-.1s-.232.074-.348.113a2.888,2.888,0,0,1-1.394.116.884.884,0,0,1-.829-.954,7.014,7.014,0,0,1,.32-1.961c.272-1.007.561-2.01.848-3.013a6.5,6.5,0,0,0,.274-2.166,2.085,2.085,0,0,0-1.332-1.893,3.837,3.837,0,0,0-2.364-.183,14.823,14.823,0,0,0-2.3.746.325.325,0,0,0-.216.243c-.057.233-.117.465-.175.7a.724.724,0,0,0-.007.11m5.7-7.983a2.235,2.235,0,0,0-1.576.606,1.89,1.89,0,0,0-.674,1.505,2,2,0,0,0,.714,1.487,2.291,2.291,0,0,0,3.486-.553,1.879,1.879,0,0,0-.048-2.026,2.169,2.169,0,0,0-1.9-1.02" transform="translate(0 -0.001)" fill="#449994"/>
      </g>
    </g>
  </g>
</svg>
