<svg id="Group_16068" data-name="Group 16068" xmlns="http://www.w3.org/2000/svg" xmlns:xlink="http://www.w3.org/1999/xlink" width="29.451" height="30.512" viewBox="0 0 29.451 30.512">
  <defs>
    <clipPath id="clip-path">
      <rect id="Rectangle_2324" data-name="Rectangle 2324" width="29.451" height="30.512" fill="#449994"/>
    </clipPath>
  </defs>
  <g id="Group_16067" data-name="Group 16067" clip-path="url(#clip-path)">
    <path id="Path_11312" data-name="Path 11312" d="M14.679,0a22.934,22.934,0,0,0-3.888.307c-.731.115-1.451.3-2.175.454A18.371,18.371,0,0,0,5.645,1.7a24.773,24.773,0,0,0-5.2,2.768c-.436.312-.454.309-.438.838C.042,6.585.066,7.864.152,9.139A30.28,30.28,0,0,0,.68,12.95,24.494,24.494,0,0,0,1.5,16.075a24.306,24.306,0,0,0,1.47,3.606c.347.655.718,1.3,1.107,1.928a21.481,21.481,0,0,0,4.747,5.335c.765.625,1.6,1.167,2.412,1.733a25.213,25.213,0,0,0,3.234,1.754.468.468,0,0,0,.478.026c.932-.5,1.891-.945,2.8-1.479a23.32,23.32,0,0,0,4.4-3.381,22.582,22.582,0,0,0,3.838-5,25.612,25.612,0,0,0,2.478-6.275c.214-.805.362-1.63.5-2.453.131-.785.225-1.577.3-2.369a42.092,42.092,0,0,0,.182-4.446.445.445,0,0,0-.209-.418,21.363,21.363,0,0,0-3.713-2.185c-.816-.367-1.647-.7-2.484-1.021A22.987,22.987,0,0,0,18.431.277,22.294,22.294,0,0,0,14.679,0m.843,8.552v.227q0,4.859,0,9.719c0,.161,0,.321,0,.482,0,.108.033.148.158.146.614-.009,1.229,0,1.843,0a1.023,1.023,0,0,1,.814.382c.267.318.525.643.8.958a.587.587,0,0,1,.139.428c0,.1-.037.15-.147.149-.266,0-.531.011-.8.011l-7.874,0c-.276,0-.33-.058-.272-.33a.611.611,0,0,1,.117-.252c.259-.317.525-.629.794-.938a1.169,1.169,0,0,1,.941-.411c.581.006,1.162,0,1.744.009.111,0,.152-.04.147-.144,0-.033,0-.066,0-.1q0-5.059,0-10.118c0-.062.013-.124.022-.209a1.5,1.5,0,0,0,1.577-.005m2.241,3.82a.94.94,0,0,1,.054-.117q.52-.82,1.043-1.639c.508-.8,1.02-1.594,1.524-2.4.192-.305.147-.375-.216-.376-.493,0-.986,0-1.478,0-.958,0-1.916,0-2.874,0-.079,0-.2.022-.23.074a.9.9,0,0,1-.446.381,1,1,0,0,1-1.189-.263.418.418,0,0,0-.434-.2q-1.96,0-3.92.005c-.138,0-.277,0-.415.015-.257.024-.28.059-.15.278q.339.571.7,1.13.951,1.49,1.907,2.976a1.48,1.48,0,0,1,.075.173c-.2-.056-.375.047-.508-.166-.815-1.3-1.643-2.6-2.467-3.9-.208-.328-.257-.387-.514.008C7.9,8.848,7.61,9.35,7.3,9.839c-.5.789-1.013,1.572-1.515,2.361a.366.366,0,0,1-.531.151c.053-.084.1-.166.155-.247q1.268-1.968,2.537-3.934a.233.233,0,0,0-.028-.334.682.682,0,0,1,.04-.957.713.713,0,0,1,.99-.061.5.5,0,0,0,.293.11c1.473.006,2.946,0,4.419.005a.255.255,0,0,0,.243-.125.949.949,0,0,1,.792-.44,1.03,1.03,0,0,1,.877.45.3.3,0,0,0,.2.11c1.462.006,2.924,0,4.386.007a.5.5,0,0,0,.378-.128.61.61,0,0,1,.278-.135.745.745,0,0,1,.782.316.712.712,0,0,1-.029.839c-.088.108-.144.2-.047.348.829,1.282,1.649,2.571,2.473,3.856.067.1.149.2.224.3a.343.343,0,0,1-.5-.084c-.062-.1-.116-.2-.179-.3-.484-.747-.973-1.492-1.454-2.242-.3-.466-.586-.939-.884-1.406-.171-.268-.259-.263-.435.008l-.017.028c-.226.361-.45.724-.68,1.082-.588.918-1.181,1.833-1.769,2.751-.153.239-.222.274-.526.2m3.259.531s0-.007,0-.01q1.694,0,3.388,0c.1,0,.155.029.142.143a2.45,2.45,0,0,1-.36,1.076,2.122,2.122,0,0,1-1.823,1.039c-.952.016-1.9,0-2.857,0a1.568,1.568,0,0,1-.346-.037,2.291,2.291,0,0,1-1.752-1.892c-.049-.317-.049-.317.269-.317h3.338m-12.549,0V12.9h3.4c.183,0,.2.021.179.2a2.268,2.268,0,0,1-2.248,2.055c-.874.02-1.749.01-2.624,0a2.275,2.275,0,0,1-2.261-1.908c-.061-.327-.049-.341.278-.34H8.473" transform="translate(0 0)" fill="#449994"/>
  </g>
</svg>
