<svg id="Group_16194" data-name="Group 16194" xmlns="http://www.w3.org/2000/svg" xmlns:xlink="http://www.w3.org/1999/xlink" width="17.193" height="17.208" viewBox="0 0 17.193 17.208">
  <defs>
    <clipPath id="clip-path">
      <rect id="Rectangle_2356" data-name="Rectangle 2356" width="17.193" height="17.208" fill="#2a8478"/>
    </clipPath>
  </defs>
  <g id="Group_16193" data-name="Group 16193" transform="translate(0 0)" clip-path="url(#clip-path)">
    <path id="Path_11356" data-name="Path 11356" d="M8.977,17.2a7.766,7.766,0,0,1-2.631-.252,8.826,8.826,0,0,1-2.405-1.059A8.964,8.964,0,0,1,1.9,14.034,8.454,8.454,0,0,1,.452,11.425a8.616,8.616,0,0,1-.37-3.953A7.643,7.643,0,0,1,.637,5.391,9.729,9.729,0,0,1,1.563,3.7,8.674,8.674,0,0,1,2.926,2.175,8.946,8.946,0,0,1,5.248.72,8.818,8.818,0,0,1,7.485.091a8.044,8.044,0,0,1,2.723.055c.175.033.339.131.515.167A7.54,7.54,0,0,1,13.41,1.5a8.928,8.928,0,0,1,2.1,2.016A8.532,8.532,0,0,1,16.642,5.59a8.37,8.37,0,0,1,.548,3.364,8.569,8.569,0,0,1-3.472,6.609,8.622,8.622,0,0,1-1.633.915c-.509.228-1.08.316-1.593.539a3.786,3.786,0,0,1-1.514.179M10.832,6.635v0h.475c.159,0,.317,0,.475,0,.217-.01.3-.091.308-.3a1.41,1.41,0,0,0-.006-.228,2.978,2.978,0,0,0-1.607-2.444,6.392,6.392,0,0,0-.847-.334c-.3-.106-.345-.159-.352-.481-.006-.272-.007-.545,0-.817a.254.254,0,0,0-.221-.287,2.817,2.817,0,0,0-.6-.018c-.261.022-.321.107-.325.367,0,.291-.006.582-.026.872a.322.322,0,0,1-.289.308,4.019,4.019,0,0,0-1.371.478A2.722,2.722,0,0,0,5.182,5.258,3,3,0,0,0,5.127,7,2.533,2.533,0,0,0,6.268,8.633q.282.174.573.334a6.288,6.288,0,0,0,1,.523,6.47,6.47,0,0,1,1.011.463,1.382,1.382,0,0,1,.561,1.765.723.723,0,0,1-.648.459c-.164.01-.329.006-.494,0a.948.948,0,0,1-.824-.522,2.591,2.591,0,0,1-.233-.714c-.063-.278-.126-.355-.414-.364-.209-.007-.419,0-.627,0-.387,0-.774,0-1.16.012-.145,0-.307.021-.314.226A2.942,2.942,0,0,0,6.16,13.53a5.691,5.691,0,0,0,1.059.436c.185.062.372.118.556.182a.254.254,0,0,1,.179.261c0,.272.012.544.015.816,0,.143.034.3.186.315a2.986,2.986,0,0,0,.732.008.323.323,0,0,0,.279-.372c-.008-.24-.007-.482,0-.722a.374.374,0,0,1,.313-.395c.366-.118.737-.229,1.09-.379a2.482,2.482,0,0,0,1.225-1.17,3.287,3.287,0,0,0,.226-2.1,2.2,2.2,0,0,0-.5-1.069A6.105,6.105,0,0,0,9.862,8.13,6.872,6.872,0,0,0,8.78,7.624a2.882,2.882,0,0,1-.891-.563.482.482,0,0,1-.161-.227,3.634,3.634,0,0,1-.112-.818.873.873,0,0,1,.65-.843A.97.97,0,0,1,9.3,5.523a1.839,1.839,0,0,1,.29.833.318.318,0,0,0,.347.279c.3,0,.6,0,.894,0" transform="translate(0 0)" fill="#2a8478"/>
  </g>
</svg>
