<svg xmlns="http://www.w3.org/2000/svg" xmlns:xlink="http://www.w3.org/1999/xlink" width="40" height="40" viewBox="0 0 40 40">
  <defs>
    <clipPath id="clip-path">
      <rect id="Rectangle_2343" data-name="Rectangle 2343" width="19.117" height="15.107" fill="#eef1f3"/>
    </clipPath>
  </defs>
  <g id="Group_16100" data-name="Group 16100" transform="translate(-242.399 -209.072)">
    <path id="Path_11330" data-name="Path 11330" d="M20,0A20,20,0,1,1,0,20,20,20,0,0,1,20,0Z" transform="translate(242.399 209.072)" fill="#449994" opacity="0.69"/>
    <g id="Group_16099" data-name="Group 16099" transform="translate(252.677 221.682)">
      <g id="Group_16098" data-name="Group 16098" transform="translate(0 0)" clip-path="url(#clip-path)">
        <path id="Path_11327" data-name="Path 11327" d="M0,14.35V3.3a1.11,1.11,0,0,1,1.228-.751c1.185.028,2.372.008,3.558.009.106,0,.185,0,.2-.144.057-.442.123-.883.194-1.323a1.253,1.253,0,0,1,.483-.87A1.357,1.357,0,0,1,6.5,0C7.384,0,8.27,0,9.156,0c1.2,0,2.4.01,3.595,0a1.214,1.214,0,0,1,1.213.982c.017.182.064.36.092.541.052.342.1.684.151,1.035h.128c1.223,0,2.446.013,3.668-.006a1.121,1.121,0,0,1,1.114.567V14.5a.978.978,0,0,1-.972.607c-1.454,0-2.908,0-4.362,0l-6.012,0q-3.363,0-6.727,0a.985.985,0,0,1-.811-.349A2.707,2.707,0,0,1,0,14.35M6.353,1.172c-.046.281-.089.534-.128.787-.03.193-.056.387-.082.581A1.208,1.208,0,0,1,4.818,3.712q-1.706,0-3.412,0c-.245,0-.245,0-.245.252q0,1.458,0,2.916,0,3.421,0,6.842c0,.169.041.23.223.229,1.351-.008,2.7-.005,4.053-.005h6.933q2.742,0,5.484,0c.126,0,.169-.034.169-.165q0-4.934,0-9.868c0-.167-.051-.2-.209-.2-1.168.005-2.335,0-3.5,0a1.178,1.178,0,0,1-1.246-1.005q-.121-.676-.212-1.357c-.019-.139-.065-.18-.2-.18-1.614,0-3.228,0-4.842,0H6.353" transform="translate(0 0)" fill="#eef1f3"/>
        <path id="Path_11328" data-name="Path 11328" d="M62.624,51.884a4.321,4.321,0,1,1,4.515,4.3,4.356,4.356,0,0,1-4.515-4.3m4.312,3.15a3.158,3.158,0,1,0-3.144-3.282,3.141,3.141,0,0,0,3.144,3.282" transform="translate(-57.36 -43.549)" fill="#eef1f3"/>
        <path id="Path_11329" data-name="Path 11329" d="M183.254,55.279a.933.933,0,0,1-.921.937.919.919,0,0,1-.911-.948.916.916,0,1,1,1.832.01" transform="translate(-166.173 -49.789)" fill="#eef1f3"/>
      </g>
    </g>
  </g>
</svg>
