<svg xmlns="http://www.w3.org/2000/svg" xmlns:xlink="http://www.w3.org/1999/xlink" width="35.64" height="40.204" viewBox="0 0 35.64 40.204">
  <defs>
    <clipPath id="clip-path">
      <rect id="Rectangle_2264" data-name="Rectangle 2264" width="35.64" height="40.204" fill="#449994"/>
    </clipPath>
  </defs>
  <g id="Group_15857" data-name="Group 15857" transform="translate(-88 1)">
    <g id="Group_15856" data-name="Group 15856" transform="translate(88 -1)" clip-path="url(#clip-path)">
      <path id="Path_11227" data-name="Path 11227" d="M12.007,174.349a5.568,5.568,0,0,0,.466.739c.433.5.883.987,1.352,1.453a49.6,49.6,0,0,0,3.882,3.386.148.148,0,0,0,.224.005c1.182-1.02,2.375-2.028,3.547-3.06a11.783,11.783,0,0,0,1.705-1.806c.164-.221.292-.469.446-.718.1.069.222.157.346.248a12.548,12.548,0,0,0,4.207,2.023c.872.231,1.767.37,2.645.58a13.957,13.957,0,0,1,1.856.532,3.7,3.7,0,0,1,2.1,2.222,10.675,10.675,0,0,1,.582,2.325,29.538,29.538,0,0,1,.275,4.2,2.261,2.261,0,0,1-.563,1.494,5.507,5.507,0,0,1-1.762,1.34,14.571,14.571,0,0,1-2.871,1.1c-.637.175-1.279.335-1.925.471-.846.178-1.694.369-2.551.477-1.446.182-2.9.327-4.35.446a48.988,48.988,0,0,1-5.974.087c-1.354-.054-2.706-.185-4.057-.3-.733-.064-1.464-.163-2.193-.268-.585-.084-1.171-.176-1.747-.305-.864-.194-1.724-.412-2.579-.643a13.911,13.911,0,0,1-2.489-.93,6.111,6.111,0,0,1-1.9-1.339A2.353,2.353,0,0,1,0,186.376c.049-1.14.065-2.284.175-3.419a10.685,10.685,0,0,1,.7-3.056,3.752,3.752,0,0,1,2.54-2.339c.889-.247,1.8-.436,2.7-.618A13.706,13.706,0,0,0,11.51,174.7l.5-.354" transform="translate(0 -151.741)" fill="#449994"/>
      <path id="Path_11228" data-name="Path 11228" d="M75,0a8.725,8.725,0,0,1,4.635,1.126q.777.458,1.53.958A4.842,4.842,0,0,1,83,4.541a10.992,10.992,0,0,1,.626,2.989c.051.655.111,1.309.172,1.962a.258.258,0,0,0,.072.169,1.427,1.427,0,0,1,.52,1.04,5.961,5.961,0,0,1-.516,3.258,2.14,2.14,0,0,1-.785.963.6.6,0,0,0-.185.29,14.572,14.572,0,0,1-2.658,4.434,8.407,8.407,0,0,1-3,2.247,5.141,5.141,0,0,1-4.714-.3,10.113,10.113,0,0,1-3.336-3.16,15.014,15.014,0,0,1-1.7-3.214.581.581,0,0,0-.3-.343,1.751,1.751,0,0,1-.721-.868,5.991,5.991,0,0,1-.55-3.22,3.322,3.322,0,0,1,.268-.838.606.606,0,0,1,.249-.266.28.28,0,0,0,.15-.267c.058-.913.088-1.83.2-2.736a8.648,8.648,0,0,1,.762-2.688A4.628,4.628,0,0,1,69.826,1.7a2.159,2.159,0,0,0,.368-.23,6.728,6.728,0,0,1,1.672-.9A8.789,8.789,0,0,1,75,0" transform="translate(-57.339 0)" fill="#449994"/>
    </g>
  </g>
</svg>
