<svg xmlns="http://www.w3.org/2000/svg" xmlns:xlink="http://www.w3.org/1999/xlink" width="40" height="40" viewBox="0 0 40 40">
  <defs>
    <clipPath id="clip-path">
      <rect id="Rectangle_2375" data-name="Rectangle 2375" width="21.223" height="19.338" fill="#eff2f3"/>
    </clipPath>
  </defs>
  <g id="Group_16473" data-name="Group 16473" transform="translate(-100)">
    <circle id="Ellipse_202" data-name="Ellipse 202" cx="20" cy="20" r="20" transform="translate(100)" fill="#3c82aa"/>
    <g id="Group_16312" data-name="Group 16312" transform="translate(109.388 10.331)">
      <g id="Group_16311" data-name="Group 16311" clip-path="url(#clip-path)">
        <path id="Path_11380" data-name="Path 11380" d="M21.2,116.217a3.056,3.056,0,0,0,3.264-1.267,3.819,3.819,0,0,0,3,1.518,3.66,3.66,0,0,0,2.927-1.591,3.369,3.369,0,0,0,5.54.049,3.327,3.327,0,0,0,3.517,1.223v.286q0,3.909,0,7.819a1.582,1.582,0,0,1-1.689,1.7H22.9a1.56,1.56,0,0,1-1.665-1.662q-.018-3.9-.035-7.792c0-.084,0-.169,0-.282m8.3,1.256h-.3c-1.487,0-2.973.006-4.46-.006-.249,0-.315.067-.314.315.009,2.406.005,4.813.006,7.219,0,.091.008.182.012.273H29.5Zm2.519,2.188c0,.559,0,1.117,0,1.676a.437.437,0,0,0,.5.492q1.676.005,3.351,0a.444.444,0,0,0,.506-.509q.006-1.663,0-3.326c0-.359-.161-.518-.523-.52q-1.65-.006-3.3,0c-.376,0-.529.158-.531.537,0,.55,0,1.1,0,1.65" transform="translate(-19.674 -106.615)" fill="#eff2f3"/>
        <path id="Path_11381" data-name="Path 11381" d="M77.944,6.648,79.07.62h3.575a1.707,1.707,0,0,1,.021.192c0,1.873,0,3.747,0,5.62,0,.169-.035.246-.226.245-1.435-.006-2.87,0-4.3,0a1.664,1.664,0,0,1-.2-.025" transform="translate(-72.338 -0.575)" fill="#eff2f3"/>
        <path id="Path_11382" data-name="Path 11382" d="M9.56.448c-.163.867-.32,1.7-.476,2.538-.206,1.1-.413,2.2-.613,3.3-.027.148-.072.224-.243.223-1.384-.006-2.769,0-4.153,0a1.617,1.617,0,0,1-.2-.026c.031-.1.054-.177.083-.255q.912-2.467,1.825-4.933A1.062,1.062,0,0,1,7,.439q1.148,0,2.3,0c.076,0,.152.007.264.013" transform="translate(-3.599 -0.404)" fill="#eff2f3"/>
        <path id="Path_11383" data-name="Path 11383" d="M158.875,6.135h-4.461V.1a1.7,1.7,0,0,1,.2-.024c.98-.006,1.961,0,2.941-.017.191,0,.261.051.3.249.326,1.854.666,3.706,1,5.558.015.082.017.166.027.269" transform="translate(-143.308 -0.055)" fill="#eff2f3"/>
        <path id="Path_11384" data-name="Path 11384" d="M218.107,6.083c-.126.007-.2.016-.277.016-1.35,0-2.7,0-4.049,0-.2,0-.278-.056-.314-.262-.328-1.862-.67-3.721-1.007-5.582-.012-.066-.015-.134-.026-.228a2.277,2.277,0,0,1,.229-.025c.645,0,1.29,0,1.934-.006a1,1,0,0,1,.993.639c.78,1.694,1.57,3.383,2.356,5.075.05.107.1.217.161.369" transform="translate(-197.154 -0.001)" fill="#eff2f3"/>
        <path id="Path_11385" data-name="Path 11385" d="M79.132,94.767a1.4,1.4,0,0,1-.414,1.41,3.046,3.046,0,0,1-4.45-.182.534.534,0,0,1-.1-.344c.01-.222.072-.441.089-.663.014-.186.089-.241.275-.24,1.048.009,2.1,0,3.143,0,.4,0,.807,0,1.211,0,.083,0,.167.009.244.014" transform="translate(-68.836 -87.934)" fill="#eff2f3"/>
        <path id="Path_11386" data-name="Path 11386" d="M154.124,94.757c.114-.006.2-.014.281-.014,1.358,0,2.715,0,4.073-.005.216,0,.326.052.319.278a.491.491,0,0,0,.026.178.847.847,0,0,1-.356,1,2.884,2.884,0,0,1-4.208-.384.739.739,0,0,1-.128-.372c-.021-.219-.006-.442-.006-.68" transform="translate(-143.034 -87.924)" fill="#eff2f3"/>
        <path id="Path_11387" data-name="Path 11387" d="M234.435,95.121c.077.958-1.134,2.109-2.267,2.154a2.615,2.615,0,0,1-1.874-.726,1.752,1.752,0,0,1-.555-1.428Z" transform="translate(-213.215 -88.279)" fill="#eff2f3"/>
        <path id="Path_11388" data-name="Path 11388" d="M0,94.794H4.759a2.393,2.393,0,0,1-4.759,0" transform="translate(0 -87.976)" fill="#eff2f3"/>
      </g>
    </g>
  </g>
</svg>
