<svg id="Group_15938" data-name="Group 15938" xmlns="http://www.w3.org/2000/svg" xmlns:xlink="http://www.w3.org/1999/xlink" width="34.611" height="31.458" viewBox="0 0 34.611 31.458">
  <defs>
    <clipPath id="clip-path">
      <rect id="Rectangle_2287" data-name="Rectangle 2287" width="34.611" height="31.458" transform="translate(0 0)" fill="#408e9f"/>
    </clipPath>
  </defs>
  <g id="Group_15937" data-name="Group 15937" clip-path="url(#clip-path)">
    <path id="Path_11257" data-name="Path 11257" d="M39.864,56.18a4.909,4.909,0,0,1-5.269-2.064,6.085,6.085,0,0,1-4.85,2.446,5.8,5.8,0,0,1-4.81-2.576,5.653,5.653,0,0,1-4.484,2.41,5.514,5.514,0,0,1-4.5-2.341c-1.56,1.673-3.336,2.651-5.715,2.017-.005.08-.017.178-.017.276,0,4.335.017,8.67-.018,13.005a2.614,2.614,0,0,0,2.678,2.631q11.368-.017,22.736,0a17.773,17.773,0,0,0,2.1-.056,2.459,2.459,0,0,0,2.124-2.436q.018-6.269.024-12.539c0-.244,0-.487,0-.768M34.62,58.19V70.925c-.1.006-.182.015-.263.015q-3.793,0-7.586,0c-.433,0-.428.055-.39-.421.01-.123,0-.248,0-.371q0-5.8,0-11.608c0-.11.01-.22.016-.344ZM22.3,61.765h0q0,1.377,0,2.755a.691.691,0,0,1-.724.78c-.144.011-.289.011-.433.01-1.342-.006-2.684-.014-4.026-.018-.4,0-.8.022-1.207.011a.64.64,0,0,1-.713-.653c-.028-.275,0-.556,0-.834,0-1.569-.014-3.137,0-4.705.005-.69.23-.918.882-.921q2.648-.011,5.295.006c.708,0,.918.23.923.937.006.877,0,1.754,0,2.631" transform="translate(-7.796 -40.525)" fill="#408e9f"/>
    <path id="Path_11258" data-name="Path 11258" d="M42.469.06c-1.882,0-3.73,0-5.578,0-.193,0-.243.077-.243.26q.009,4.693,0,9.385c0,.18.047.258.245.257q3.625-.009,7.25-.007c.049,0,.1-.01.187-.02L42.469.06" transform="translate(-18.861 -0.044)" fill="#408e9f"/>
    <path id="Path_11259" data-name="Path 11259" d="M11.1,10.053c-.285-.776-.559-1.528-.838-2.279Q9.1,4.632,7.929,1.491A1.681,1.681,0,0,0,6.115.213H1.82c.171.893.338,1.75.5,2.609Q2.962,6.285,3.6,9.749c.045.249.138.331.4.33,2.322-.005,4.643.007,6.965.013a.677.677,0,0,0,.133-.039" transform="translate(23.059 -0.16)" fill="#408e9f"/>
    <path id="Path_11260" data-name="Path 11260" d="M72.449,10.046h.859q3.036,0,6.071,0c.442,0,.4.052.4-.425q0-4.567,0-9.135V.177H74.24l-1.791,9.869" transform="translate(-63.234 -0.133)" fill="#408e9f"/>
    <path id="Path_11261" data-name="Path 11261" d="M109.014.012c-.3,0-.578,0-.853,0-.857,0-1.714-.005-2.57-.012a1.7,1.7,0,0,0-1.708,1.039q-1.028,2.248-2.068,4.49c-.642,1.382-1.3,2.759-1.943,4.139a2.443,2.443,0,0,0-.081.242h1.528c1.868,0,3.736,0,5.6,0,.231,0,.329-.051.375-.314.489-2.79,1-5.577,1.5-8.365.069-.384.133-.769.212-1.223" transform="translate(-99.284 0)" fill="#408e9f"/>
    <path id="Path_11262" data-name="Path 11262" d="M38.807,44.444c-1.217,0-2.435.005-3.652,0-.209,0-.281.071-.272.265a1.075,1.075,0,0,1-.005.247,1.873,1.873,0,0,0,.778,1.831,4.971,4.971,0,0,0,2.964,1.4,5.069,5.069,0,0,0,4.267-1.767.568.568,0,0,0,.125-.395c-.045-.461-.125-.918-.192-1.377-.033-.223-.206-.194-.358-.194H38.807v-.006" transform="translate(-17.088 -33.359)" fill="#408e9f"/>
    <path id="Path_11263" data-name="Path 11263" d="M76.362,44.45c-1.134,0-2.269.008-3.4-.005-.289,0-.41.095-.423.383a5.6,5.6,0,0,1-.1.827.715.715,0,0,0,.176.655,4.662,4.662,0,0,0,7.381-.2.869.869,0,0,0,.146-.457c.024-.276-.008-.558.015-.834s-.062-.377-.358-.373c-1.144.017-2.289.007-3.434.007" transform="translate(-63.602 -33.362)" fill="#408e9f"/>
    <path id="Path_11264" data-name="Path 11264" d="M111.778,44.484c-1.167,0-2.334,0-3.5,0-.4,0-.425.051-.291.441a4.56,4.56,0,0,0,2,2.619,3.955,3.955,0,0,0,4.4-.47,3.045,3.045,0,0,0,1.226-2.355c.011-.211-.073-.251-.245-.25-.578,0-1.157,0-1.735,0h-1.859v.013" transform="translate(-107.912 -33.382)" fill="#408e9f"/>
    <path id="Path_11265" data-name="Path 11265" d="M0,44.419a3.93,3.93,0,0,0,1.779,2.826,3.889,3.889,0,0,0,5.891-2.17c.214-.662.314-.672-.5-.672-2.311,0-4.622-.006-6.933-.009-.069,0-.137.014-.237.025" transform="translate(26.79 -33.325)" fill="#408e9f"/>
  </g>
</svg>
