<svg id="Group_16450" data-name="Group 16450" xmlns="http://www.w3.org/2000/svg" xmlns:xlink="http://www.w3.org/1999/xlink" width="75.065" height="75.989" viewBox="0 0 75.065 75.989">
  <defs>
    <clipPath id="clip-path">
      <rect id="Rectangle_2410" data-name="Rectangle 2410" width="75.065" height="75.989" fill="#449994"/>
    </clipPath>
  </defs>
  <g id="Group_16449" data-name="Group 16449" clip-path="url(#clip-path)">
    <path id="Path_11462" data-name="Path 11462" d="M87.859,162.318c.4-.182.737-.333,1.072-.492a4.046,4.046,0,0,0,.658-.339c.323-.234.539-.152.788.125.4.445.825.87,1.264,1.278a2.872,2.872,0,0,0,3.968.069c1.046-.959,2.052-1.966,3.011-3.013a2.851,2.851,0,0,0-.064-3.995c-.45-.489-.913-.966-1.38-1.438a.36.36,0,0,1-.064-.475c.467-1.1.922-2.2,1.339-3.322.111-.3.239-.42.545-.417.664.008,1.331.024,1.993-.012a2.833,2.833,0,0,0,2.743-2.389,2.634,2.634,0,0,0,.035-.505q0-1.955,0-3.91a2.865,2.865,0,0,0-2.706-2.975c-.686-.058-1.379-.025-2.069-.018a.442.442,0,0,1-.48-.342c-.448-1.135-.92-2.261-1.4-3.384a.349.349,0,0,1,.088-.471c.465-.438.911-.895,1.354-1.354a2.939,2.939,0,0,0,.779-2.774c-.06-.3,0-.424.317-.519a3.628,3.628,0,0,1,2.274.1,16.477,16.477,0,0,0,7.678.62c1.164-.172,2.3-.533,3.453-.781a2.607,2.607,0,0,1,1.059-.066c1,.217,1.989.5,3.07.785-.139.154-.22.258-.314.347a4.689,4.689,0,0,0-1.536,2.259,3.8,3.8,0,0,0,.871,3.6c.537.6,1.117,1.168,1.71,1.715a3.827,3.827,0,0,0,5.193.051c1.1-1,2.133-2.067,3.2-3.1.073-.071.149-.139.251-.234.626.488,1.262.941,1.85,1.45a19.688,19.688,0,0,1,6.186,8.941,15.206,15.206,0,0,1,.76,5.037,8.155,8.155,0,0,1-1.847,4.8A17.56,17.56,0,0,1,128,161.587a35.163,35.163,0,0,1-10.808,3.687,52.532,52.532,0,0,1-12.871.867,44.9,44.9,0,0,1-16.049-3.624c-.115-.051-.227-.11-.411-.2" transform="translate(-60.295 -90.233)" fill="#449994"/>
    <path id="Path_11463" data-name="Path 11463" d="M17.819,146.361a18.553,18.553,0,0,1-6.25-2.577c-.707.726-1.42,1.465-2.14,2.2-1.03,1.047-1.327,1.046-2.361.008-.745-.748-1.5-1.484-2.23-2.247a1.031,1.031,0,0,1,.04-1.691c.765-.765,1.529-1.531,2.307-2.281a.323.323,0,0,0,.052-.5,14.642,14.642,0,0,1-2.322-5.58c-.053-.251-.169-.333-.428-.328-1.016.022-2.032.033-3.048.025C.392,133.379,0,132.975,0,131.936q0-1.6,0-3.206c0-.969.407-1.388,1.373-1.4.99-.013,1.981-.025,2.97.008.38.012.511-.115.585-.47a15.317,15.317,0,0,1,2.1-5.177c.1-.152.2-.3.319-.479-.09-.1-.175-.216-.274-.315-.737-.738-1.479-1.47-2.212-2.211a1.049,1.049,0,0,1,0-1.748q1.273-1.3,2.571-2.57a.99.99,0,0,1,1.6-.021c.787.742,1.551,1.507,2.311,2.277a.409.409,0,0,0,.625.068,14.98,14.98,0,0,1,5.527-2.25c.28-.055.324-.175.321-.417-.013-1.081-.021-2.163-.014-3.245.005-.861.35-1.212,1.208-1.219q1.8-.015,3.6.01c.814.011,1.186.4,1.188,1.218q.005,1.583-.022,3.167c0,.274.057.426.358.489a15.285,15.285,0,0,1,5.655,2.347c.22.152.327.02.458-.111.735-.739,1.468-1.481,2.209-2.215.688-.681,1.142-.682,1.83,0q1.25,1.238,2.482,2.494a1,1,0,0,1,.01,1.656c-.733.76-1.489,1.5-2.234,2.244-.1.1-.194.207-.307.327a13.757,13.757,0,0,1,1.817,3.489c.264.76.485,1.538.673,2.319.069.288.182.347.442.344.938-.012,1.876-.009,2.814-.005a4.589,4.589,0,0,1,.623.04,1.03,1.03,0,0,1,.986,1.137q0,1.857,0,3.714a1.026,1.026,0,0,1-1.032,1.135c-1.119.04-2.24.038-3.359,0-.342-.01-.44.087-.506.4a15.684,15.684,0,0,1-2.244,5.5c-.157.236-.118.365.075.556.777.77,1.541,1.554,2.3,2.345a.963.963,0,0,1-.014,1.565q-1.3,1.326-2.626,2.626a1,1,0,0,1-1.607.017c-.785-.743-1.549-1.51-2.3-2.283-.2-.2-.339-.262-.588-.091a15.331,15.331,0,0,1-5.412,2.236c-.4.092-.511.252-.5.648.035,1.015.024,2.032.027,3.049,0,.771-.348,1.2-1.113,1.218-1.3.037-2.606.035-3.908.014a.933.933,0,0,1-.959-1.015c-.017-1.081-.007-2.163-.009-3.244v-.535m10.362-16.018a7.315,7.315,0,0,0-7.479-7.372,7.4,7.4,0,1,0,7.479,7.372" transform="translate(0 -75.183)" fill="#449994"/>
    <path id="Path_11464" data-name="Path 11464" d="M115.437,29.635A15.559,15.559,0,1,1,99.978,45.1a15.51,15.51,0,0,1,15.459-15.467" transform="translate(-68.612 -20.338)" fill="#449994"/>
    <path id="Path_11465" data-name="Path 11465" d="M75.679,16.709a23.5,23.5,0,0,1,6.9-10.4A23.731,23.731,0,0,1,96.39.148,24.716,24.716,0,0,1,122.6,16.7c-.607,0-1.2.013-1.787-.014-.085,0-.185-.19-.238-.31a24.976,24.976,0,0,0-3.786-6.347,24.212,24.212,0,0,0-7.682-5.92A22.851,22.851,0,0,0,97.628,1.9,22.277,22.277,0,0,0,84.864,6.8a23.036,23.036,0,0,0-7,9.2c-.3.7-.3.7-1.074.7H75.679" transform="translate(-51.936 0)" fill="#449994"/>
    <path id="Path_11466" data-name="Path 11466" d="M219.141,59.349a32.562,32.562,0,0,1,3.669.028,2.693,2.693,0,0,1,2.328,2.767q.026,3.362.008,6.724a2.853,2.853,0,0,1-2.779,2.943c-.974.055-1.953.02-2.93.045-.338.008-.3-.2-.3-.41q0-4.418,0-8.835V59.349" transform="translate(-150.387 -40.701)" fill="#449994"/>
    <path id="Path_11467" data-name="Path 11467" d="M68.542,59.224V71.7a33.774,33.774,0,0,1-3.784-.031,2.662,2.662,0,0,1-2.216-2.657c-.021-2.345-.023-4.692.012-7.037a2.783,2.783,0,0,1,2.612-2.73c1.111-.083,2.233-.016,3.377-.016" transform="translate(-42.91 -40.626)" fill="#449994"/>
    <path id="Path_11468" data-name="Path 11468" d="M184.747,137.624a1.824,1.824,0,0,1-1.414-.487c-.555-.531-1.117-1.059-1.63-1.63a1.8,1.8,0,0,1-.014-2.608c1.071-1.155,2.176-2.282,3.316-3.368a1.84,1.84,0,0,1,2.67.052c.536.513,1.053,1.047,1.554,1.594a1.861,1.861,0,0,1,.026,2.589c-1.084,1.143-2.216,2.241-3.332,3.354a1.783,1.783,0,0,1-1.178.5" transform="translate(-124.31 -88.517)" fill="#449994"/>
    <path id="Path_11469" data-name="Path 11469" d="M212.655,105.266c-.1,1.454-3.359,7.131-4.581,7.989-.382-.371-.771-.733-1.133-1.121a.373.373,0,0,1,.039-.351,22.074,22.074,0,0,0,3.317-5.453c.022-.047.041-.1.062-.143.4-.934.4-.934,1.412-.922.284,0,.568,0,.884,0" transform="translate(-141.997 -72.238)" fill="#449994"/>
  </g>
</svg>
