<svg id="Group_16448" data-name="Group 16448" xmlns="http://www.w3.org/2000/svg" xmlns:xlink="http://www.w3.org/1999/xlink" width="59.808" height="74.356" viewBox="0 0 59.808 74.356">
  <defs>
    <clipPath id="clip-path">
      <rect id="Rectangle_2409" data-name="Rectangle 2409" width="59.808" height="74.356" fill="#449994"/>
    </clipPath>
  </defs>
  <g id="Group_16447" data-name="Group 16447" clip-path="url(#clip-path)">
    <path id="Path_11459" data-name="Path 11459" d="M29.878,166.971q-7.543,0-15.086,0a32.174,32.174,0,0,1-7.215-.614,16.041,16.041,0,0,1-2.985-.943,7.378,7.378,0,0,1-4.217-5.418,17.761,17.761,0,0,1,.427-8.8,19.555,19.555,0,0,1,5.466-8.878,18.2,18.2,0,0,1,7.332-4.383,19.048,19.048,0,0,1,5.863-.93q10.508.037,21.016,0a18.494,18.494,0,0,1,8.707,2.163,19.489,19.489,0,0,1,8.882,9.464,19.049,19.049,0,0,1,1.678,9.5A11,11,0,0,1,59,161.469a7.747,7.747,0,0,1-5.22,4.491,17.731,17.731,0,0,1-4.987.865c-4.6.088-9.194.093-13.791.123-1.708.011-3.415,0-5.123,0v.021" transform="translate(0 -92.617)" fill="#449994"/>
    <path id="Path_11460" data-name="Path 11460" d="M57.657,56.777c-.971-.093-1.955-.118-2.912-.29a16.977,16.977,0,0,1-11.976-8.325,3.567,3.567,0,0,1-.484-1.994q.045-2.963-.035-5.927a5.581,5.581,0,0,0-1.287-3.327.775.775,0,0,1-.12-.55,16.105,16.105,0,0,1,3-6.791,16.05,16.05,0,0,1,9.77-6.451,16.5,16.5,0,0,1,16.3,4.917,16.106,16.106,0,0,1,4.269,8.354.753.753,0,0,1-.122.549,5.993,5.993,0,0,0-1.333,3.926c0,1.95.036,3.9,0,5.849a3.836,3.836,0,0,1-.366,1.249,2.619,2.619,0,0,1-2.055,1.717c-1.051.212-2.086.5-3.134.725a.826.826,0,0,1-.559-.119,4.283,4.283,0,0,0-2.4-.7c-1.076.008-2.152-.009-3.227.01a4.326,4.326,0,0,0-3.465,6.792c.057.088.119.174.179.26l-.044.126" transform="translate(-27.605 -15.312)" fill="#449994"/>
    <path id="Path_11461" data-name="Path 11461" d="M64.884,28.986c0,1.4.086,2.8-.018,4.193a3.824,3.824,0,0,1-5.574,3.144.679.679,0,0,0-.816.077,17.028,17.028,0,0,1-6.312,2.634c-1.113.244-2.25.371-3.372.578a.97.97,0,0,0-.554.321,2.272,2.272,0,0,1-1.826.954q-1.512.036-3.025,0A2.214,2.214,0,0,1,41.145,38.7a2.154,2.154,0,0,1,2.07-2.327c1.151-.07,2.31-.031,3.464,0a2.04,2.04,0,0,1,1.487.789.7.7,0,0,0,.515.183,18.2,18.2,0,0,0,7.185-2.066c.45-.24.9-.49,1.323-.767a.489.489,0,0,0,.15-.387c-.048-.613-.176-1.222-.184-1.834-.028-2.138.02-4.277-.035-6.413a4,4,0,0,1,1.921-3.822c.117-.072.163-.343.156-.517a18.341,18.341,0,0,0-1.454-6.076,18.757,18.757,0,0,0-6.788-8.417A18.257,18.257,0,0,0,42.866,3.74a19.676,19.676,0,0,0-10.59,1.241A19.459,19.459,0,0,0,22.55,13.9a17.522,17.522,0,0,0-2.178,7.19,1.232,1.232,0,0,0,.57,1.308,3.315,3.315,0,0,1,1.434,2.8c.012,2.6.041,5.191,0,7.785a3.8,3.8,0,0,1-3.339,3.737,3.839,3.839,0,0,1-4.321-3.012,7.5,7.5,0,0,1-.121-1.282c-.012-2.192-.006-4.384-.006-6.576a4.106,4.106,0,0,1,2.069-3.843.5.5,0,0,0,.183-.356c.591-8.151,4.55-14.227,11.417-18.5a18.95,18.95,0,0,1,4.652-2.092A22.565,22.565,0,0,1,50.949,2.931a23.063,23.063,0,0,1,9.467,10.021,22.654,22.654,0,0,1,2.2,7.866c.03.281.025.567.081.841a.686.686,0,0,0,.244.412,4.016,4.016,0,0,1,1.978,3.606c-.009,1.1,0,2.205,0,3.308h-.031" transform="translate(-9.862 0)" fill="#449994"/>
  </g>
</svg>
