<svg xmlns="http://www.w3.org/2000/svg" xmlns:xlink="http://www.w3.org/1999/xlink" width="40" height="40" viewBox="0 0 40 40">
  <defs>
    <clipPath id="clip-path">
      <rect id="Rectangle_2372" data-name="Rectangle 2372" width="24.083" height="23.611" fill="#fff"/>
    </clipPath>
  </defs>
  <g id="Group_16296" data-name="Group 16296" transform="translate(-40 -353)">
    <circle id="Ellipse_202" data-name="Ellipse 202" cx="20" cy="20" r="20" transform="translate(40 353)" fill="#449994"/>
    <g id="Group_16302" data-name="Group 16302" transform="translate(48 361)">
      <g id="Group_16301" data-name="Group 16301" clip-path="url(#clip-path)">
        <path id="Path_11367" data-name="Path 11367" d="M143.622,52.291a1.334,1.334,0,0,0-1.755-.972c-.336.12-.674.237-1.011.355a14.651,14.651,0,0,0-1.816.792,17.6,17.6,0,0,0-1.746,1.021,16.782,16.782,0,0,0-1.913,1.463,14.3,14.3,0,0,0-1.9,1.994c-.352.465-.705.932-1.023,1.42a14.466,14.466,0,0,0-1.257,2.422c-.139.339-.259.687-.368,1.037-.117.379-.212.765-.315,1.148a4.155,4.155,0,0,0-.113.461c-.062.42-.12.841-.165,1.262-.043.4-.068.806-.1,1.209a13.445,13.445,0,0,0,.214,2.236c.1.552.243,1.1.394,1.638a1.277,1.277,0,0,0,2.031.618,1.255,1.255,0,0,0,.491-1.011,2.822,2.822,0,0,0-.136-.629c-.1-.452-.2-.908-.269-1.367a10.5,10.5,0,0,1-.072-2.022,7.354,7.354,0,0,1,.09-1.027c.081-.459.19-.916.313-1.366a9.82,9.82,0,0,1,.384-1.159c.186-.451.4-.891.628-1.323a11.8,11.8,0,0,1,1.222-1.857,14.137,14.137,0,0,1,2.183-2.193,14.608,14.608,0,0,1,2.359-1.546,12.487,12.487,0,0,1,1.164-.54c.521-.21,1.046-.416,1.584-.575a1.363,1.363,0,0,0,.9-1.489" transform="translate(-119.562 -47.071)" fill="#fff"/>
        <path id="Path_11368" data-name="Path 11368" d="M10.042,148.845c-.092-.468-.2-.932-.293-1.4a11.289,11.289,0,0,1-.167-1.821c-.012-.445.013-.891.014-1.336a8.759,8.759,0,0,1,.159-1.558c.081-.447.195-.887.3-1.33a.18.18,0,0,0-.056-.2q-1.288-1.2-2.573-2.4c-.471-.441-.938-.886-1.409-1.326-.129-.12-.158-.117-.287,0q-.463.431-.924.865-.639.6-1.278,1.2-.817.765-1.636,1.529c-.608.566-1.22,1.128-1.827,1.7-.035.033-.042.1-.063.146a.458.458,0,0,0,.134.046c.409,0,.818,0,1.226,0,.306,0,.319.013.319.316q0,1.586,0,3.172h0c0,1.037,0,2.074,0,3.111,0,.278-.059.254.252.254q3.872,0,7.744,0c.084,0,.169.011.253.009s.154-.029.152-.126a5.161,5.161,0,0,0-.038-.857m-1.568-5.309c0,.615,0,1.229,0,1.844q0,1.358,0,2.716a1.069,1.069,0,0,1-.252.71.878.878,0,0,1-.707.311q-1-.006-2.007,0-.628,0-1.256.012a1,1,0,0,1-.978-.964c0-1.037,0-2.074,0-3.111,0-.588,0-1.175,0-1.763a.994.994,0,0,1,.616-.982.947.947,0,0,1,.333-.074c.212-.011.425,0,.638,0a.359.359,0,0,0,.129-.013,6.742,6.742,0,0,0,1.343.005.192.192,0,0,0,.042.006c.311,0,.621,0,.932-.01a1.171,1.171,0,0,1,.905.324,1.022,1.022,0,0,1,.156.258,1.514,1.514,0,0,1,.106.732" transform="translate(0 -126.218)" fill="#fff"/>
        <path id="Path_11369" data-name="Path 11369" d="M69.776,66.095l-2.4-2.233q-.7-.649-1.394-1.3a.309.309,0,0,1-.1-.243c0-.351,0-.7,0-1.054,0-.136,0-.137-.133-.138-.318,0-.635,0-.952,0a.869.869,0,0,1-.188-.046.772.772,0,0,1,.106-.17c.665-.624,1.334-1.243,2-1.866q1.171-1.092,2.339-2.187c.1-.094.128-.093.235.007l1.62,1.516,1.971,1.839c.084.078.171.154.25.237a.1.1,0,0,1,.008.1c-.144.174-.287.351-.447.509-.054.054-.159.057-.249.086a.291.291,0,0,0,0,.067.4.4,0,0,1-.107.305A15.353,15.353,0,0,0,70.9,63.656a13.6,13.6,0,0,0-1.062,2.324.842.842,0,0,1-.058.115" transform="translate(-59.353 -52.17)" fill="#fff"/>
        <path id="Path_11370" data-name="Path 11370" d="M130.779,7.591c-.443-.416-.877-.827-1.313-1.234-.541-.5-1.08-1.01-1.627-1.509a.45.45,0,0,1-.178-.411,3.177,3.177,0,0,0,0-.4c0-.09-.04-.127-.137-.125-.29.007-.581,0-.872,0a.28.28,0,0,1-.081,0c-.033-.01-.081-.024-.09-.049s.018-.069.042-.091c.186-.177.375-.35.563-.525l2.66-2.48c.254-.237.51-.473.759-.715.072-.07.121-.058.185,0q.382.363.767.722,1.233,1.151,2.468,2.3c.245.228.493.452.735.681a.353.353,0,0,1,.053.119.377.377,0,0,1-.106.034c-.314,0-.628.007-.943,0-.1,0-.127.039-.126.13,0,.419,0,.838,0,1.256a.17.17,0,0,1-.088.166,14.78,14.78,0,0,0-1.829,1.356c-.277.236-.535.495-.8.743-.012.011-.026.021-.04.032" transform="translate(-116.192 0)" fill="#fff"/>
        <path id="Path_11371" data-name="Path 11371" d="M54.439,210.927c-.189,0-.378,0-.567,0-.361,0-.723,0-1.084-.013a.307.307,0,0,1-.289-.3,2.105,2.105,0,0,1,0-.243.32.32,0,0,1,.281-.309,1.824,1.824,0,0,1,.262-.012c.459,0,.918,0,1.376.011.092,0,.107-.029.107-.108,0-.615,0-1.229,0-1.844a1.686,1.686,0,0,1-.02-.178c.023-.206.021-.211-.183-.21H52.153c-.307,0-.615,0-.922,0-.122,0-.148.032-.138.154,0,.05.013.1.013.151,0,.421-.012.843-.015,1.264,0,.463,0,.925,0,1.388h.017q0,1.029,0,2.057c0,.122.019.138.14.145H54.3c.04,0,.08-.006.121-.01.079-.007.107-.049.107-.129q0-.866,0-1.733c0-.068-.024-.087-.088-.087" transform="translate(-46.935 -190.832)" fill="#fff"/>
      </g>
    </g>
  </g>
</svg>
