<svg id="Group_16202" data-name="Group 16202" xmlns="http://www.w3.org/2000/svg" xmlns:xlink="http://www.w3.org/1999/xlink" width="16.64" height="20.099" viewBox="0 0 16.64 20.099">
  <defs>
    <clipPath id="clip-path">
      <rect id="Rectangle_2338" data-name="Rectangle 2338" width="16.64" height="20.099" fill="#fff"/>
    </clipPath>
  </defs>
  <g id="Group_16193" data-name="Group 16193" clip-path="url(#clip-path)">
    <path id="Path_11245" data-name="Path 11245" d="M16.64,225.464a.575.575,0,0,1-.027-.066q-.255-.8-.508-1.6-.646-2.031-1.291-4.061c-.023-.074-.052-.105-.138-.1-1.021,0-2.041,0-3.062,0a.157.157,0,0,0-.154.066c-.94,1.355-1.95,2.656-3.019,3.912l-.123.145c-.021-.023-.035-.037-.048-.053-1.081-1.285-2.11-2.609-3.064-3.991a.166.166,0,0,0-.156-.08q-1.541,0-3.082,0a.116.116,0,0,0-.135.095q-.766,2.419-1.538,4.837c-.1.3-.2.6-.295.9Z" transform="translate(0 -205.365)" fill="#fff"/>
    <path id="Path_11246" data-name="Path 11246" d="M43.895,0c.2.026.4.044.6.079a5.788,5.788,0,0,1,4.023,2.675,5.627,5.627,0,0,1,.9,3.328,6.129,6.129,0,0,1-.369,1.735,17.422,17.422,0,0,1-1.455,3.088,44.9,44.9,0,0,1-3.98,5.708c-.019.023-.04.045-.068.076-.131-.163-.259-.321-.385-.482a45.54,45.54,0,0,1-3.682-5.377,17.275,17.275,0,0,1-1.447-3.092,5.694,5.694,0,0,1-.355-2.02A5.772,5.772,0,0,1,39.52,1.6,5.754,5.754,0,0,1,42.791.047c.132-.018.266-.031.4-.047Zm-.363,9.351a3.477,3.477,0,1,0-3.465-3.476,3.477,3.477,0,0,0,3.465,3.476" transform="translate(-35.22)" fill="#fff"/>
    <path id="Path_11247" data-name="Path 11247" d="M93.719,58.438a2.39,2.39,0,1,1,2.4-2.367,2.387,2.387,0,0,1-2.4,2.367" transform="translate(-85.405 -50.174)" fill="#fff"/>
  </g>
</svg>
