<svg id="Group_16079" data-name="Group 16079" xmlns="http://www.w3.org/2000/svg" xmlns:xlink="http://www.w3.org/1999/xlink" width="23.703" height="23.752" viewBox="0 0 23.703 23.752">
  <defs>
    <clipPath id="clip-path">
      <rect id="Rectangle_2328" data-name="Rectangle 2328" width="23.703" height="23.752" fill="#449994"/>
    </clipPath>
  </defs>
  <g id="Group_16078" data-name="Group 16078" clip-path="url(#clip-path)">
    <path id="Path_11314" data-name="Path 11314" d="M15.96.425a11.6,11.6,0,0,1,1.27,8.689,11.378,11.378,0,0,1-3.368,5.751A11.306,11.306,0,0,1,7.18,17.918,11.487,11.487,0,0,1,0,16.407a11.5,11.5,0,0,0,3.011,4.41A12.29,12.29,0,1,0,15.96.425" transform="translate(0.008 -0.368)" fill="#449994"/>
    <path id="Path_11315" data-name="Path 11315" d="M139.272,29.717c-.41-.192-.783-.386-1.172-.544a1.95,1.95,0,0,1-1.15-1.151c-.156-.406-.36-.793-.56-1.224-.074.144-.137.258-.193.375-.186.39-.376.779-.553,1.174a1.248,1.248,0,0,1-.61.636c-.469.226-.946.438-1.419.656l-.156.074.321.15c.371.174.744.346,1.113.524a1.771,1.771,0,0,1,.835.874c.193.406.376.816.565,1.224.024.051.055.1.1.182.067-.159.114-.281.169-.4q.264-.565.535-1.127a1.482,1.482,0,0,1,.669-.7c.42-.213.85-.408,1.276-.611.069-.033.137-.069.226-.115" transform="translate(-133.461 -23.205)" fill="#449994"/>
    <path id="Path_11316" data-name="Path 11316" d="M68.881,49.674c.136.061.245.108.352.158.3.139.6.271.887.421a1.239,1.239,0,0,1,.57.609c.16.354.322.706.484,1.059.013.028.032.053.064.105.044-.082.078-.142.108-.2.162-.341.331-.678.481-1.024a1.073,1.073,0,0,1,.571-.576c.344-.154.69-.306,1.034-.461a1.832,1.832,0,0,0,.17-.1c-.367-.163-.7-.322-1.045-.461a1.44,1.44,0,0,1-.833-.833c-.126-.314-.271-.62-.41-.928a.469.469,0,0,0-.064-.085c-.024.025-.058.046-.072.077-.13.294-.262.586-.382.884a1.662,1.662,0,0,1-.93.926c-.285.123-.571.243-.856.366-.034.014-.065.035-.127.07" transform="translate(-59.132 -41.004)" fill="#449994"/>
    <path id="Path_11317" data-name="Path 11317" d="M105.646,0c-.142.3-.273.557-.385.821a.881.881,0,0,1-.49.471c-.183.08-.365.161-.547.245a.561.561,0,0,0-.16.123,1.965,1.965,0,0,1,1.535,1.6c.057-.087.084-.121.1-.159a.984.984,0,0,0,.073-.168,1.825,1.825,0,0,1,1.34-1.24.392.392,0,0,0,.046-.018s.005-.009.019-.036a1.016,1.016,0,0,0-.121-.083c-.193-.1-.387-.195-.582-.286a.905.905,0,0,1-.483-.5c-.079-.2-.168-.4-.255-.6-.021-.049-.05-.094-.092-.172" transform="translate(-97.428)" fill="#449994"/>
    <path id="Path_11318" data-name="Path 11318" d="M116.167,86.632c-.25-.117-.455-.225-.669-.311a1.115,1.115,0,0,1-.657-.706c-.07-.2-.16-.385-.259-.62-.1.208-.183.379-.266.55a1.953,1.953,0,0,1-.181.354,1.259,1.259,0,0,1-.342.323c-.258.147-.534.261-.838.406.129.061.226.108.325.153.893.4.773.395,1.166,1.217.033.069.068.137.114.231.105-.236.205-.443.291-.656a1.111,1.111,0,0,1,.632-.646c.214-.088.425-.183.684-.3" transform="translate(-107.606 -73.602)" fill="#449994"/>
  </g>
</svg>
