<svg id="Group_15935" data-name="Group 15935" xmlns="http://www.w3.org/2000/svg" xmlns:xlink="http://www.w3.org/1999/xlink" width="32.708" height="33.429" viewBox="0 0 32.708 33.429">
  <defs>
    <clipPath id="clip-path">
      <rect id="Rectangle_2286" data-name="Rectangle 2286" width="32.708" height="33.429" fill="#3f8da0"/>
    </clipPath>
  </defs>
  <g id="Group_15934" data-name="Group 15934" clip-path="url(#clip-path)">
    <path id="Path_11256" data-name="Path 11256" d="M16.326,33.429h15.3c.895,0,1.079-.185,1.083-1.089,0-.374.006-.747-.01-1.12-.025-.572-.267-.8-.834-.809s-1.149-.013-1.723,0c-.319.008-.469-.085-.469-.437q.013-6.377.007-12.754,0-5.623,0-11.246a.822.822,0,0,0-.67-.925Q22.662,2.777,16.314.507C15.909.362,15.507.2,15.1.072c-.648-.209-1,.042-1,.734-.011,1.551-.006,3.1-.006,4.654q0,10.385,0,20.77c0,1.178,0,2.356,0,3.534,0,.64-.011.645-.557.646-.563,0-.582-.008-.582-.626q0-4.007,0-8.014,0-6.808,0-13.616c0-1.077.009-2.154,0-3.232-.008-1.268-.406-1.49-1.521-.9Q7.187,6.265,2.926,8.482A1.085,1.085,0,0,0,2.27,9.571c.012,6.765.006,13.531.018,20.3,0,.415-.121.573-.537.542a8.224,8.224,0,0,0-1.034.007.629.629,0,0,0-.681.631A13.29,13.29,0,0,0,.022,32.72c.045.543.279.708.834.708q4.74,0,9.48,0h5.99ZM18.908,8.518V8.5h.3c1.306.007,1.539.24,1.528,1.527a.969.969,0,0,1-1,1.055c-.559.02-1.121.019-1.68,0a.976.976,0,0,1-1.006-.832,3.2,3.2,0,0,1-.016-.772A.959.959,0,0,1,18,8.522c.3-.023.6,0,.9,0M18.917,7.3v0c-.287,0-.575.009-.861,0a.972.972,0,0,1-1.03-1.028,5.011,5.011,0,0,1,.007-.56.9.9,0,0,1,.81-.917,8.993,8.993,0,0,1,1.329-.071c1.345,0,1.61.277,1.563,1.623a.924.924,0,0,1-.913.949c-.3.018-.6,0-.9,0m5.822,3.824c0-.012,0-.024,0-.036a3.614,3.614,0,0,1-.815-.013,1.342,1.342,0,0,1-.772-.375,1.939,1.939,0,0,1-.255-1c-.02-.816.36-1.177,1.179-1.195.344-.007.689,0,1.033,0,1.271.006,1.5.242,1.49,1.518,0,.029,0,.057,0,.086a.843.843,0,0,1-.707.9,8.8,8.8,0,0,1-1.15.11m.029,11.6v0c-.273,0-.546.013-.818,0a1,1,0,0,1-1.07-1.089,4.692,4.692,0,0,1,0-.473.982.982,0,0,1,.974-1c.573-.029,1.149-.032,1.721,0A.992.992,0,0,1,26.6,21.244a4.7,4.7,0,0,1-.011.559.958.958,0,0,1-.958.92c-.286.016-.574,0-.861,0m-5.884,0v0c-.272,0-.545.012-.817,0-.7-.038-1.043-.454-1.049-1.251-.007-.817.344-1.287,1.028-1.318.572-.026,1.147-.023,1.72,0a.97.97,0,0,1,.972.995c.008.2.007.4,0,.6a.955.955,0,0,1-.948.97c-.3.021-.6,0-.9,0m-11.187,0v0H7.138c-.914,0-1.248-.334-1.255-1.238-.007-1.006.324-1.343,1.328-1.346.445,0,.89-.007,1.334.008A1.014,1.014,0,0,1,9.6,21.174a3.545,3.545,0,0,1,0,.559.993.993,0,0,1-1,.988c-.3.023-.6,0-.9,0M7.709,8.513v0c.3,0,.6-.02.9,0a.982.982,0,0,1,.967.874,3.617,3.617,0,0,1,.021.644,1.03,1.03,0,0,1-1.033,1.048c-.372.016-.746.006-1.119.009-1.335.01-1.621-.288-1.554-1.621a.942.942,0,0,1,.954-.957c.286-.016.573,0,.86,0M18.88,14.986a10.042,10.042,0,0,1-1.069-.095.877.877,0,0,1-.759-.778,3.242,3.242,0,0,1,.029-.981.832.832,0,0,1,.874-.739c.63-.022,1.263-.024,1.893,0a.894.894,0,0,1,.878.888,6.548,6.548,0,0,1,.011.688.906.906,0,0,1-.786.933,9.958,9.958,0,0,1-1.07.083m-11.212-2.6v0c.287,0,.574-.009.86,0a.956.956,0,0,1,1.01.7,1.492,1.492,0,0,1-.362,1.659.559.559,0,0,1-.268.128c-.768.011-1.54.053-2.3-.008a.771.771,0,0,1-.709-.8c-.011-.575-.15-1.21.5-1.57a1.1,1.1,0,0,1,.453-.1c.271-.016.544,0,.817,0m17.12.006v0c.3,0,.6-.012.9,0a.917.917,0,0,1,.894.873c.016.185.015.372.014.558a.993.993,0,0,1-.953,1.108,10.929,10.929,0,0,1-1.926-.03.914.914,0,0,1-.835-.941,4.174,4.174,0,0,1,.007-.644.945.945,0,0,1,.91-.919c.327-.028.658-.005.988-.005m-17,6.386v-.007c-.344,0-.69.022-1.031-.005a.942.942,0,0,1-.865-.867c-.09-.9.105-1.416.606-1.6a.272.272,0,0,1,.082-.023c.714-.01,1.43-.057,2.14-.013a.87.87,0,0,1,.865.858c.06.574.114,1.172-.488,1.534a1.13,1.13,0,0,1-.493.115c-.271.018-.544,0-.817,0m16.949,0v0c-.287,0-.573.006-.86,0a.945.945,0,0,1-.983-.885,3.417,3.417,0,0,1,.015-.814.813.813,0,0,1,.731-.789,15.22,15.22,0,0,1,2.265.009.814.814,0,0,1,.677.792,4.624,4.624,0,0,1,.016.73.943.943,0,0,1-.916.952c-.314.022-.63,0-.945,0m-5.819,0c-.315,0-.63.013-.944,0a.992.992,0,0,1-.943-.894c-.108-.812.133-1.405.643-1.575a.7.7,0,0,1,.21-.04c.656,0,1.313-.026,1.967,0a.859.859,0,0,1,.88.873,5.174,5.174,0,0,1,.009.686.95.95,0,0,1-.963.948c-.286.012-.572,0-.859,0m-.024,7.664v0c-.287,0-.575.011-.861,0a.956.956,0,0,1-.99-.838c-.142-.783.08-1.4.587-1.608a1.052,1.052,0,0,1,.377-.07c.6-.007,1.208-.028,1.808.011a1.236,1.236,0,0,1,.639.286c.441.356.287.87.271,1.33a.9.9,0,0,1-.883.885c-.315.02-.632,0-.947,0m5.823-2.516v-.006c.172,0,.345,0,.517,0a4.7,4.7,0,0,1,.516.018.952.952,0,0,1,.849.931c.055.91-.163,1.4-.688,1.547a.648.648,0,0,1-.17.026c-.632,0-1.264.021-1.9,0a.926.926,0,0,1-.952-.874c-.118-.8.091-1.376.583-1.569a1.3,1.3,0,0,1,.42-.069c.273-.01.546,0,.819,0M7.76,23.929v0c.273,0,.546,0,.819,0a.957.957,0,0,1,1.017.9,3.653,3.653,0,0,1,0,.6.949.949,0,0,1-1,1.013c-.6.025-1.206.016-1.809,0A.909.909,0,0,1,5.9,25.6a5.411,5.411,0,0,1-.016-.732.927.927,0,0,1,.882-.937c.328-.027.66-.005.99-.005" transform="translate(0 -0.001)" fill="#3f8da0"/>
  </g>
</svg>
