<svg id="Group_16192" data-name="Group 16192" xmlns="http://www.w3.org/2000/svg" xmlns:xlink="http://www.w3.org/1999/xlink" width="14.803" height="15.85" viewBox="0 0 14.803 15.85">
  <defs>
    <clipPath id="clip-path">
      <rect id="Rectangle_2355" data-name="Rectangle 2355" width="14.803" height="15.85" fill="#2a8478"/>
    </clipPath>
  </defs>
  <g id="Group_16191" data-name="Group 16191" clip-path="url(#clip-path)">
    <path id="Path_11354" data-name="Path 11354" d="M7.456,85.356h1.08l1.931,0h3.756a.7.7,0,0,1,.29.047.527.527,0,0,1,.328.514c0,.392,0,.784,0,1.176q0,.655,0,1.31c0,.515,0,1.03,0,1.545s0,1.015,0,1.523c0,.631,0,1.262,0,1.892a5.73,5.73,0,0,1-.025.682,1.465,1.465,0,0,1-.475.907,1.525,1.525,0,0,1-1.031.436c-.345.009-.69.011-1.035.011q-5.249,0-10.5,0a1.788,1.788,0,0,1-.7-.111,1.691,1.691,0,0,1-.307-.158,1.557,1.557,0,0,1-.682-1.005,2.333,2.333,0,0,1-.034-.4c-.006-.317-.005-.634,0-.952,0-.4,0-.806,0-1.209,0-.287,0-.575,0-.862,0-.4,0-.8,0-1.2,0-.427,0-.855,0-1.282,0-.651,0-1.3,0-1.953,0-.123,0-.246,0-.369A.538.538,0,0,1,.6,85.353H4.283c.39,0,.78,0,1.17,0,.549,0,1.1,0,1.646,0h.358v0M4.8,92.232c0-.185,0-.37,0-.554a.523.523,0,0,0-.5-.514q-.551-.009-1.1,0a.51.51,0,0,0-.514.514q-.01.543,0,1.086a.507.507,0,0,0,.489.515c.163.012.328,0,.492,0,.216,0,.433.007.649,0a.516.516,0,0,0,.485-.525q0-.26,0-.521m6.342-2.648h0c.183,0,.366,0,.548,0a.523.523,0,0,0,.511-.5q.01-.551,0-1.1a.52.52,0,0,0-.534-.513H10.618a.52.52,0,0,0-.531.531q0,.532,0,1.064a.527.527,0,0,0,.508.522c.183,0,.366,0,.548,0M8.5,92.222h0c0-.187,0-.373,0-.56a.5.5,0,0,0-.5-.5q-.54-.007-1.08,0a.582.582,0,0,0-.237.052.506.506,0,0,0-.289.5c0,.142,0,.284,0,.426,0,.215,0,.429,0,.644a.512.512,0,0,0,.449.487c.107.01.216.007.324.007.278,0,.556.006.834,0a.5.5,0,0,0,.5-.508c.005-.183,0-.366,0-.549m0-3.693h0c0-.187,0-.373,0-.56a.5.5,0,0,0-.5-.5c-.373-.005-.746,0-1.119,0a.5.5,0,0,0-.471.412,1.835,1.835,0,0,0-.012.267c0,.313-.005.627,0,.94a.5.5,0,0,0,.508.5q.543.006,1.085,0a.5.5,0,0,0,.509-.5c.005-.184,0-.369,0-.554" transform="translate(-0.042 -79.547)" fill="#2a8478"/>
    <path id="Path_11355" data-name="Path 11355" d="M2.91,1.584c.008-.236.01-.467.026-.7a.848.848,0,0,1,.2-.466,1.033,1.033,0,0,1,1.7.049,1.216,1.216,0,0,1,.194.7c0,.136,0,.272,0,.412H9.777c0-.022,0-.042,0-.062,0-.166.007-.332.009-.5a1.072,1.072,0,0,1,.287-.681,1.036,1.036,0,0,1,1.527,0,1.082,1.082,0,0,1,.287.753c0,.162,0,.324,0,.5h.047c.442,0,.885-.007,1.327,0a1.566,1.566,0,0,1,1.256.681,1.323,1.323,0,0,1,.264.72c.015.249.02.5.012.749a.5.5,0,0,1-.462.475c-.208.014-.418.009-.626.01H9.79l-3.224,0H.621A.615.615,0,0,1,.167,4.07.462.462,0,0,1,.015,3.76a3.591,3.591,0,0,1,.031-.92A1.529,1.529,0,0,1,.824,1.792a1.42,1.42,0,0,1,.456-.177,2.337,2.337,0,0,1,.39-.03c.384,0,.769,0,1.153,0Z" transform="translate(0 -0.001)" fill="#2a8478"/>
  </g>
</svg>
