<svg id="Group_16252" data-name="Group 16252" xmlns="http://www.w3.org/2000/svg" xmlns:xlink="http://www.w3.org/1999/xlink" width="28.919" height="28.877" viewBox="0 0 28.919 28.877">
  <defs>
    <clipPath id="clip-path">
      <rect id="Rectangle_2367" data-name="Rectangle 2367" width="28.919" height="28.877" fill="#f6f6f6"/>
    </clipPath>
  </defs>
  <g id="Group_16251" data-name="Group 16251" clip-path="url(#clip-path)">
    <path id="Path_11362" data-name="Path 11362" d="M46.779,0a2.524,2.524,0,0,0-.228.18q-.676.662-1.347,1.33Q39.792,6.916,34.376,12.321a1.742,1.742,0,0,0-.54,1.112c-.091.9-.227,1.787-.34,2.681-.1.786-.193,1.572-.293,2.387a3.03,3.03,0,0,0,.388,0c1.415-.191,2.825-.445,4.246-.558A2.924,2.924,0,0,0,39.807,17q5.648-5.692,11.336-11.343c.215-.215.44-.421.655-.626L46.779,0" transform="translate(-22.88)" fill="#f6f6f6"/>
    <path id="Path_11363" data-name="Path 11363" d="M27,17.447c-.426,0-.808,0-1.19,0-.643.01-.631-.133-.631.614q-.006,5.913,0,11.825c0,1.036-.135,1.176-1.179,1.175L5.762,31.055c-1.043,0-2.086,0-3.129,0-.535,0-.738-.2-.778-.743-.024-.321-.046-.643-.045-.964.008-2.782.025-5.563.031-8.345.008-4.095,0-8.189.016-12.284,0-.876.135-.985,1.019-1,.219,0,.438,0,.657,0q5.39,0,10.78-.007c.358,0,.865.109,1.034-.077.192-.212.1-.7.1-1.065.011-.693,0-.7-.683-.7Q8.8,5.855,2.826,5.849A2.919,2.919,0,0,0,1.1,6.288,2.644,2.644,0,0,0,0,8.7q.023,8.85.014,17.7c0,1.339-.012,2.679,0,4.019a2.374,2.374,0,0,0,1.738,2.369,5.059,5.059,0,0,0,1.262.117q10.528.009,21.057,0c.168,0,.335,0,.5,0a2.455,2.455,0,0,0,2.448-2.546Q27.012,24.52,27,18.684c0-.4,0-.792,0-1.237" transform="translate(0 -4.03)" fill="#f6f6f6"/>
  </g>
</svg>
