<svg id="Group_16440" data-name="Group 16440" xmlns="http://www.w3.org/2000/svg" xmlns:xlink="http://www.w3.org/1999/xlink" width="68.646" height="93.307" viewBox="0 0 68.646 93.307">
  <defs>
    <clipPath id="clip-path">
      <rect id="Rectangle_2406" data-name="Rectangle 2406" width="68.646" height="93.307" fill="#449994"/>
    </clipPath>
  </defs>
  <g id="Group_16439" data-name="Group 16439" clip-path="url(#clip-path)">
    <path id="Path_11449" data-name="Path 11449" d="M114.342,92.806h-5.017v-.553q0-6.669,0-13.339a2.526,2.526,0,0,0-2.547-2.852,57.793,57.793,0,0,0-5.869.036,2.327,2.327,0,0,0-2.284,2.548q0,6.765,0,13.53v.608h-4.97c-.014-.2-.041-.411-.041-.626q-.01-16.685-.015-33.37,0-8.008,0-16.016c0-.994.294-1.261,1.4-1.262,2.468,0,4.937.006,7.405.005q5.184,0,10.367-.007c.175,0,.351,0,.525.012.818.063,1.08.359,1.079,1.192q-.014,14.509-.025,29.018-.007,9.919-.01,19.839c0,.407,0,.813,0,1.235M107.9,62.89V62.9c-.588,0-1.176,0-1.765,0-.412,0-.645.172-.636.636.019,1,.011,2,0,3.007a.552.552,0,0,0,.6.639c1.161.01,2.321.007,3.482,0a.631.631,0,0,0,.7-.715c0-.97-.006-1.941.005-2.911.005-.47-.229-.663-.671-.663H107.9m.069-14.639c-.635,0-1.271-.012-1.906,0a.508.508,0,0,0-.566.594q.034,1.526,0,3.053c-.009.419.189.6.557.6,1.238.009,2.477,0,3.715-.006.349,0,.517-.181.515-.538-.006-1.049,0-2.1,0-3.148,0-.4-.2-.572-.6-.565-.572.01-1.144,0-1.715,0m-7.9,18.925v.013c.525,0,1.051.007,1.576,0,.623-.011.793-.186.8-.8q0-1.314,0-2.629c0-.664-.1-.813-.754-.834-1.129-.035-2.26-.012-3.39-.015-.438,0-.63.23-.63.652,0,.988,0,1.975-.006,2.962a.574.574,0,0,0,.642.652c.589.008,1.178,0,1.767,0m.01-18.927v.012c-.573,0-1.146,0-1.718,0a.6.6,0,0,0-.687.659c-.006,1.019,0,2.038-.007,3.057a.46.46,0,0,0,.523.527c1.225,0,2.45.006,3.675,0,.41,0,.589-.215.583-.638-.016-.987-.028-1.975,0-2.961.016-.469-.2-.642-.607-.652-.588-.014-1.177,0-1.765,0m7.866,7.342c0-.008,0-.016,0-.025-.6,0-1.207-.012-1.81,0-.389.01-.654.143-.641.628.028,1.016.021,2.035,0,3.052-.007.393.187.574.532.578,1.238.014,2.476.01,3.714,0,.361,0,.542-.209.54-.582-.006-1.017-.006-2.035,0-3.052,0-.419-.21-.606-.619-.6-.572,0-1.143,0-1.715,0m-7.909,4.247v.019c.573,0,1.147.013,1.72,0,.527-.016.681-.182.684-.7q.008-1.41,0-2.821c0-.536-.134-.707-.664-.718-1.162-.023-2.324,0-3.486-.013a.542.542,0,0,0-.615.615q-.015,1.53-.01,3.059a.5.5,0,0,0,.557.564q.907,0,1.815,0" transform="translate(-69.649 -30.89)" fill="#449994"/>
    <path id="Path_11450" data-name="Path 11450" d="M82.43,258.785c0,1.176.01,2.273-.014,3.371a.541.541,0,0,1-.3.383q-1.887.737-3.793,1.426a.766.766,0,0,0-.531.6,21.451,21.451,0,0,1-2.505,6.114.758.758,0,0,0-.018.6c.507,1.2,1.036,2.393,1.576,3.58a.654.654,0,0,1-.176.869c-1.494,1.456-2.961,2.939-4.421,4.43a.594.594,0,0,1-.789.146c-1.185-.542-2.385-1.051-3.574-1.586a.72.72,0,0,0-.752.029,19.458,19.458,0,0,1-5.966,2.465.829.829,0,0,0-.646.612c-.449,1.224-.927,2.437-1.379,3.66a.5.5,0,0,1-.551.388q-3.225-.02-6.449,0a.5.5,0,0,1-.555-.383c-.449-1.223-.937-2.432-1.387-3.656a.838.838,0,0,0-.661-.618,24.275,24.275,0,0,1-5.856-2.387.928.928,0,0,0-.932-.067c-1.14.527-2.3,1.007-3.435,1.545a.67.67,0,0,1-.9-.169c-1.49-1.528-3-3.038-4.507-4.548a.467.467,0,0,1-.114-.622q.877-1.88,1.694-3.788a.7.7,0,0,0-.071-.554,20.71,20.71,0,0,1-2.534-6.149.794.794,0,0,0-.436-.466c-1.257-.493-2.525-.959-3.8-1.417a.5.5,0,0,1-.378-.562c.019-.971,0-1.943.016-2.914a.447.447,0,0,1,.274-.314,2.367,2.367,0,0,1,.617-.018c4.315,0,8.631.013,12.946,0,.37,0,.449.118.462.457A12.456,12.456,0,0,0,48.724,269.7a12.72,12.72,0,0,0,15.22-1.437,12.5,12.5,0,0,0,4.168-8.917c.026-.486.151-.573.628-.57,4.092.025,8.185.011,12.277.009H82.43" transform="translate(-21.041 -192.567)" fill="#449994"/>
    <path id="Path_11451" data-name="Path 11451" d="M187.012,145.041v-33.3c.182-.017.383-.053.584-.053q9.434-.007,18.869-.006c1.07,0,1.342.3,1.342,1.374q0,15.177,0,30.354c0,.159,0,.319,0,.478a1.037,1.037,0,0,1-1.077,1.142c-.142.014-.286.009-.43.009H187.012Zm6.5-14.539c.525,0,1.051,0,1.576,0,.629-.006.779-.128.788-.743.014-.971-.012-1.943-.005-2.915a.538.538,0,0,0-.607-.62c-1.194.005-2.387.031-3.581.032a.519.519,0,0,0-.589.579c-.012,1-.026,2.008,0,3.01.014.493.237.652.743.656.557,0,1.114,0,1.672,0m7.763,0v0c.6,0,1.208,0,1.812,0a.541.541,0,0,0,.6-.594c.008-1.018,0-2.036,0-3.054a.5.5,0,0,0-.523-.554c-1.207-.022-2.414-.032-3.621-.052-.454-.008-.62.25-.621.658q-.005,1.479,0,2.959c0,.459.241.656.692.647.556-.011,1.113,0,1.669,0M193.5,118.92c-.621,0-1.242,0-1.863,0-.336,0-.552.15-.553.511,0,1.02-.012,2.04,0,3.059a.591.591,0,0,0,.65.658c1.146,0,2.292,0,3.438.009.474,0,.7-.226.692-.7q-.015-1.458,0-2.916c0-.449-.2-.632-.643-.622-.573.013-1.146,0-1.72,0m-.027,14.645h-1.623c-.623,0-.745.106-.767.739-.018.525-.008,1.051-.006,1.577,0,.43-.01.861.021,1.289.028.389.188.625.664.611,1.161-.032,2.323-.018,3.485,0,.374.006.594-.128.6-.5q.02-1.623,0-3.246c0-.346-.2-.492-.561-.476-.6.026-1.209.007-1.814.007m7.827-10.412v.02h.764c.271,0,.542.007.812-.005.681-.03.809-.163.811-.829q0-1.315,0-2.63c0-.608-.142-.77-.759-.779-1.131-.016-2.261.005-3.392-.01-.439-.006-.611.218-.614.608q-.012,1.529,0,3.059a.505.505,0,0,0,.562.565c.6,0,1.21,0,1.815,0m-.077,14.62c.589,0,1.178,0,1.768,0,.53-.005.683-.144.692-.678q.021-1.362,0-2.725c-.009-.617-.19-.794-.812-.8-1.131-.01-2.262.006-3.392-.009-.342,0-.542.151-.547.457-.017,1.114-.008,2.229.012,3.344.005.3.189.432.511.42.588-.023,1.178-.006,1.768-.007" transform="translate(-139.165 -83.109)" fill="#449994"/>
    <path id="Path_11452" data-name="Path 11452" d="M20.82,128.347q0,8.1.008,16.2c0,.37-.089.5-.475.494q-9.529-.016-19.059-.01c-.941,0-1.272-.332-1.276-1.324Q0,137.259,0,130.806q0-8.866.014-17.733c0-1.079.318-1.394,1.4-1.394q9.458,0,18.915,0c.388,0,.524.1.523.514q-.019,8.078-.008,16.156ZM6.457,130.5c.588,0,1.177-.008,1.766,0a.587.587,0,0,0,.681-.662c0-.987,0-1.974,0-2.96,0-.434-.193-.66-.623-.656-1.208.01-2.416.033-3.624.044-.38,0-.54.179-.537.559.01,1.019,0,2.038,0,3.056a.541.541,0,0,0,.611.618c.573,0,1.145,0,1.718,0m7.839,0v0c.557,0,1.114,0,1.672,0,.527,0,.74-.166.755-.694.026-.955.01-1.911,0-2.867,0-.425-.2-.695-.663-.692-1.193.008-2.386.016-3.579.016-.372,0-.514.209-.517.538q-.015,1.577-.011,3.153a.5.5,0,0,0,.577.545c.589,0,1.178,0,1.767,0m-7.749-11.58c-.6,0-1.208,0-1.812,0-.425,0-.63.168-.617.634.027.969.007,1.94.009,2.91,0,.548.1.69.657.7,1.175.021,2.351,0,3.526-.013a.533.533,0,0,0,.589-.6q0-1.526,0-3.053a.517.517,0,0,0-.589-.583c-.588.005-1.176,0-1.764,0M6.52,133.562c-.6,0-1.209.013-1.812,0-.385-.011-.573.168-.576.531q-.013,1.575,0,3.15c0,.357.165.542.56.537q1.812-.024,3.624,0c.373.006.552-.174.559-.494.023-1.081.028-2.162.009-3.243a.454.454,0,0,0-.552-.489c-.6.037-1.208.01-1.812.01m7.825-14.64c-.572,0-1.144.016-1.715,0-.471-.018-.671.2-.674.649q-.008,1.478-.018,2.956a.553.553,0,0,0,.636.639c1.159-.007,2.319-.005,3.478,0a.617.617,0,0,0,.675-.69c.015-.969,0-1.939-.009-2.908-.005-.453-.263-.648-.7-.642-.556.007-1.112,0-1.668,0m-.09,18.845v0c.572,0,1.145-.027,1.715.009.462.029.719-.162.726-.6.017-1.015.006-2.031-.017-3.046-.009-.4-.243-.58-.658-.576q-1.763.02-3.527,0c-.346,0-.525.166-.529.473q-.02,1.667.01,3.335c0,.266.157.419.468.408.6-.02,1.207-.006,1.811-.006" transform="translate(0 -83.104)" fill="#449994"/>
    <path id="Path_11453" data-name="Path 11453" d="M110.12,258.814c2.625,0,5.25.006,7.875-.008.34,0,.432.086.419.428a8.333,8.333,0,0,1-7.878,7.816,8.122,8.122,0,0,1-6.327-2.584,8.04,8.04,0,0,1-2.286-5.2c-.028-.384.072-.468.464-.465,2.577.024,5.155.012,7.732.012Z" transform="translate(-75.844 -192.584)" fill="#449994"/>
    <path id="Path_11454" data-name="Path 11454" d="M114.263,5.3c0-1.122-.006-2.2,0-3.28a3.911,3.911,0,0,1,.093-.85A1.509,1.509,0,0,1,115.81,0a1.477,1.477,0,0,1,1.406,1.154,7.631,7.631,0,0,1,.1,1.374c.015.891,0,1.783,0,2.743.67,0,1.314,0,1.959,0,.8,0,1.592-.009,2.387-.028.277-.007.419.078.415.375q-.012.788,0,1.577c.005.295-.141.385-.414.385q-5.9,0-11.8.007c-.3,0-.392-.11-.386-.389a14.438,14.438,0,0,0-.007-1.481c-.033-.4.136-.493.491-.485,1.305.03,2.61.044,3.916.064.095,0,.19,0,.373,0" transform="translate(-81.469 0)" fill="#449994"/>
    <rect id="Rectangle_2404" data-name="Rectangle 2404" width="12.554" height="2.582" transform="translate(51.944 22.887)" fill="#449994"/>
    <rect id="Rectangle_2405" data-name="Rectangle 2405" width="12.561" height="2.588" transform="translate(4.147 22.891)" fill="#449994"/>
  </g>
</svg>
