<svg id="Group_16105" data-name="Group 16105" xmlns="http://www.w3.org/2000/svg" xmlns:xlink="http://www.w3.org/1999/xlink" width="27.923" height="24.465" viewBox="0 0 27.923 24.465">
  <defs>
    <clipPath id="clip-path">
      <rect id="Rectangle_2290" data-name="Rectangle 2290" width="27.923" height="24.465" transform="translate(0 0)" fill="#2e3336"/>
    </clipPath>
  </defs>
  <g id="Group_15941" data-name="Group 15941" clip-path="url(#clip-path)">
    <path id="Path_11266" data-name="Path 11266" d="M15.98,23.176l-.069-.012c.08-.057.138-.1.2-.14.03-.02.073-.029.091-.056a10.8,10.8,0,0,1,1.21-1.285c.871-.891,1.758-1.767,2.637-2.65q.685-.688,1.368-1.379c.317-.322.63-.649.946-.971.239-.243.484-.481.721-.726.119-.123.223-.261.34-.387.045-.048.122-.069.159-.121a7.983,7.983,0,0,1,.931-1c.295-.3.573-.607.865-.906.261-.268.535-.522.791-.794a2.9,2.9,0,0,0,.238-.357,1.754,1.754,0,0,1,.134-.157.7.7,0,0,0,.1-.119,3.9,3.9,0,0,0,.342-.61c.013-.04,0-.138.11-.119a.857.857,0,0,0,.066-.2.723.723,0,0,0,.01-.131l.1.035a.959.959,0,0,1,.026-.171,1.213,1.213,0,0,1,.084-.166.367.367,0,0,0,.039-.074c.036-.141.061-.286.105-.424.057-.175.137-.342.191-.518a2.262,2.262,0,0,0,.058-.359c.014-.1.022-.208.033-.311h.034c0,.052.008.1.011.156a16.082,16.082,0,0,0,.006-2.866c-.009.052-.015.087-.021.122l-.023,0a3.806,3.806,0,0,0-.062-.435c-.063-.247-.145-.488-.218-.732-.026-.086-.045-.173-.074-.258a3.531,3.531,0,0,0-.186-.526,9.129,9.129,0,0,0-.914-1.487,7.649,7.649,0,0,0-1.677-1.609c-.342-.232-.713-.422-1.069-.633A4.437,4.437,0,0,0,22.638.4c-.175-.053-.354-.091-.526-.134L22.16.247c0-.008,0-.016,0-.024C21.985.2,21.8.186,21.63.142a6.736,6.736,0,0,0-2.16-.1,7.934,7.934,0,0,0-1.18.235,6.414,6.414,0,0,0-.689.2,7.636,7.636,0,0,0-1.681.855,9.369,9.369,0,0,0-1.55,1.373c-.108.113-.214.228-.329.332-.017.015-.1-.011-.126-.039-.277-.271-.543-.553-.823-.82A7.834,7.834,0,0,0,10.808.653c-.194-.085-.392-.164-.594-.23S9.792.31,9.6.26L9.631.25l0-.025A4.831,4.831,0,0,1,9.117.142,6.436,6.436,0,0,0,6.99.039,8.549,8.549,0,0,0,5.759.277a4.078,4.078,0,0,0-.585.17c-.31.119-.618.248-.918.39A7.278,7.278,0,0,0,2.273,2.267a6.5,6.5,0,0,0-.639.751A9.268,9.268,0,0,0,1,3.966a10.384,10.384,0,0,0-.472,1,3.927,3.927,0,0,0-.143.462c-.05.168-.1.337-.145.506A.34.34,0,0,1,.2,6.052c-.022.022-.057.042-.062.068-.015.071-.018.145-.027.218-.039.326-.1.65-.111.976-.013.422,0,.847.031,1.268.02.307.077.612.119.922l.077-.057a1.694,1.694,0,0,0,.037.312c.117.372.223.75.374,1.108a7.612,7.612,0,0,0,1.533,2.306c.493.514,1,1.018,1.5,1.527L5.4,16.463l1.566,1.6q.89.905,1.78,1.81,1.573,1.608,3.143,3.219.423.433.854.858a2.058,2.058,0,0,0,.658.412,1.612,1.612,0,0,0,.947.068,2.148,2.148,0,0,0,.537-.24,1.248,1.248,0,0,0,.268-.167c.134-.117.258-.247.383-.375.152-.157.3-.318.441-.469" transform="translate(0 0)" fill="#2e3336"/>
  </g>
</svg>
