<svg xmlns="http://www.w3.org/2000/svg" xmlns:xlink="http://www.w3.org/1999/xlink" width="49.067" height="49.032" viewBox="0 0 49.067 49.032">
  <defs>
    <clipPath id="clip-path">
      <rect id="Rectangle_2283" data-name="Rectangle 2283" width="24.885" height="25.889" fill="#f6f6f6"/>
    </clipPath>
  </defs>
  <g id="Group_15901" data-name="Group 15901" transform="translate(0)">
    <g id="Group_15919" data-name="Group 15919" transform="translate(0)">
      <path id="Path_11243" data-name="Path 11243" d="M24.526,49.03q5.155,0,10.309,0a14.005,14.005,0,0,0,10.207-4.158,16.931,16.931,0,0,0,2.032-2.653,12.62,12.62,0,0,0,1.829-5.38,22.035,22.035,0,0,0,.153-2.645q.018-9.907,0-19.814A14.3,14.3,0,0,0,47.625,7.8,14.086,14.086,0,0,0,42.71,2.265a13.141,13.141,0,0,0-6.2-2.153C34.96-.012,33.4.008,31.846.006c-5.8-.01-11.6,0-17.4-.007A15.239,15.239,0,0,0,8.779.988,13.679,13.679,0,0,0,1.938,6.871a13.426,13.426,0,0,0-1.786,5.3,19.28,19.28,0,0,0-.144,2.387Q-.009,24.618,0,34.679A14.53,14.53,0,0,0,1.317,41a13.705,13.705,0,0,0,5.64,6.142,14.2,14.2,0,0,0,7.182,1.883c3.462.009,6.924,0,10.387,0Z" transform="translate(0 0.001)" fill="#449994"/>
      <g id="Group_15921" data-name="Group 15921" transform="translate(12.091 11.571)">
        <g id="Group_15920" data-name="Group 15920" clip-path="url(#clip-path)">
          <path id="Path_11248" data-name="Path 11248" d="M10.423,87.656a3.356,3.356,0,0,0-1.3-1.727,3.441,3.441,0,0,0-5.157,1.58.2.2,0,0,1-.22.151q-1.312-.009-2.624,0A1.144,1.144,0,0,0,.05,89.112a1.155,1.155,0,0,0,1.056.764c.884,0,1.768,0,2.652,0a.185.185,0,0,1,.2.133,3.427,3.427,0,0,0,2.874,2.179,3.461,3.461,0,0,0,3.553-2.2c.041-.113.107-.115.2-.114l13.134,0a1.077,1.077,0,0,0,.96-.482,1.06,1.06,0,0,0,.08-1.131,1.118,1.118,0,0,0-.964-.607c-.051,0-.1,0-.153,0H10.423ZM5.965,88.769a1.177,1.177,0,0,1,1.212-1.229A1.21,1.21,0,0,1,8.4,88.756a1.23,1.23,0,0,1-1.229,1.25,1.193,1.193,0,0,1-1.21-1.237" transform="translate(0 -75.822)" fill="#f6f6f6"/>
          <path id="Path_11249" data-name="Path 11249" d="M5.649,174.986q2.27,0,4.54,0a.175.175,0,0,1,.192.128,3.466,3.466,0,0,0,2.672,2.16,3.282,3.282,0,0,0,2.611-.663,3.375,3.375,0,0,0,1.149-1.494.173.173,0,0,1,.189-.131q3.262.006,6.525,0c.1,0,.2,0,.305,0a1.108,1.108,0,1,0-.037-2.216c-.472,0-.944,0-1.416,0q-2.686,0-5.373,0a.172.172,0,0,1-.189-.13,3.376,3.376,0,0,0-2.615-2.16,3.332,3.332,0,0,0-2.537.547,3.256,3.256,0,0,0-1.278,1.629.163.163,0,0,1-.185.119q-4.491-.006-8.982-.006a1.1,1.1,0,0,0-1.111.793,1.083,1.083,0,0,0,.973,1.423c.106.006.213.005.319.005H5.649Zm9.169-1.089a1.213,1.213,0,0,1-1.283,1.214,1.228,1.228,0,0,1-1.171-1.328,1.213,1.213,0,0,1,1.285-1.139,1.2,1.2,0,0,1,1.169,1.254" transform="translate(-0.038 -151.437)" fill="#f6f6f6"/>
          <path id="Path_11250" data-name="Path 11250" d="M7.892,4.568q3.374,0,6.748,0a.184.184,0,0,1,.2.136A3.457,3.457,0,0,0,17.5,6.852a3.261,3.261,0,0,0,2.633-.679,3.276,3.276,0,0,0,1.124-1.464.193.193,0,0,1,.222-.143c.782,0,1.564.007,2.346,0a1.131,1.131,0,0,0,1.1-1.071A1.11,1.11,0,0,0,23.8,2.349q-1.166-.005-2.332,0a.182.182,0,0,1-.2-.135A3.4,3.4,0,0,0,18.632.056,3.328,3.328,0,0,0,16.11.615a3.285,3.285,0,0,0-1.268,1.62.155.155,0,0,1-.17.121Q7.959,2.349,1.246,2.348a1.121,1.121,0,0,0-1.168.921,1.1,1.1,0,0,0,1,1.294c.111.007.222.006.333.006H7.892ZM19.275,3.487a1.212,1.212,0,0,1-1.291,1.205,1.227,1.227,0,0,1-1.162-1.336A1.213,1.213,0,0,1,18.1,2.225a1.2,1.2,0,0,1,1.174,1.262" transform="translate(-0.052 0)" fill="#f6f6f6"/>
        </g>
      </g>
    </g>
  </g>
</svg>
