<svg xmlns="http://www.w3.org/2000/svg" xmlns:xlink="http://www.w3.org/1999/xlink" width="84.355" height="92.661" viewBox="0 0 84.355 92.661">
  <defs>
    <clipPath id="clip-path">
      <rect id="Rectangle_2031" data-name="Rectangle 2031" width="84.355" height="92.661" fill="#2a8478"/>
    </clipPath>
  </defs>
  <g id="Group_32" data-name="Group 32" transform="translate(-6.36 -6.275)">
    <g id="Group_15161" data-name="Group 15161" transform="translate(6.36 6.275)">
      <g id="Group_15160" data-name="Group 15160" transform="translate(0 0)" clip-path="url(#clip-path)">
        <path id="Path_5913" data-name="Path 5913" d="M42.053,75.847c-9.271,0-18.542.014-27.814-.008a13.572,13.572,0,0,1-9.054-3.1A13.845,13.845,0,0,1,0,61.632a13.475,13.475,0,0,1,2.37-7.46A45,45,0,0,0,9.028,38.044a56.628,56.628,0,0,0,.83-6.256,38.017,38.017,0,0,1,2.692-12.077A31.822,31.822,0,0,1,28.3,3.18,31.333,31.333,0,0,1,43.013.017,31.347,31.347,0,0,1,63.029,7.673a32.033,32.033,0,0,1,8.592,11.553A35.4,35.4,0,0,1,74.229,29.41,72.7,72.7,0,0,0,75.728,40a48.629,48.629,0,0,0,6.194,14.118,15.174,15.174,0,0,1,2.264,5.737,13.59,13.59,0,0,1-.65,6.658,13.077,13.077,0,0,1-5.229,6.865,14.447,14.447,0,0,1-8.243,2.469q-14,.009-28.01,0" transform="translate(0 -0.001)" fill="#2a8478"/>
        <path id="Path_5914" data-name="Path 5914" d="M18.008,54.557H46.777a16.111,16.111,0,0,1-12.631,8.259,16.386,16.386,0,0,1-16.137-8.259" transform="translate(9.817 29.74)" fill="#2a8478"/>
      </g>
    </g>
  </g>
</svg>
