<svg id="Group_16336" data-name="Group 16336" xmlns="http://www.w3.org/2000/svg" xmlns:xlink="http://www.w3.org/1999/xlink" width="39.13" height="39.217" viewBox="0 0 39.13 39.217">
  <defs>
    <clipPath id="clip-path">
      <rect id="Rectangle_2385" data-name="Rectangle 2385" width="39.13" height="39.217" fill="#449994"/>
    </clipPath>
  </defs>
  <g id="Group_16335" data-name="Group 16335" clip-path="url(#clip-path)">
    <path id="Path_11433" data-name="Path 11433" d="M30.572,18.177c0-1.127,0-2.211,0-3.3q0-6.718,0-13.435A1.374,1.374,0,0,1,32.023,0q4.118,0,8.237,0a1.383,1.383,0,0,1,1.477,1.5q0,8.16,0,16.32v.358c1.357,0,2.682-.005,4.007,0a1.444,1.444,0,0,1,1.569,1.2,1.421,1.421,0,0,1-.516,1.349l-6.218,6.226L37.334,30.2a1.441,1.441,0,0,1-2.355.014q-4.743-4.749-9.487-9.5a1.4,1.4,0,0,1-.423-1.64,1.448,1.448,0,0,1,1.455-.894c1.189-.006,2.379,0,3.568,0h.48m5.515,9.117,6.32-6.272c-.554,0-1.135,0-1.717,0-1.238-.008-1.738-.514-1.739-1.758q0-7.971,0-15.942V2.833H33.369v.426q0,4.631,0,9.261,0,3.416,0,6.832a1.479,1.479,0,0,1-1.684,1.669c-.506,0-1.012,0-1.518,0-.105,0-.21.017-.346.029l6.266,6.242" transform="translate(-16.581 0)" fill="#449994"/>
    <path id="Path_11434" data-name="Path 11434" d="M19.568,91.873c-4.3,0-8.606.057-12.906-.019A6.816,6.816,0,0,1,.256,86.691,9.013,9.013,0,0,1,.02,84.707c-.036-1.3-.012-2.607-.01-3.91a1.41,1.41,0,0,1,1.383-1.528,1.438,1.438,0,0,1,1.424,1.545c0,1.417-.017,2.834.005,4.251A4.123,4.123,0,0,0,6.88,89.058c4.024.01,8.047,0,12.071,0,4.353,0,8.706-.035,13.057.015a4.259,4.259,0,0,0,4.272-3.5,5.359,5.359,0,0,0,.05-.869c0-1.316-.007-2.632,0-3.948a1.439,1.439,0,0,1,1.431-1.5,1.356,1.356,0,0,1,1.36,1.272c0,1.844.054,3.7-.109,5.531A6.813,6.813,0,0,1,34,91.62a10.323,10.323,0,0,1-2.173.249c-4.087.023-8.174.011-12.261.011Z" transform="translate(0 -52.676)" fill="#449994"/>
  </g>
</svg>
