<svg id="Group_15366" data-name="Group 15366" xmlns="http://www.w3.org/2000/svg" xmlns:xlink="http://www.w3.org/1999/xlink" width="36.324" height="36.108" viewBox="0 0 36.324 36.108">
  <defs>
    <clipPath id="clip-path">
      <rect id="Rectangle_2197" data-name="Rectangle 2197" width="36.324" height="36.108" fill="#449994"/>
    </clipPath>
  </defs>
  <g id="Group_15365" data-name="Group 15365" clip-path="url(#clip-path)">
    <path id="Path_6142" data-name="Path 6142" d="M20.371,36.108v-.257q0-6.841,0-13.682c0-.244,0-.242.236-.242,1.313,0,2.626,0,3.94,0,.158,0,.206-.047.226-.206.164-1.312.34-2.622.512-3.932.04-.308.08-.616.121-.939h-.366q-2.245,0-4.49.006c-.138,0-.185-.042-.183-.183.014-1.134.013-2.268.037-3.4a3.4,3.4,0,0,1,.139-.817,1.515,1.515,0,0,1,1.151-1.117,6.669,6.669,0,0,1,1.347-.177c.774-.028,1.55-.014,2.324-.008.172,0,.215-.055.214-.224q-.013-2.073-.005-4.147c0-.137-.04-.177-.178-.19a28.762,28.762,0,0,0-4.447-.144,5.8,5.8,0,0,0-4.691,2.5,6.208,6.208,0,0,0-1.036,2.832A13.8,13.8,0,0,0,15.14,13.3c-.012,1.1,0,2.209,0,3.314,0,.243,0,.244-.242.244-1.319,0-2.638,0-3.957,0-.157,0-.2.039-.2.2q.008,2.357,0,4.714c0,.155.065.171.191.17,1.337,0,2.674,0,4.011-.008.16,0,.2.047.2.2q-.007,6.726-.008,13.451c0,.138-.013.277-.02.418a18.187,18.187,0,1,1,5.259.116" transform="translate(0 0)" fill="#449994"/>
  </g>
</svg>
