<svg id="Group_15359" data-name="Group 15359" xmlns="http://www.w3.org/2000/svg" xmlns:xlink="http://www.w3.org/1999/xlink" width="24.807" height="24.801" viewBox="0 0 24.807 24.801">
  <defs>
    <clipPath id="clip-path">
      <rect id="Rectangle_1680" data-name="Rectangle 1680" width="24.807" height="24.801" fill="#449994"/>
    </clipPath>
  </defs>
  <g id="Group_14386" data-name="Group 14386" transform="translate(0)" clip-path="url(#clip-path)">
    <path id="Path_4236" data-name="Path 4236" d="M12.417,24.8A12.4,12.4,0,1,1,24.807,12.285,12.333,12.333,0,0,1,12.417,24.8M18.35,7.721c.006-.035,0-.012,0,.009.139,1.173.274,2.347.427,3.517a.342.342,0,0,0,.239.227c1.23.011,2.46,0,3.69,0,.178,0,.233-.068.211-.249a10.149,10.149,0,0,0-1.594-4.441.346.346,0,0,0-.313-.1c-.873.326-1.739.672-2.66,1.032M6.43,7.71c-.876-.335-1.72-.64-2.549-.983-.245-.1-.357-.065-.49.148a10.085,10.085,0,0,0-1.3,3.171c-.1.454-.154.919-.229,1.383a1.184,1.184,0,0,0,.191.044c1.241,0,2.481,0,3.722.011.235,0,.232-.146.246-.313.058-.673.114-1.347.191-2.017.058-.5.148-1,.217-1.444M18.413,17.05c.212.057.41.1.6.165q1.011.376,2.015.772c.142.056.257.131.371-.054a10.415,10.415,0,0,0,1.549-4.608H18.84l-.426,3.725M1.868,13.323a10.393,10.393,0,0,0,1.485,4.55c.115.183.2.23.422.136.746-.311,1.5-.6,2.271-.855.3-.1.359-.232.309-.508-.082-.454-.157-.91-.206-1.369-.069-.645-.112-1.294-.168-1.954Zm5.959-1.886a2.678,2.678,0,0,0,.327.049c1.015,0,2.031-.006,3.046,0,.268,0,.287-.155.288-.35,0-.834.014-1.668,0-2.5a.34.34,0,0,0-.21-.252q-1.394-.162-2.792-.275a.34.34,0,0,0-.266.2c-.143,1.033-.264,2.069-.394,3.129m7.311.046c.485,0,.969-.01,1.453,0,.256.007.345-.087.315-.337-.115-.949-.217-1.9-.344-2.846a.336.336,0,0,0-.259-.2q-1.4.116-2.789.28a.314.314,0,0,0-.2.225c-.008.877.013,1.755.007,2.633,0,.216.1.242.266.241.518,0,1.037,0,1.555,0M7.827,13.325c.128,1.073.247,2.1.381,3.12.008.058.147.148.217.141,1.005-.106,2.009-.226,3.048-.347V13.325Zm5.506,2.9c1.032.133,2.023.266,3.017.379.071.008.218-.123.229-.2.142-1.011.265-2.025.4-3.065H13.333ZM8.66,18.368c.631,1.693,1.213,3.285,2.728,4.3.064-.08.09-.1.09-.115,0-1.419.006-2.837,0-4.256a.257.257,0,0,0-.187-.169c-.85.068-1.7.152-2.628.239m4.652,4.245.126.044a7.867,7.867,0,0,0,2.675-4.294l-2.555-.245c-.187-.018-.255.055-.253.251.009,1.192.007,2.385.008,3.577v.666M11.458,6.593V2.112C9.908,3.117,9.319,4.671,8.725,6.3l2.733.29m1.88-4.487V6.586L16.085,6.3c-.614-1.639-1.208-3.183-2.746-4.2M4.632,19.587A10.343,10.343,0,0,0,8.321,22.1a1.3,1.3,0,0,0-.039-.131C7.851,21.038,7.39,20.115,7,19.161c-.123-.3-.22-.365-.5-.261-.6.225-1.2.441-1.874.687m15.474.042c-.177-.08-.313-.15-.456-.2-.493-.188-.984-.378-1.482-.551-.137-.047-.289-.1-.369.139-.212.636-.442,1.267-.7,1.888-.162.4-.382.767-.6,1.2a10.085,10.085,0,0,0,3.608-2.475m-3.561-16.9,1.4,3.156,2.116-.738a9.746,9.746,0,0,0-3.512-2.419m-9.7,3.157L8.255,2.733A8.81,8.81,0,0,0,4.77,5.147l2.074.735" transform="translate(0 0)" fill="#449994"/>
  </g>
</svg>
