<svg xmlns="http://www.w3.org/2000/svg" xmlns:xlink="http://www.w3.org/1999/xlink" width="36.125" height="36.06" viewBox="0 0 36.125 36.06">
  <defs>
    <clipPath id="clip-path">
      <rect id="Rectangle_2193" data-name="Rectangle 2193" width="36.125" height="36.06" transform="translate(0)" fill="#449994"/>
    </clipPath>
  </defs>
  <g id="Group_15348" data-name="Group 15348" clip-path="url(#clip-path)">
    <path id="Path_6139" data-name="Path 6139" d="M18.081,0A18.03,18.03,0,1,1,0,17.556,18.054,18.054,0,0,1,18.081,0M14.729,26.291a1.354,1.354,0,0,0,1-.513q.984-.96,1.968-1.919c.08-.078.136-.108.248-.025q2.1,1.569,4.221,3.123a1.933,1.933,0,0,0,.509.271.849.849,0,0,0,1.173-.546,1.32,1.32,0,0,0,.068-.2c.091-.4.183-.8.269-1.2q.539-2.526,1.075-5.054c.512-2.406,1.029-4.812,1.535-7.219a6.8,6.8,0,0,0,.183-1.282.817.817,0,0,0-1.044-.851,2.061,2.061,0,0,0-.39.1c-.735.278-1.469.561-2.2.843q-2.7,1.039-5.4,2.08-4.046,1.564-8.091,3.131c-.563.218-1.133.421-1.688.658a2.453,2.453,0,0,0-.663.419.434.434,0,0,0,.062.722A1.614,1.614,0,0,0,8,19.051c1.335.428,2.677.835,4.007,1.278a.81.81,0,0,0,.94-.133.061.061,0,0,1,.015-.009q3.014-1.891,6.028-3.781c1.3-.815,2.593-1.634,3.892-2.446a.992.992,0,0,1,.373-.143.753.753,0,0,1,.283.079.775.775,0,0,1-.116.237c-.254.244-.52.476-.781.712q-3.736,3.37-7.47,6.744a.437.437,0,0,0-.13.254c-.038.35-.058.7-.082,1.053q-.1,1.527-.206,3.055c-.007.109-.015.218-.023.34" transform="translate(0 0)" fill="#449994"/>
  </g>
</svg>
