<svg id="Group_15347" data-name="Group 15347" xmlns="http://www.w3.org/2000/svg" xmlns:xlink="http://www.w3.org/1999/xlink" width="35.532" height="36.06" viewBox="0 0 35.532 36.06">
  <defs>
    <clipPath id="clip-path">
      <rect id="Rectangle_1679" data-name="Rectangle 1679" width="35.532" height="36.06" fill="#449994"/>
    </clipPath>
  </defs>
  <g id="Group_14384" data-name="Group 14384" transform="translate(0 0)" clip-path="url(#clip-path)">
    <path id="Path_2691" data-name="Path 2691" d="M17.889,35.233a16.888,16.888,0,0,1-2.911-.256,18.245,18.245,0,0,1-4.625-1.437c-.287-.133-.559-.3-.845-.434a.37.37,0,0,0-.261-.013q-3.852,1.432-7.7,2.872a1.075,1.075,0,0,1-1.493-.626A1.236,1.236,0,0,1,.1,34.5c.5-1.358,1-2.716,1.507-4.071.419-1.119.852-2.233,1.27-3.353a.334.334,0,0,0-.024-.255,17.814,17.814,0,0,1-1.632-3.441,19.152,19.152,0,0,1-.923-4.4,16.7,16.7,0,0,1,.122-3.845,16.885,16.885,0,0,1,1.279-4.5A18.287,18.287,0,0,1,5.383,5.222a17.381,17.381,0,0,1,6.254-4.067A17.13,17.13,0,0,1,15.292.2,16.889,16.889,0,0,1,20.21.164a18.331,18.331,0,0,1,4.409,1.179A18.159,18.159,0,0,1,28.39,3.49a17.564,17.564,0,0,1,5.447,6.648,15.692,15.692,0,0,1,.935,2.406,18.661,18.661,0,0,1,.759,4.888,15.991,15.991,0,0,1-.2,2.666,17.069,17.069,0,0,1-1.458,4.939,17.807,17.807,0,0,1-8.951,8.72,16.418,16.418,0,0,1-4.718,1.3c-.769.09-1.542.15-2.313.224l0-.049m4.276-9.063a7.849,7.849,0,0,0,.858-.105,4.487,4.487,0,0,0,3.032-2.1,2.042,2.042,0,0,0-.084-2.447,5.954,5.954,0,0,0-1.149-1.186,5.272,5.272,0,0,0-2.141-1.1,1.4,1.4,0,0,0-1.422.385c-.1.1-.2.2-.306.291a4.518,4.518,0,0,1-1.1.79,1.182,1.182,0,0,1-1.162-.043c-.187-.109-.366-.233-.543-.36a16.472,16.472,0,0,1-2.4-2.254c-.384-.417-.725-.876-1.07-1.328a1.326,1.326,0,0,1,.04-1.732.936.936,0,0,1,.062-.085c.279-.316.549-.643.842-.946a1.3,1.3,0,0,0,.385-1.155,3.785,3.785,0,0,0-.123-.565,5.923,5.923,0,0,0-1.32-2.161A4.216,4.216,0,0,0,13.1,8.932a1.443,1.443,0,0,0-.875-.136,3.855,3.855,0,0,0-2.522,1.653,4.717,4.717,0,0,0-.647,3.36,8.56,8.56,0,0,0,.753,2.5,16.025,16.025,0,0,0,1.535,2.683,24.163,24.163,0,0,0,2.872,3.168A15.029,15.029,0,0,0,20.008,25.8a6.458,6.458,0,0,0,2.157.366" transform="translate(0 0)" fill="#449994"/>
  </g>
</svg>
