<svg id="Group_14531" data-name="Group 14531" xmlns="http://www.w3.org/2000/svg" xmlns:xlink="http://www.w3.org/1999/xlink" width="22" height="15.453" viewBox="0 0 22 15.453">
  <defs>
    <clipPath id="clip-path">
      <rect id="Rectangle_1735" data-name="Rectangle 1735" width="22" height="15.453" fill="#449994"/>
    </clipPath>
  </defs>
  <g id="Group_14519" data-name="Group 14519" clip-path="url(#clip-path)">
    <path id="Path_4237" data-name="Path 4237" d="M1.261.195A2.168,2.168,0,0,1,2.252,0h17.8a2.1,2.1,0,0,1,.937.193.628.628,0,0,1-.05.068Q19.463,1.734,17.99,3.2q-2.522,2.51-5.05,5.015c-.185.184-.372.367-.571.536a1.889,1.889,0,0,1-2.591-.094C8.97,7.89,8.18,7.1,7.388,6.315Q5,3.944,2.613,1.57C2.174,1.134,1.738.695,1.3.256A.423.423,0,0,1,1.261.195" transform="translate(-0.123 0)" fill="#449994"/>
    <path id="Path_4238" data-name="Path 4238" d="M1.259,16.2a.836.836,0,0,1,.051-.067l4.4-4.375Q6.762,10.706,7.818,9.66c.064-.064.1-.06.161,0,.363.361.712.737,1.1,1.069a3.22,3.22,0,0,0,3.958.1,5.924,5.924,0,0,0,.523-.477c.243-.234.481-.471.717-.709.049-.05.078-.053.13,0q2.976,2.951,5.955,5.9c.189.186.372.376.557.566a1.034,1.034,0,0,1,.07.085,2.195,2.195,0,0,1-.953.191H5.626q-1.723,0-3.448,0a2.074,2.074,0,0,1-.92-.193" transform="translate(-0.123 -0.937)" fill="#449994"/>
    <path id="Path_4239" data-name="Path 4239" d="M6.844,7.864.2,14.447a1.61,1.61,0,0,1-.175-.607C.01,13.644,0,13.447,0,13.252Q0,7.789,0,2.328A2.5,2.5,0,0,1,.186,1.272C.28,1.3,6.695,7.651,6.844,7.864" transform="translate(0 -0.124)" fill="#449994"/>
    <path id="Path_4240" data-name="Path 4240" d="M23.44,14.45l-6.661-6.6,6.657-6.6a1.619,1.619,0,0,1,.177.61q.022.283.022.568,0,5.53,0,11.062a2.125,2.125,0,0,1-.195.958" transform="translate(-1.636 -0.122)" fill="#449994"/>
  </g>
</svg>
