<svg xmlns="http://www.w3.org/2000/svg" xmlns:xlink="http://www.w3.org/1999/xlink" width="56" height="56" viewBox="0 0 56 56">
  <defs>
    <clipPath id="clip-path">
      <rect id="Rectangle_2305" data-name="Rectangle 2305" width="32.022" height="27.589" fill="#449994"/>
    </clipPath>
  </defs>
  <g id="Group_16004" data-name="Group 16004" transform="translate(0)">
    <ellipse id="Ellipse_50" data-name="Ellipse 50" cx="28" cy="28" rx="28" ry="28" transform="translate(0)" fill="#e0efe3" opacity="0.6"/>
    <g id="Group_15994" data-name="Group 15994" transform="translate(11.989 15)">
      <g id="Group_15993" data-name="Group 15993" clip-path="url(#clip-path)">
        <path id="Path_11284" data-name="Path 11284" d="M26.493,27.589,24.3,23.3l.5-.249a14.857,14.857,0,0,0,3.9-2.822,11.225,11.225,0,0,0,3.017-5.235,9.935,9.935,0,0,0-.571-6.535A12.431,12.431,0,0,0,27.172,3.55,17.08,17.08,0,0,0,20.76.56,20.213,20.213,0,0,0,14.531.054,19.388,19.388,0,0,0,9.114,1.213,16.613,16.613,0,0,0,5.9,2.805,13.526,13.526,0,0,0,1.592,7.073,10.21,10.21,0,0,0,.007,12.92,10.468,10.468,0,0,0,2.11,18.8a14.493,14.493,0,0,0,5.457,4.452,18.037,18.037,0,0,0,4.4,1.486,19.807,19.807,0,0,0,3.386.392,18.136,18.136,0,0,0,2.68-.108.475.475,0,0,1,.19.022q3.08.949,6.159,1.9l1.968.608c.037.011.076.017.147.032m-10.578-16.6a1.505,1.505,0,0,1,1.535,1.491,1.542,1.542,0,0,1-3.084.022,1.5,1.5,0,0,1,1.549-1.513m8.92,1.5a1.5,1.5,0,0,1-1.506,1.532,1.544,1.544,0,0,1-1.56-1.515,1.506,1.506,0,0,1,1.543-1.52,1.462,1.462,0,0,1,1.523,1.5m-16.378-1.5A1.515,1.515,0,0,1,10.012,12.5a1.537,1.537,0,0,1-3.075.014,1.5,1.5,0,0,1,1.519-1.522" transform="translate(0 0)" fill="#449994"/>
      </g>
    </g>
  </g>
</svg>
