<svg id="Group_16220" data-name="Group 16220" xmlns="http://www.w3.org/2000/svg" xmlns:xlink="http://www.w3.org/1999/xlink" width="36.155" height="36.108" viewBox="0 0 36.155 36.108">
  <defs>
    <clipPath id="clip-path">
      <rect id="Rectangle_2345" data-name="Rectangle 2345" width="36.155" height="36.108" fill="#449994"/>
    </clipPath>
  </defs>
  <g id="Group_16220-2" data-name="Group 16220" clip-path="url(#clip-path)">
    <path id="Path_11249" data-name="Path 11249" d="M36.156,18.018A18.08,18.08,0,1,1,18.765.012,18.1,18.1,0,0,1,36.156,18.018m-27.923.033h.005q0,2.123,0,4.245a5.193,5.193,0,0,0,1.09,3.255,5.619,5.619,0,0,0,4.617,2.358q4.162.018,8.325,0a5.864,5.864,0,0,0,5.688-5.885c-.032-2.655-.008-5.31,0-7.965a5.7,5.7,0,0,0-1.327-3.733,5.45,5.45,0,0,0-4.425-2.1c-2.841.007-5.681,0-8.522,0a3,3,0,0,0-.328.01A5.55,5.55,0,0,0,10.1,9.692a5.379,5.379,0,0,0-1.859,3.962c-.025,1.466-.005,2.932-.005,4.4" transform="translate(0 0.001)" fill="#449994"/>
    <path id="Path_11250" data-name="Path 11250" d="M55.423,63.761c0-1.393-.022-2.787.006-4.179a4.077,4.077,0,0,1,1.888-3.42,4.034,4.034,0,0,1,2.35-.709q4.042.011,8.083,0a4.242,4.242,0,0,1,4.029,2.792,4.551,4.551,0,0,1,.247,1.569c0,2.655.01,5.31,0,7.964a4.183,4.183,0,0,1-4.179,4.263c-2.8,0-5.594.047-8.389-.016a3.974,3.974,0,0,1-3.678-2.5,4.085,4.085,0,0,1-.364-1.8c.014-1.32,0-2.64,0-3.96Zm8.307,5.081a5,5,0,1,0-5.042-5.272,4.947,4.947,0,0,0,5.042,5.272m6.785-10.515a1.266,1.266,0,0,0-1.331-1.288,1.321,1.321,0,0,0-1.242,1.312,1.286,1.286,0,0,0,2.572-.023" transform="translate(-45.659 -45.704)" fill="#449994"/>
    <path id="Path_11251" data-name="Path 11251" d="M82.395,86.562a3.478,3.478,0,0,1,3.527-3.516,3.555,3.555,0,0,1,3.571,3.693,3.621,3.621,0,0,1-3.737,3.409,3.564,3.564,0,0,1-3.361-3.586" transform="translate(-67.889 -68.446)" fill="#449994"/>
  </g>
</svg>
