<svg id="Group_16332" data-name="Group 16332" xmlns="http://www.w3.org/2000/svg" xmlns:xlink="http://www.w3.org/1999/xlink" width="33.525" height="43.924" viewBox="0 0 33.525 43.924">
  <defs>
    <clipPath id="clip-path">
      <rect id="Rectangle_2384" data-name="Rectangle 2384" width="33.525" height="43.924" fill="#449994"/>
    </clipPath>
  </defs>
  <g id="Group_16331" data-name="Group 16331" transform="translate(0 0)" clip-path="url(#clip-path)">
    <path id="Path_11431" data-name="Path 11431" d="M0,21.87Q0,11.885,0,1.9C0,.6.587,0,1.886,0q8.352,0,16.7.006c1.147,0,1.64.495,1.642,1.66,0,2.231-.012,4.462,0,6.693a4.77,4.77,0,0,0,5.1,5.132c2.12.021,4.24.007,6.361,0,1.358-.007,1.825.449,1.825,1.816q0,13.387.006,26.774c0,1.311-.541,1.846-1.848,1.846q-14.851,0-29.7,0C.595,43.924,0,43.352,0,42.006Q0,31.938,0,21.87m16.751,6.294v.005h4.2c1.051,0,2.1.014,3.152-.012a1.358,1.358,0,0,0,.084-2.715,6.26,6.26,0,0,0-.718-.024q-5.31,0-10.619,0c-1.106,0-2.213-.015-3.318.018a1.336,1.336,0,0,0-1.42,1.318,1.365,1.365,0,0,0,1.5,1.408c2.378.01,4.757,0,7.135,0m.117,4.2v0c-2.394,0-4.789,0-7.184,0a1.421,1.421,0,0,0-1.469.86c-.411.962.337,1.9,1.514,1.9q7.073,0,14.147,0a1.423,1.423,0,0,0,1.6-1.374,1.405,1.405,0,0,0-1.592-1.374H16.868m-.106-11.137v.008q2.073,0,4.147,0c1.087,0,2.175.013,3.262-.02a1.3,1.3,0,0,0,1.283-1.151,1.33,1.33,0,0,0-.847-1.459,3.157,3.157,0,0,0-.927-.1c-1.622-.008-3.244,0-4.866,0-3.023,0-6.045,0-9.068.012a2.26,2.26,0,0,0-1,.222,1.317,1.317,0,0,0-.589,1.485,1.339,1.339,0,0,0,1.362,1c2.415.012,4.829,0,7.244,0" transform="translate(0 0)" fill="#449994"/>
    <path id="Path_11432" data-name="Path 11432" d="M66.318,8.382c0-.995.007-1.99,0-2.985a.853.853,0,0,1,.484-.91.9.9,0,0,1,1.048.268q3.428,3.451,6.87,6.889a.9.9,0,0,1,.3,1.04.888.888,0,0,1-.942.531c-1.9,0-3.8.013-5.693-.006a1.894,1.894,0,0,1-2.062-2.119q0-.691,0-1.382c0-.442,0-.884,0-1.327Z" transform="translate(-42.983 -2.861)" fill="#449994"/>
  </g>
</svg>
