<svg xmlns="http://www.w3.org/2000/svg" xmlns:xlink="http://www.w3.org/1999/xlink" width="19.029" height="20.02" viewBox="0 0 19.029 20.02">
  <defs>
    <clipPath id="clip-path">
      <rect id="Rectangle_2113" data-name="Rectangle 2113" width="19.029" height="20.02" fill="#449994"/>
    </clipPath>
  </defs>
  <g id="Group_14530" data-name="Group 14530" clip-path="url(#clip-path)">
    <path id="Path_4241" data-name="Path 4241" d="M12.523,31.754a6.4,6.4,0,0,1-3.21-.819A17.625,17.625,0,0,1,4.978,27.4a28.218,28.218,0,0,1-3.042-3.924A14.072,14.072,0,0,1,.265,19.9a5.605,5.605,0,0,1-.126-2.917,4.02,4.02,0,0,1,4.576-3.214,1,1,0,0,1,.7.5,3.773,3.773,0,0,1,.432,1.289c.2.951.385,1.9.582,2.856a.664.664,0,0,1-.211.65,2.867,2.867,0,0,1-.965.542c-.2.083-.392.18-.582.28a.414.414,0,0,0-.219.531A8.852,8.852,0,0,0,4.8,21.468a11.55,11.55,0,0,0,1.9,2.959,10.715,10.715,0,0,0,1.714,1.564c.263.19.518.39.786.572a3.606,3.606,0,0,0,.532.3.624.624,0,0,0,.849-.257c.148-.226.289-.456.439-.681a2.9,2.9,0,0,1,.234-.3.882.882,0,0,1,1.06-.274,24.837,24.837,0,0,1,3.4,1.455c.765.406.887.642.742,1.492A4.161,4.161,0,0,1,13.53,31.61a8.571,8.571,0,0,1-1.007.144" transform="translate(0 -11.734)" fill="#449994"/>
    <path id="Path_4242" data-name="Path 4242" d="M77.65,10.329c-.014.2-.014.4-.046.59a.436.436,0,0,1-.4.331.371.371,0,0,1-.394-.226.962.962,0,0,1-.059-.332c-.04-.568-.04-1.142-.118-1.705a9.37,9.37,0,0,0-1.612-4.171A9.629,9.629,0,0,0,69.03.874a.493.493,0,0,1-.422-.408A.424.424,0,0,1,68.86.046a.785.785,0,0,1,.418-.029,10.616,10.616,0,0,1,5.98,3.658A10.348,10.348,0,0,1,77.4,8.219c.141.691.191,1.4.282,2.1l-.033.007" transform="translate(-58.654 -0.001)" fill="#449994"/>
    <path id="Path_4243" data-name="Path 4243" d="M74.341,25.575a2,2,0,0,1-.059.351.433.433,0,0,1-.5.266.392.392,0,0,1-.335-.386,8.518,8.518,0,0,0-.307-2.1,6.608,6.608,0,0,0-4.745-4.6c-.209-.059-.419-.11-.519-.341a.437.437,0,0,1,.348-.587.866.866,0,0,1,.266.028,7.551,7.551,0,0,1,5.231,4.5,7.994,7.994,0,0,1,.618,2.856" transform="translate(-58.007 -15.549)" fill="#449994"/>
    <path id="Path_4244" data-name="Path 4244" d="M70.236,41.459c-.006.09-.007.192-.019.293a.432.432,0,0,1-.462.407.445.445,0,0,1-.412-.461A3.641,3.641,0,0,0,68.8,39.73a3.425,3.425,0,0,0-1.908-1.45,4,4,0,0,1-.392-.131.436.436,0,0,1-.255-.471.466.466,0,0,1,.437-.339,1.144,1.144,0,0,1,.3.053,4.289,4.289,0,0,1,3.194,3.589c.027.153.039.309.06.478" transform="translate(-56.63 -31.924)" fill="#449994"/>
  </g>
</svg>
