<svg xmlns="http://www.w3.org/2000/svg" width="26.14" height="25.827" viewBox="0 0 26.14 25.827">
  <g id="Group_15879" data-name="Group 15879" transform="translate(0 0)">
    <path id="Path_11238" data-name="Path 11238" d="M13.092,25.823c2.8,0,5.593.011,8.389,0a4.581,4.581,0,0,0,4.654-4.653q.011-5.119,0-10.238A5.407,5.407,0,0,0,25.985,9.7a4.208,4.208,0,0,0-1.616-2.467q-1.619-1.206-3.246-2.4-1.753-1.3-3.506-2.591c-.628-.462-1.258-.924-1.895-1.374A4.462,4.462,0,0,0,12.559.031a4.523,4.523,0,0,0-2.2.852Q8.088,2.558,5.82,4.238c-1.369,1.013-2.757,2-4.1,3.047a4.3,4.3,0,0,0-1.7,3.228C.007,10.7,0,10.89,0,11.079Q0,16.09,0,21.1a4.828,4.828,0,0,0,.619,2.431A4.433,4.433,0,0,0,3.612,25.7a4.966,4.966,0,0,0,1.091.119c2.8.01,5.593.005,8.389,0" transform="translate(0 0)" fill="#2e3336"/>
  </g>
</svg>
