<svg xmlns="http://www.w3.org/2000/svg" xmlns:xlink="http://www.w3.org/1999/xlink" width="40" height="40" viewBox="0 0 40 40">
  <defs>
    <clipPath id="clip-path">
      <rect id="Rectangle_2379" data-name="Rectangle 2379" width="18.034" height="26.115" fill="#eff2f3"/>
    </clipPath>
  </defs>
  <g id="Group_16472" data-name="Group 16472" transform="translate(-1865 -2843)">
    <circle id="Ellipse_204" data-name="Ellipse 204" cx="20" cy="20" r="20" transform="translate(1865 2843)" fill="#3c82aa"/>
    <g id="Group_16317" data-name="Group 16317" transform="translate(1876.647 2848.943)">
      <g id="Group_16316" data-name="Group 16316" clip-path="url(#clip-path)">
        <path id="Path_11409" data-name="Path 11409" d="M5.569,9.524c.164,2.612.267,5.229.43,7.852l5.8-2.253c0,.059.01.092.01.126q0,.974,0,1.949c0,.154.014.165.154.109l2.3-.913q1.045-.415,2.089-.831c.253-.1.5-.209.754-.314.031-.013.065-.021.117-.037.006.137.017.258.017.38q0,3.387,0,6.773c0,.661-.008,1.323-.006,1.984a.183.183,0,0,0,.09.127,1.347,1.347,0,0,1,.607.493.829.829,0,0,1-.047.876.325.325,0,0,1-.186.135,2.9,2.9,0,0,1-.67.127c-2.242.009-4.485.006-6.727.006q-4.71,0-9.42,0A1.727,1.727,0,0,1,.328,26a.428.428,0,0,1-.291-.386,1.863,1.863,0,0,1-.031-.43.817.817,0,0,1,.683-.7c.072-.017.09-.042.093-.117.013-.312.037-.624.057-.936,0-.02,0-.039.005-.059.009-.4.014-.8.029-1.2.017-.466.045-.932.063-1.4.019-.486.026-.973.048-1.459.017-.375.052-.749.07-1.124.017-.348.019-.7.032-1.045.023-.585.052-1.17.075-1.755.012-.32.013-.641.027-.962.023-.517.054-1.034.077-1.551.014-.312.018-.625.03-.938.021-.55.047-1.1.068-1.649.007-.2.01-.4.006-.594,0-.108.039-.143.144-.151.291-.023.58-.058.874-.089a2.821,2.821,0,0,1-.146-.536,3.58,3.58,0,0,1,.014-.92A2.627,2.627,0,0,1,2.582,7.3a.225.225,0,0,0-.008-.267,3.652,3.652,0,0,1-.646-2.172,2.8,2.8,0,0,1,.988-2.108A2.482,2.482,0,0,1,4.032,2.26c.247-.05.5-.066.749-.1a.152.152,0,0,0,.106-.077A2.759,2.759,0,0,1,6.594.263,3.931,3.931,0,0,1,7.486.04,5.3,5.3,0,0,1,9,.074a3.731,3.731,0,0,1,2.329,1.1,3.43,3.43,0,0,1,.814,1.688,3.463,3.463,0,0,1-.222,2.09,7.025,7.025,0,0,1-.883,1.4.238.238,0,0,0-.041.242A2.277,2.277,0,0,1,9.1,9.625a11.95,11.95,0,0,1-2.544.007c-.321-.03-.642-.07-.99-.108M10.342,5.65a.126.126,0,0,0,.027-.024,5.051,5.051,0,0,0,.546-.955A3.236,3.236,0,0,0,11.1,3.342a2.017,2.017,0,0,0-.545-1.353,3.051,3.051,0,0,0-1.782-.965,2.851,2.851,0,0,0-1.517.095A1.95,1.95,0,0,0,6.2,1.965c-.176.3-.355.6-.542.892a.4.4,0,0,1-.191.166,1.668,1.668,0,0,1-.357.037,5.2,5.2,0,0,0-.812.072,1.769,1.769,0,0,0-1.031.736,1.73,1.73,0,0,0-.354,1.282A1.185,1.185,0,0,0,3.32,5.9a.345.345,0,0,0,.229.09,2.174,2.174,0,0,0,.445-.118c.346-.12.689-.252,1.036-.371a1.655,1.655,0,0,1,.325-.06.3.3,0,0,1,.105.028.613.613,0,0,1-.058.1.583.583,0,0,1-.084.065c-.211.166-.425.329-.633.5a3.607,3.607,0,0,0-.885,1,4.259,4.259,0,0,0-.507,2.263,1.078,1.078,0,0,0,.019.117l.222-.3a1.784,1.784,0,0,1,1.342-.773c.631-.036,1.265-.018,1.9-.008.438.008.876.053,1.314.064a2.108,2.108,0,0,0,1.8-.872,1.057,1.057,0,0,0,.121-1.11A2.012,2.012,0,0,0,8.945,5.472l-.133-.066a1.74,1.74,0,0,1,.182-.114.876.876,0,0,1,.778.035c.194.1.377.212.571.323M7.735,21.51V21.5c-.205,0-.411,0-.616,0-.227,0-.222,0-.22.23,0,.443,0,.886,0,1.329,0,.059-.015.121.081.121.5,0,.995,0,1.492,0,.1,0,.117-.036.117-.126q0-.723.006-1.447c0-.088-.045-.1-.111-.1H7.735M6.891,18.9c0,.1.013.184.013.271,0,.427,0,.854-.011,1.282,0,.079.014.114.1.114q.741-.006,1.481,0c.086,0,.113-.027.112-.117q-.008-.718,0-1.435c0-.087-.024-.119-.112-.119-.506,0-1.011,0-1.517,0a.631.631,0,0,0-.067.008m3.544,4.271a.765.765,0,0,0,.083.008c.5,0,1,.006,1.493.011.086,0,.081-.051.08-.11,0-.257-.005-.514-.006-.771,0-.237,0-.475,0-.712,0-.032-.043-.091-.067-.092-.462-.005-.924,0-1.386,0-.067,0-.162-.019-.192.016s-.006.128-.006.2c0,.02,0,.04,0,.059v1.4m-.01-2.616a.106.106,0,0,0,.033.012c.522,0,1.043,0,1.565,0,.023,0,.067-.051.067-.078,0-.5,0-1,0-1.5,0-.078-.027-.1-.1-.1-.49,0-.98,0-1.47,0-.031,0-.061.006-.092.009Zm3.45-1.654c0,.514,0,1.015,0,1.517,0,.126.043.151.157.15.47,0,.94,0,1.41.006.065,0,.092-.015.092-.085q0-.748,0-1.5c0-.087-.036-.1-.114-.1-.458,0-.917,0-1.375,0-.058,0-.116.006-.165.009m1.644,2.6c-.445,0-.871,0-1.3,0-.348.005-.354-.09-.349.359,0,.392.013.784,0,1.175-.005.129.021.152.137.151.482,0,.964,0,1.445.006.07,0,.073-.032.073-.088,0-.475,0-.949,0-1.424,0-.054-.006-.109-.01-.18" transform="translate(0 0)" fill="#eff2f3"/>
      </g>
    </g>
  </g>
</svg>
