<svg id="Group_15366" data-name="Group 15366" xmlns="http://www.w3.org/2000/svg" xmlns:xlink="http://www.w3.org/1999/xlink" width="40.185" height="40" viewBox="0 0 40.185 40">
  <defs>
    <clipPath id="clip-path">
      <rect id="Rectangle_2197" data-name="Rectangle 2197" width="40.185" height="40" fill="none"/>
    </clipPath>
  </defs>
  <g id="Group_15365" data-name="Group 15365" clip-path="url(#clip-path)">
    <path id="Path_6142" data-name="Path 6142" d="M22.536,40v-.285q0-7.578,0-15.156c0-.27,0-.268.261-.268,1.453,0,2.906,0,4.358,0,.175,0,.228-.052.25-.228.182-1.453.376-2.9.566-4.356.045-.341.088-.682.134-1.04h-.4q-2.484,0-4.967.006c-.153,0-.2-.047-.2-.2.015-1.256.014-2.512.041-3.768a3.766,3.766,0,0,1,.153-.9A1.677,1.677,0,0,1,24,12.561a7.369,7.369,0,0,1,1.49-.2c.856-.032,1.714-.015,2.571-.009.191,0,.238-.06.237-.248q-.014-2.3-.006-4.594c0-.152-.044-.2-.2-.21a31.776,31.776,0,0,0-4.92-.159A6.416,6.416,0,0,0,17.988,9.91a6.882,6.882,0,0,0-1.146,3.137,15.3,15.3,0,0,0-.093,1.683c-.013,1.224,0,2.447,0,3.671,0,.27,0,.27-.268.27-1.459,0-2.919,0-4.378,0-.174,0-.217.043-.217.217q.009,2.611,0,5.222c0,.171.072.189.211.189,1.479,0,2.958,0,4.437-.009.178,0,.221.052.221.22q-.008,7.45-.009,14.9c0,.153-.014.307-.022.463A20.118,20.118,0,1,1,22.536,40" transform="translate(0 0)" fill="#1877f2"/>
  </g>
</svg>
