<svg xmlns="http://www.w3.org/2000/svg" xmlns:xlink="http://www.w3.org/1999/xlink" width="42.496" height="42.491" viewBox="0 0 42.496 42.491">
  <defs>
    <clipPath id="clip-path">
      <rect id="Rectangle_2279" data-name="Rectangle 2279" width="42.496" height="42.491" fill="#2a8478"/>
    </clipPath>
  </defs>
  <g id="Group_15902" data-name="Group 15902" clip-path="url(#clip-path)">
    <path id="Path_11246" data-name="Path 11246" d="M21.123,42.488A21.244,21.244,0,1,0,21.37,0,21.094,21.094,0,0,0,0,21.195,21.129,21.129,0,0,0,21.123,42.488m-3.564-33,.043,0c0-.149-.008-.3,0-.447a3.459,3.459,0,0,1,2.017-3.084,3.66,3.66,0,0,1,3-.123A3.584,3.584,0,0,1,24.925,9.4c-.018,1.038-.153,2.075-.236,3.112-.06.741-.118,1.482-.182,2.223-.1,1.2-.217,2.407-.322,3.61-.038.435-.061.871-.1,1.306-.056.648-.111,1.3-.182,1.941-.062.561-.109,1.127-.226,1.678a2.367,2.367,0,0,1-2.13,1.811,2.4,2.4,0,0,1-2.585-1.444,10.341,10.341,0,0,1-.352-1.934c-.084-.672-.11-1.351-.165-2.027-.058-.712-.12-1.425-.18-2.137-.052-.611-.1-1.222-.154-1.833-.059-.685-.122-1.369-.179-2.054-.044-.528-.073-1.058-.121-1.586-.078-.86-.167-1.72-.251-2.58m.2,23.923a3.461,3.461,0,0,1,3.476-3.5,3.507,3.507,0,0,1,3.54,3.605,3.627,3.627,0,0,1-3.5,3.419,3.531,3.531,0,0,1-3.511-3.526" transform="translate(0 0)" fill="#2a8478"/>
  </g>
</svg>
