<svg id="Group_16460" data-name="Group 16460" xmlns="http://www.w3.org/2000/svg" xmlns:xlink="http://www.w3.org/1999/xlink" width="73.765" height="74.364" viewBox="0 0 73.765 74.364">
  <defs>
    <clipPath id="clip-path">
      <rect id="Rectangle_2411" data-name="Rectangle 2411" width="73.765" height="74.364" fill="#449994"/>
    </clipPath>
  </defs>
  <g id="Group_16459" data-name="Group 16459" clip-path="url(#clip-path)">
    <path id="Path_11470" data-name="Path 11470" d="M18.208,126.59c.934,2.593,1.86,5.118,2.754,7.654,1.2,3.415,2.378,6.84,3.575,10.257.266.759.581,1.5.86,2.256.124.336.376.372.673.35a.51.51,0,0,0,.524-.489,4.012,4.012,0,0,0,.024-.464q.011-6.581.011-13.162a1.287,1.287,0,0,0-.2-.6c-1.106-1.932-2.223-3.858-3.415-5.921a10.653,10.653,0,0,0,11.327.118l.073.092q-.315.54-.629,1.079c-.909,1.567-1.822,3.132-2.721,4.7a1.211,1.211,0,0,0-.16.569q-.012,6.232,0,12.464a3.281,3.281,0,0,0,.066.969.982.982,0,0,0,.5.568c.283.11.466-.143.567-.416.355-.958.729-1.908,1.072-2.87q1.52-4.262,3.021-8.531,1.229-3.48,2.453-6.961c.193-.548.392-1.093.613-1.711a23.415,23.415,0,0,0,6.541,3.857,19.442,19.442,0,0,0-2.689,27.948c-1.321.291-2.557.559-3.791.835-2.1.471-4.2.96-6.3,1.418a15.378,15.378,0,0,1-5.758.5c-1.405-.227-2.8-.522-4.191-.831Q16,158.714,9,157.12c-1.314-.3-2.622-.621-3.933-.931A4.433,4.433,0,0,1,1.84,152.6c-.357-2.763-.748-5.522-1.094-8.286-.222-1.767-.4-3.54-.578-5.312a11.845,11.845,0,0,1-.142-2.4A4.02,4.02,0,0,1,2.72,133.16c.829-.331,1.717-.514,2.574-.778,1.332-.41,2.638-.93,3.994-1.225a19,19,0,0,0,4.557-1.706,43.469,43.469,0,0,0,3.981-2.55,4.832,4.832,0,0,0,.382-.311" transform="translate(0 -87.418)" fill="#449994"/>
    <path id="Path_11471" data-name="Path 11471" d="M150.888,136.437a16.116,16.116,0,1,1-16.213,16.023,16.054,16.054,0,0,1,16.213-16.023m-1.848,23.738c-.191-.149-.289-.212-.371-.292a4.1,4.1,0,0,1-1.117-2.537,1.631,1.631,0,0,0-1.771-1.532,1.8,1.8,0,0,0-1.692,1.725,5.7,5.7,0,0,0,.165,1.7,6.933,6.933,0,0,0,4.416,4.683c.315.121.462.267.42.6a2.36,2.36,0,0,0,0,.464,1.8,1.8,0,0,0,2.084,1.572,1.684,1.684,0,0,0,1.461-1.81c-.033-.6.191-.832.713-1.076a6.483,6.483,0,0,0,4.109-6.223,6.735,6.735,0,0,0-4.4-6.14c-.3-.107-.412-.213-.409-.535.017-1.735.009-3.471.014-5.207a1.372,1.372,0,0,1,.053-.257,3.357,3.357,0,0,1,1.224,2.3,2.132,2.132,0,0,0,.613,1.464,1.509,1.509,0,0,0,1.726.31,1.775,1.775,0,0,0,1.172-1.74,6.228,6.228,0,0,0-3.856-5.914c-.668-.311-1.035-.613-.975-1.437a1.77,1.77,0,0,0-1.556-1.754,1.794,1.794,0,0,0-1.854,1.19,2.4,2.4,0,0,0-.109.911.669.669,0,0,1-.525.787,8.1,8.1,0,0,0-1.207.592,6.51,6.51,0,0,0-2.451,8.957,6.674,6.674,0,0,0,3.622,3.04c.438.147.558.319.548.729-.029,1.286-.04,2.572-.053,3.858-.005.487,0,.974,0,1.57" transform="translate(-93.087 -94.304)" fill="#449994"/>
    <path id="Path_11472" data-name="Path 11472" d="M74.634,9.656a3.928,3.928,0,0,1,.933,2.611,3.3,3.3,0,0,1-.119.777,16.164,16.164,0,0,0-.85,5.2,19.7,19.7,0,0,1-1.413,6.5,22.826,22.826,0,0,1-7.857,10.6,8.071,8.071,0,0,1-9.9.23,23.15,23.15,0,0,1-7.465-9.048,20.527,20.527,0,0,1-1.792-6.267c-.193-1.608-.586-3.192-.789-4.8A23.849,23.849,0,0,1,45.609,7.1,6.946,6.946,0,0,1,50.1,2.029,30.239,30.239,0,0,1,53.4,1.1c.415-.114.629.048.739.457a3.529,3.529,0,0,0,.369.894.565.565,0,0,0,.9.2Q56.578,1.9,57.782,1.2A9.647,9.647,0,0,1,63.838.075,9.2,9.2,0,0,1,69.955,3.7c.352.413.712.819,1.074,1.223a3.942,3.942,0,0,0,4.056,1.224c.121-.026.242-.056.364-.076.455-.075.7.086.626.535A6.019,6.019,0,0,1,75.6,8.23a10.992,10.992,0,0,1-.963,1.425M71.11,18.268c-1.931-.617-3.726-1.156-5.5-1.764-3.236-1.111-6.485-2.192-9.676-3.421A5.187,5.187,0,0,0,49.8,14.937a1.361,1.361,0,0,0-.292.665,18.026,18.026,0,0,0,1.614,9.549,20.005,20.005,0,0,0,6.248,7.559,4.7,4.7,0,0,0,3.893.778,6.118,6.118,0,0,0,2.614-1.444,18.778,18.778,0,0,0,6.752-11.021c.19-.918.327-1.847.485-2.756" transform="translate(-31.189 0)" fill="#449994"/>
    <path id="Path_11473" data-name="Path 11473" d="M178.013,164.881v5.06a3.221,3.221,0,0,1-1.374-2.225,3.277,3.277,0,0,1,1.243-2.873l.131.038" transform="translate(-122.076 -113.939)" fill="#449994"/>
    <path id="Path_11474" data-name="Path 11474" d="M193.035,197.254c1.646.87,1.648,3.419,0,4.824Z" transform="translate(-133.425 -136.341)" fill="#449994"/>
  </g>
</svg>
