<svg xmlns="http://www.w3.org/2000/svg" xmlns:xlink="http://www.w3.org/1999/xlink" width="40" height="40" viewBox="0 0 40 40">
  <defs>
    <clipPath id="clip-path">
      <rect id="Rectangle_2373" data-name="Rectangle 2373" width="23.815" height="26.916" fill="#fff"/>
    </clipPath>
  </defs>
  <g id="Group_16296" data-name="Group 16296" transform="translate(-40 -353)">
    <circle id="Ellipse_202" data-name="Ellipse 202" cx="20" cy="20" r="20" transform="translate(40 353)" fill="#449994"/>
    <g id="Group_16305" data-name="Group 16305" transform="translate(48.093 359.542)">
      <g id="Group_16304" data-name="Group 16304" clip-path="url(#clip-path)">
        <path id="Path_11372" data-name="Path 11372" d="M55.763,167.663a3.811,3.811,0,0,1,2.2-.627,8.995,8.995,0,0,0,3.346.007c.3-.076.582-.167.565-.556s-.037-.766-.516-.857c-.911-.174-1.826-.334-2.738-.5-.461-.085-.926-.155-1.379-.272a6.724,6.724,0,0,0-3.5-.1c-1.933.53-3.063,2.06-4.293,3.5a15.87,15.87,0,0,0,4.072,4.135c.375.258.587.256.909-.087a3.785,3.785,0,0,1,3.205-1.277c1.456.109,2.922.1,4.384.116a2.76,2.76,0,0,0,2.184-.993c1.575-1.8,3.167-3.583,4.738-5.386a1.458,1.458,0,0,0,.359-.732,1.133,1.133,0,0,0-1.664-1.059,9.6,9.6,0,0,0-1.659,1.008c-1.241.927-2.442,1.909-3.677,2.845a4.055,4.055,0,0,1-2.635.878,13.772,13.772,0,0,0-3.907-.032" transform="translate(-45.498 -149.818)" fill="#fff"/>
        <path id="Path_11373" data-name="Path 11373" d="M0,233.709l.078.059c.005.059.007.118.016.176.517,3.258,2.748,5.013,5.531,6.267a.639.639,0,0,0,.558-.169c.628-.685,1.23-1.395,1.824-2.11.681-.82.681-.838-.257-1.422A13.318,13.318,0,0,1,3.368,232.2c-.242-.391-.472-.418-.825-.223-.71.392-1.434.759-2.128,1.176-.183.11-.279.364-.414.552" transform="translate(0 -213.313)" fill="#fff"/>
        <path id="Path_11374" data-name="Path 11374" d="M74.284,6.987a2.3,2.3,0,0,0,1.72-.8Q78.48,4.186,80.931,2.15a.554.554,0,0,1,.86-.009c1.694,1.424,3.429,2.8,5.12,4.224A2.466,2.466,0,0,0,89.1,6.89c.136-.025.325-.146.352-.255s-.1-.293-.2-.382Q85.869,3.461,82.479.685C81.38-.22,81.366-.232,80.26.672Q77,3.332,73.761,6.007a4.76,4.76,0,0,0-.371.315c-.254.257-.2.495.15.571.243.054.5.064.744.093" transform="translate(-67.374 0)" fill="#fff"/>
        <path id="Path_11375" data-name="Path 11375" d="M115.51,40.942q-2.33-1.87-4.637-3.77a.528.528,0,0,0-.776-.028q-2.367,1.93-4.734,3.861a1.336,1.336,0,0,0-.491,1.128c.022,1.623.009,3.247.009,4.871,0,.7.032.744.747.747,1.624.007,3.248,0,4.872,0v-.008c1.639,0,3.277,0,4.916,0,.6,0,.642-.049.646-.624.01-1.638,0-3.277.028-4.915a1.462,1.462,0,0,0-.581-1.263m-4.521,4.907v.766h-1.107V45.8a3.824,3.824,0,0,1-1.635-.783l.835-.834a3.1,3.1,0,0,0,1.192.562c.664.085,1.056-.187,1.107-.562.085-.7-1.448-.954-1.993-1.226-.664-.324-1.311-.749-1.311-1.652a1.738,1.738,0,0,1,1.788-1.7v-.835h1.107v.869a3.838,3.838,0,0,1,1.567.732l-.766.886a2.96,2.96,0,0,0-1.09-.528c-.528-.119-1.107.017-1.141.545-.017.221.085.63,1.243.954.613.17,2.044.545,2.044,1.891a1.885,1.885,0,0,1-1.839,1.737" transform="translate(-96.483 -34.029)" fill="#fff"/>
      </g>
    </g>
  </g>
</svg>
