<svg id="Group_16081" data-name="Group 16081" xmlns="http://www.w3.org/2000/svg" xmlns:xlink="http://www.w3.org/1999/xlink" width="31.061" height="26.643" viewBox="0 0 31.061 26.643">
  <defs>
    <clipPath id="clip-path">
      <rect id="Rectangle_2329" data-name="Rectangle 2329" width="31.061" height="26.643" fill="#449994"/>
    </clipPath>
  </defs>
  <g id="Group_16080" data-name="Group 16080" clip-path="url(#clip-path)">
    <path id="Path_11319" data-name="Path 11319" d="M175.2,132.809c0,.767-.006,1.492,0,2.218a1.032,1.032,0,0,0,1.148,1.139,1.5,1.5,0,0,0,.763-.4c.914-.877,1.807-1.777,2.691-2.684a.869.869,0,0,1,.692-.278c2.171.01,4.342.007,6.513.005a3.534,3.534,0,0,0,3.715-3.714q0-4.115,0-8.231a3.5,3.5,0,0,0-2.805-3.489,4.133,4.133,0,0,0-.886-.084q-6.182-.008-12.364,0a3.513,3.513,0,0,0-3.6,2.791,4.691,4.691,0,0,0-.091.984q-.011,4,0,8a3.546,3.546,0,0,0,3.756,3.745h.475m5.657-5.748a3.3,3.3,0,0,0,.407-.4q.464-.638.894-1.3a.707.707,0,0,1,.935-.305.7.7,0,0,1,.328.927,1.643,1.643,0,0,1-.167.322c-.356.511-.718,1.019-1.087,1.539a5.546,5.546,0,0,0,1.855.392.983.983,0,0,1,.509.185.607.607,0,0,1,.168.75.7.7,0,0,1-.7.461,6.131,6.131,0,0,1-2.914-.733.47.47,0,0,0-.51,0,6.185,6.185,0,0,1-2.915.734.659.659,0,0,1-.7-.636.7.7,0,0,1,.659-.758,6.564,6.564,0,0,0,.658-.06c.43-.087.855-.2,1.351-.318A6.561,6.561,0,0,1,177.71,124c-.15,0-.26.007-.368,0a.706.706,0,1,1,.012-1.412c.231-.013.462,0,.694,0h2.1c0-.455,0-.871,0-1.287,0-.505.28-.826.7-.827s.694.319.7.828c0,.416,0,.831,0,1.286h.391q1.157,0,2.313,0a.744.744,0,0,1,.774.449c.2.5-.164.967-.768.969-1.575.006-3.151,0-4.726,0h-.389a4.925,4.925,0,0,0,1.711,3.062" transform="translate(-170.971 -109.534)" fill="#449994"/>
    <path id="Path_11320" data-name="Path 11320" d="M0,6.35H4.895a4.977,4.977,0,0,1,2.835.87c.053-.106.1-.2.145-.292.434-.95.874-1.9,1.3-2.854a.728.728,0,0,1,1.4-.016q1.7,3.758,3.411,7.511a.728.728,0,0,1-.291,1.045c-.4.182-.781,0-1-.476-.311-.68-.616-1.363-.932-2.041-.041-.088-.136-.212-.208-.214-.613-.017-1.227-.01-1.846-.01a50.17,50.17,0,0,1,.185,5.6c.034.016.065.047.091.042a1.3,1.3,0,0,1,1.235.571c.775.813,1.582,1.6,2.378,2.389a1.08,1.08,0,0,0,1.279.335,1.1,1.1,0,0,0,.649-1.126c-.006-.7,0-1.407,0-2.181.339,0,.656.026.968,0a3.481,3.481,0,0,0,3.255-3.49q.044-4.23,0-8.46A3.5,3.5,0,0,0,16.131,0Q9.884,0,3.637,0A3.522,3.522,0,0,0,0,3.63c0,.891,0,1.782,0,2.72" transform="translate(11.291 -0.001)" fill="#449994"/>
    <path id="Path_11321" data-name="Path 11321" d="M134.488,92.4l-1.145-2.523-.551,1.208-.423.931c-.106.233-.022.375.223.38.615.012,1.231,0,1.9,0" transform="translate(-112.175 -83.933)" fill="#449994"/>
  </g>
</svg>
