<svg id="Group_16463" data-name="Group 16463" xmlns="http://www.w3.org/2000/svg" xmlns:xlink="http://www.w3.org/1999/xlink" width="75.927" height="84.923" viewBox="0 0 75.927 84.923">
  <defs>
    <clipPath id="clip-path">
      <rect id="Rectangle_2412" data-name="Rectangle 2412" width="75.927" height="84.923" fill="#449994"/>
    </clipPath>
  </defs>
  <g id="Group_16462" data-name="Group 16462" clip-path="url(#clip-path)">
    <path id="Path_11475" data-name="Path 11475" d="M57.695,48.276c-.366.026-.617.052-.869.06a20.619,20.619,0,0,0-9.192,2.354,11.871,11.871,0,0,0-4.173,3.574,15.667,15.667,0,0,0-.784,1.529.7.7,0,0,1-.4.317c-1.439.323-2.887.608-4.326.935a3.282,3.282,0,0,0-2.674,2.91,9.96,9.96,0,0,0,.241,2.2c.056.392.167.777.244,1.167a3.283,3.283,0,0,0,.836,1.659.451.451,0,0,1,.112.547c-.8,2.028-1.578,4.062-2.364,6.094-.019.048-.037.1-.057.143-.257.617-.26.619-.933.584-.756-.039-.768-.039-.751.717a21.6,21.6,0,0,0,.111,2.493,5.688,5.688,0,0,0,2.108,3.477,5.9,5.9,0,0,0,2.3,1.339l-.027.137c-.865,0-1.73,0-2.594,0-2.515-.011-5.031.032-7.543-.06-1.519-.055-3.034-.3-4.543-.5-1.276-.175-2.555-.369-3.811-.649a23.132,23.132,0,0,1-7.153-2.732.841.841,0,0,0-.537-.133,10.216,10.216,0,0,1-7.293-1.66A17.807,17.807,0,0,1,.245,72.106.738.738,0,0,1,.02,71.36c.5-2.852.943-5.716,1.488-8.56A64.192,64.192,0,0,1,4.25,52.835,18.45,18.45,0,0,1,6.855,47.8a6.763,6.763,0,0,1,1.059-1.11,2.54,2.54,0,0,1,.989-.476c2.406-.573,4.831-1.067,7.223-1.691,1.459-.381,2.87-.948,4.3-1.436a1.217,1.217,0,0,0,.945-1.345,7.585,7.585,0,0,1,.062-.919,1.269,1.269,0,0,1,.972-1.195.34.34,0,0,0,.278-.383c-.008-1.36.035-2.723-.039-4.079a5.094,5.094,0,0,0-.5-1.435q-1.041-2.687-2.1-5.37a.664.664,0,0,0-.255-.316A6.049,6.049,0,0,1,17.029,24a8.522,8.522,0,0,1-.117-4,2.112,2.112,0,0,1,.473-.856.656.656,0,0,0,.179-.581,28.481,28.481,0,0,1-.281-4.912,14.69,14.69,0,0,1,1.745-7.019A7.3,7.3,0,0,1,22.864,3.35a8.12,8.12,0,0,0,1.975-1.06A11.545,11.545,0,0,1,29.805.241,19.113,19.113,0,0,1,41.147,2a11.458,11.458,0,0,1,5.664,5.942,16.433,16.433,0,0,1,1.4,6.733c.014,1.291-.129,2.583-.217,3.874a1.073,1.073,0,0,0,.2.661,3.165,3.165,0,0,1,.524,1.327A10.35,10.35,0,0,1,47.5,26.546,3.382,3.382,0,0,1,45.751,28.1a.792.792,0,0,0-.361.445c-.681,1.784-1.32,3.585-2.031,5.357a14.45,14.45,0,0,1-.943,1.575,2.011,2.011,0,0,0-.307.832c-.045,1-.037,2-.037,3,0,.146.015.353.107.429a1.867,1.867,0,0,1,.552,1.427,3.4,3.4,0,0,1,.014.653,1.047,1.047,0,0,0,.805,1.192c1.6.55,3.182,1.154,4.808,1.6,1.89.521,3.818.9,5.73,1.337.4.091.8.179,1.2.255a2.513,2.513,0,0,1,1.311.831c.357.365.678.764,1.092,1.235M48.01,21.62a13.389,13.389,0,0,0-.108-1.376c-.1-.565-.4-.685-.877-.373a4.992,4.992,0,0,0-.773.63c-.247.246-.478.491-.861.329-.359-.152-.3-.5-.332-.8,0-.051,0-.1,0-.154a13.457,13.457,0,0,0-.5-3.724,4.47,4.47,0,0,0-1.208-2.023.86.86,0,0,0-.981-.205,14.58,14.58,0,0,1-9.73.21,18.737,18.737,0,0,1-6.582-3.724.584.584,0,0,0-.381-.12,3.868,3.868,0,0,0-1.836.623,7.368,7.368,0,0,0-2.916,4.429,20.9,20.9,0,0,0-.8,4.807c-.02.32-.165.617-.491.646a.954.954,0,0,1-.584-.3c-.2-.177-.325-.429-.509-.624-.325-.343-.64-.294-.845.137a2.265,2.265,0,0,0-.193.659,8.248,8.248,0,0,0,.3,3.236c.409,1.545,1.036,2.966,2.661,3.643a.414.414,0,0,1,.209.256,32.733,32.733,0,0,0,1.844,4.884,13.861,13.861,0,0,0,1.883,3.467,22.661,22.661,0,0,0,3.725,3.92A6.393,6.393,0,0,0,33.766,41.3a9.762,9.762,0,0,0,3.651-1.915,33.365,33.365,0,0,0,4.6-4.58,2.9,2.9,0,0,0,.38-.577,32.159,32.159,0,0,0,2.3-5.9c.143-.466.243-.86.873-.976.725-.134,1.1-.787,1.426-1.414a9.663,9.663,0,0,0,1.02-4.311M23.509,36.3l-.076.042c0,1.112-.039,2.225.013,3.335a2.585,2.585,0,0,0,1.117,2.162,9.185,9.185,0,0,0,4.562,1.578c1.3.108,2.613.107,3.921.125a12.971,12.971,0,0,0,4.686-.744,6.16,6.16,0,0,0,3.493-2.9,1,1,0,0,0,.108-.436c.018-.782.021-1.564.025-2.347a1.318,1.318,0,0,0-.079-.263c-.285.286-.522.528-.764.766a18.763,18.763,0,0,1-4.885,3.761,7.1,7.1,0,0,1-7.545-.453,17.5,17.5,0,0,1-3.9-3.8c-.219-.28-.451-.551-.677-.826" transform="translate(0 -0.001)" fill="#449994"/>
    <path id="Path_11476" data-name="Path 11476" d="M143.187,219.31c0-.544-.016-1.03,0-1.515a1.8,1.8,0,0,1,1.8-1.775c.911-.021,1.822-.022,2.733-.014.256,0,.35-.078.395-.338q1.255-7.253,2.528-14.5c.329-1.881.66-3.762.981-5.645.039-.227.108-.37.359-.42.818-.16,1.631-.346,2.449-.511.457-.092.487-.068.57.412.337,1.959.665,3.919,1.006,5.877.532,3.056,1.079,6.109,1.608,9.165q.49,2.822.941,5.651c.047.293.2.312.42.312.885,0,1.771,0,2.656.008a1.727,1.727,0,0,1,1.594.9,2.131,2.131,0,0,1,.26.793c.048.445.022.9.036,1.345.007.234-.094.307-.324.307q-8.353-.012-16.707-.013-1.444,0-2.887-.007c-.139,0-.277-.019-.423-.03" transform="translate(-98.943 -134.438)" fill="#449994"/>
    <path id="Path_11477" data-name="Path 11477" d="M120.805,173.337a1.253,1.253,0,0,1,1.068-1.156c.924-.214,1.856-.4,2.783-.594,1.029-.22,2.055-.451,3.086-.662a.375.375,0,0,0,.357-.412,4.52,4.52,0,0,1,1.892-3.463,14.714,14.714,0,0,1,6.335-3,17.508,17.508,0,0,1,5.036-.522,10.2,10.2,0,0,1,3.672.752,4.092,4.092,0,0,1,2.359,2.137c.042.1.323.188.471.161.894-.166,1.783-.364,2.673-.558,1.052-.229,2.1-.474,3.153-.694a1.238,1.238,0,0,1,1.607,1.058c.159.753.33,1.5.471,2.259a1.094,1.094,0,0,1-.747,1.31,4.337,4.337,0,0,1-.967.232,1.043,1.043,0,0,1-1.137-.831c-.083-.26-.179-.343-.463-.28-1.84.412-3.682.808-5.526,1.2q-6.207,1.331-12.416,2.656c-2.634.56-5.27,1.108-7.9,1.664-.7.149-1.4.316-2.105.457-.218.044-.256.14-.236.344a1.118,1.118,0,0,1-.9,1.35,3.144,3.144,0,0,1-.868.138.889.889,0,0,1-.921-.576c-.295-.978-.522-1.977-.775-2.968m16.928-7.229a1.929,1.929,0,0,0-2.009,2.015,1.952,1.952,0,0,0,1.9,1.894,1.955,1.955,0,1,0,.109-3.908" transform="translate(-83.481 -112.984)" fill="#449994"/>
    <path id="Path_11478" data-name="Path 11478" d="M219.5,218.925q1.981,0,3.961,0c.192,0,.384.023.576.023.256,0,.331.109.286.362a4.088,4.088,0,0,1-1.992,2.876,5.4,5.4,0,0,1-6.656-.919,3.768,3.768,0,0,1-.9-1.922c-.054-.321.044-.432.38-.429,1.448.015,2.9.006,4.346.007" transform="translate(-148.404 -151.28)" fill="#449994"/>
    <path id="Path_11479" data-name="Path 11479" d="M122.139,241.275a3.346,3.346,0,0,1-1,2.418,5.044,5.044,0,0,1-5.336,1.343,4.213,4.213,0,0,1-3.152-3.339c-.071-.319.018-.415.33-.414q3.943,0,7.885-.008h1.269" transform="translate(-77.833 -166.73)" fill="#449994"/>
    <path id="Path_11480" data-name="Path 11480" d="M222.317,188.893c-.409,1.038-.777,1.965-1.14,2.893q-.82,2.095-1.636,4.191a.691.691,0,0,1-.129.276,4.072,4.072,0,0,1-.47.307c-.068-.174-.223-.368-.188-.518a8.987,8.987,0,0,1,.414-1.195q1.275-3.3,2.559-6.6a4.6,4.6,0,0,1,.289-.627c.179-.31.434-.317.617,0a5.1,5.1,0,0,1,.318.74q1.268,3.261,2.531,6.525c.129.334.257.67.371,1.01.077.23.18.491-.145.622-.344.138-.46-.122-.555-.366-.731-1.889-1.455-3.781-2.186-5.671-.192-.5-.4-.986-.649-1.587" transform="translate(-151.163 -129.493)" fill="#449994"/>
    <path id="Path_11481" data-name="Path 11481" d="M120.039,211.427c-.091.189-.168.327-.226.474q-1.3,3.329-2.6,6.659c-.05.128-.113.3-.218.344a.506.506,0,0,1-.444-.008.482.482,0,0,1-.062-.433c.4-1.068.822-2.127,1.232-3.191.608-1.579,1.2-3.164,1.827-4.736a2.757,2.757,0,0,1,.5-.628,2.689,2.689,0,0,1,.5.618c.984,2.492,1.945,4.994,2.911,7.493.06.155.108.315.154.475.059.2.06.386-.192.461a.384.384,0,0,1-.524-.252c-.271-.706-.536-1.415-.806-2.122q-.948-2.478-1.9-4.955a1.235,1.235,0,0,0-.147-.2" transform="translate(-80.48 -145.055)" fill="#449994"/>
  </g>
</svg>
