<svg id="Group_15875" data-name="Group 15875" xmlns="http://www.w3.org/2000/svg" xmlns:xlink="http://www.w3.org/1999/xlink" width="16.47" height="24.099" viewBox="0 0 16.47 24.099">
  <defs>
    <clipPath id="clip-path">
      <rect id="Rectangle_2268" data-name="Rectangle 2268" width="16.47" height="24.099" fill="#fff"/>
    </clipPath>
  </defs>
  <g id="Group_15874" data-name="Group 15874" transform="translate(0 0)" clip-path="url(#clip-path)">
    <path id="Path_11237" data-name="Path 11237" d="M8.272,24.1c.39-.443.784-.868,1.154-1.314a36.637,36.637,0,0,0,6.214-10.532,12.816,12.816,0,0,0,.8-3.335,7.757,7.757,0,0,0-1.21-4.972A8.2,8.2,0,0,0,9.175.066,8.306,8.306,0,0,0,.53,5.328a8.882,8.882,0,0,0-.02,5.984A31.278,31.278,0,0,0,3.7,18.151a33.585,33.585,0,0,0,4.024,5.436c.139.151.287.293.432.439a1.008,1.008,0,0,0,.112.073M3.877,8.273A4.351,4.351,0,1,1,8.228,12.6,4.33,4.33,0,0,1,3.877,8.273" transform="translate(0 0.001)" fill="#fff"/>
  </g>
</svg>
