<svg id="Group_16083" data-name="Group 16083" xmlns="http://www.w3.org/2000/svg" xmlns:xlink="http://www.w3.org/1999/xlink" width="22.202" height="22.961" viewBox="0 0 22.202 22.961">
  <defs>
    <clipPath id="clip-path">
      <rect id="Rectangle_2331" data-name="Rectangle 2331" width="22.202" height="22.961" fill="#d92a2a"/>
    </clipPath>
  </defs>
  <g id="Group_16083-2" data-name="Group 16083" clip-path="url(#clip-path)">
    <path id="Path_11322" data-name="Path 11322" d="M22.2,53.264a11.25,11.25,0,0,0-4.5-9.138,1.322,1.322,0,1,0-1.642,2.058A8.459,8.459,0,0,1,8.682,61.141a8.4,8.4,0,0,1-6-7.356,8.269,8.269,0,0,1,3.414-7.574,1.338,1.338,0,0,0,.593-1.277,1.226,1.226,0,0,0-.8-1.053,1.33,1.33,0,0,0-1.367.216A11.09,11.09,0,1,0,21.97,55.138c.132-.7.176-1.41.231-1.874" transform="translate(0 -41.173)" fill="#d92a2a"/>
    <path id="Path_11323" data-name="Path 11323" d="M167.707,5.629c0-1.424,0-2.848,0-4.272a1.255,1.255,0,0,0-.691-1.191,1.263,1.263,0,0,0-1.351.065,1.226,1.226,0,0,0-.578,1.078q-.008,4.361,0,8.722a1.309,1.309,0,1,0,2.618-.04c.009-1.454,0-2.907,0-4.361" transform="translate(-155.305 0)" fill="#d92a2a"/>
  </g>
</svg>
