<svg id="Group_16469" data-name="Group 16469" xmlns="http://www.w3.org/2000/svg" xmlns:xlink="http://www.w3.org/1999/xlink" width="82.041" height="74.364" viewBox="0 0 82.041 74.364">
  <defs>
    <clipPath id="clip-path">
      <rect id="Rectangle_2415" data-name="Rectangle 2415" width="82.041" height="74.364" fill="#449994"/>
    </clipPath>
  </defs>
  <g id="Group_16468" data-name="Group 16468" clip-path="url(#clip-path)">
    <path id="Path_11490" data-name="Path 11490" d="M22.155,103.319a3.767,3.767,0,0,0,2.155,2.345,15.776,15.776,0,0,0,5.361,1.406,23.928,23.928,0,0,0,8.875-.479,16.28,16.28,0,0,0,2.465-.836,3.639,3.639,0,0,0,2.436-2.474,21.8,21.8,0,0,0,7.485,4.017c-1.762,1.98-1.645,3.974,0,6.015-.261.058-.444.109-.63.138a3.959,3.959,0,0,0-3.578,3.751,28.564,28.564,0,0,0,.024,4.582,3.975,3.975,0,0,0,3.769,3.67l.421.043c-.148.211-.254.372-.369.527a4.033,4.033,0,0,0,.411,5.523q.946.941,1.885,1.887c.127.128.243.268.432.477-.317.067-.55.118-.784.166a89.017,89.017,0,0,1-15.945,1.785c-1.74.042-3.482.134-5.22.084a116.717,116.717,0,0,1-12.864-.931,63.941,63.941,0,0,1-9.8-2.105,20.461,20.461,0,0,1-6.362-3.025,5.188,5.188,0,0,1-2.243-3.108,4.148,4.148,0,0,1-.076-.8,47.921,47.921,0,0,1,.428-7.743,30.061,30.061,0,0,1,.858-3.825,7.5,7.5,0,0,1,5.941-5.388c2.36-.55,4.75-.988,7.084-1.631a22.515,22.515,0,0,0,7.213-3.561c.2-.144.384-.311.629-.51" transform="translate(0 -61.6)" fill="#449994"/>
    <path id="Path_11491" data-name="Path 11491" d="M55.871,0A16.874,16.874,0,0,1,62.25,1.092a14.141,14.141,0,0,1,1.88.944c.994.588,1.956,1.231,2.939,1.84a8.9,8.9,0,0,1,3.586,5.008,26.793,26.793,0,0,1,1.08,6.442c.038.419.092.836.113,1.255a2.524,2.524,0,0,0,.571,1.705,2.876,2.876,0,0,1,.561,1.53,10.17,10.17,0,0,1-1.34,6.827,10.144,10.144,0,0,1-.891.935,2.942,2.942,0,0,0-.507.784,28.067,28.067,0,0,1-3.681,6.624,18.571,18.571,0,0,1-4.876,4.6,9.665,9.665,0,0,1-11.1.034,20.075,20.075,0,0,1-6.843-7.445c-.732-1.333-1.3-2.754-1.956-4.131a.7.7,0,0,0-.283-.323,3.205,3.205,0,0,1-1.469-1.6,10.661,10.661,0,0,1-.955-6.857,2.227,2.227,0,0,1,.852-1.433.835.835,0,0,0,.259-.545c.18-1.956.234-3.931.529-5.868A11.822,11.822,0,0,1,43.5,5.05a5.706,5.706,0,0,1,1.136-.983c1.272-.808,2.553-1.6,3.865-2.344A15.31,15.31,0,0,1,55.871,0" transform="translate(-23.188)" fill="#449994"/>
    <path id="Path_11492" data-name="Path 11492" d="M129.149,105.149a5.723,5.723,0,0,1,.937.409c.57.383,1.112.808,1.657,1.226a.606.606,0,0,0,.73.07c.506-.256,1.05-.437,1.558-.691a.733.733,0,0,0,.343-.449c.142-.69.224-1.392.353-2.085a1.53,1.53,0,0,1,1.587-1.387q1.934-.044,3.869,0a1.527,1.527,0,0,1,1.635,1.451c.113.645.225,1.292.289,1.943a.623.623,0,0,0,.455.582c.5.2.975.451,1.482.611a.975.975,0,0,0,.725-.081c.581-.364,1.118-.8,1.68-1.194a1.512,1.512,0,0,1,2.09.169q1.4,1.38,2.77,2.784a1.489,1.489,0,0,1,.191,2.017c-.408.615-.837,1.217-1.281,1.807a.555.555,0,0,0-.044.681,10.176,10.176,0,0,1,.6,1.435.625.625,0,0,0,.6.476c.68.089,1.356.208,2.03.333a1.384,1.384,0,0,1,1.275,1.535c.01,1.3.007,2.59.01,3.885a1.531,1.531,0,0,1-1.231,1.612c-.7.168-1.417.251-2.115.421a.913.913,0,0,0-.53.418,9.879,9.879,0,0,0-.646,1.526.9.9,0,0,0,.093.67c.376.595.821,1.146,1.209,1.734a1.458,1.458,0,0,1-.215,2.042q-1.345,1.36-2.709,2.7a1.484,1.484,0,0,1-2.086.184c-.555-.376-1.1-.76-1.643-1.16a.649.649,0,0,0-.848-.057,7.879,7.879,0,0,1-1.423.621.611.611,0,0,0-.442.587c-.074.65-.178,1.3-.3,1.942a1.519,1.519,0,0,1-1.671,1.406c-1.256.012-2.513.01-3.769,0a1.557,1.557,0,0,1-1.651-1.373c-.129-.693-.212-1.395-.356-2.084a.742.742,0,0,0-.354-.454,10.863,10.863,0,0,0-1.532-.621.991.991,0,0,0-.721.063c-.559.334-1.079.735-1.613,1.112a1.593,1.593,0,0,1-2.172-.176q-1.269-1.259-2.547-2.509a1.62,1.62,0,0,1-.214-2.485c.352-.491.738-.96,1.05-1.476a.981.981,0,0,0,.069-.721,10.181,10.181,0,0,0-.633-1.531.819.819,0,0,0-.5-.381c-.736-.155-1.487-.234-2.223-.387a1.358,1.358,0,0,1-1.156-1.433q-.016-2.043.008-4.086a1.376,1.376,0,0,1,1.25-1.514c.637-.137,1.283-.234,1.929-.329a.806.806,0,0,0,.805-.657,5.989,5.989,0,0,1,.581-1.334.511.511,0,0,0-.044-.632c-.438-.594-.857-1.2-1.268-1.816a1.309,1.309,0,0,1,.04-1.8c.966-1.07,1.982-2.1,3.018-3.1a3.366,3.366,0,0,1,1-.45m2.6,13.684a6.451,6.451,0,0,0,6.771,6.537,6.58,6.58,0,0,0-.35-13.153,6.505,6.505,0,0,0-6.421,6.616" transform="translate(-72.658 -60.968)" fill="#449994"/>
  </g>
</svg>
