<svg id="Group_16104" data-name="Group 16104" xmlns="http://www.w3.org/2000/svg" xmlns:xlink="http://www.w3.org/1999/xlink" width="33.823" height="27.15" viewBox="0 0 33.823 27.15">
  <defs>
    <clipPath id="clip-path">
      <rect id="Rectangle_2344" data-name="Rectangle 2344" width="33.823" height="27.15" fill="#2e3336"/>
    </clipPath>
  </defs>
  <g id="Group_16104-2" data-name="Group 16104" transform="translate(0)" clip-path="url(#clip-path)">
    <path id="Path_11330" data-name="Path 11330" d="M.006,24.876c.085-.027.121-.035.154-.049.683-.292,1.363-.591,2.049-.877,1.259-.526,2.522-1.044,3.781-1.57.732-.306,1.461-.621,2.191-.932.432-.183.863-.372,1.3-.544a.288.288,0,0,0,.212-.311q0-3.156,0-6.312,0-6.7,0-13.405C9.7.44,9.688.422,9.281.582c-.75.295-1.492.612-2.237.921-.821.341-1.642.682-2.46,1.028-.777.329-1.55.669-2.329,1-.679.285-1.36.564-2.046.833A.278.278,0,0,0,0,4.665q.012,4.691.014,9.381,0,4.91-.008,9.82c0,.328,0,.656,0,1.009" transform="translate(24.128 -0.415)" fill="#2e3336"/>
    <path id="Path_11331" data-name="Path 11331" d="M78.45,24.674v-.711q0-9.744,0-19.488a.292.292,0,0,0-.261-.342,2.794,2.794,0,0,1-.462-.174c-.693-.3-1.382-.609-2.077-.9s-1.412-.57-2.113-.865C72.768,1.866,72,1.519,71.231,1.2S69.688.58,68.915.274a.908.908,0,0,0-.154-.03c0,.278,0,.538,0,.8q0,3.136,0,6.273c0,.181.043.239.233.27a9.1,9.1,0,0,1,1.579.332,6.561,6.561,0,0,1,3.441,2.767,6.132,6.132,0,0,1,.93,2.734,6.606,6.606,0,0,1-.251,2.751,6.736,6.736,0,0,1-3.636,4.03,6.418,6.418,0,0,1-1.848.495l-.086.014-.018.061,9.343,3.907" transform="translate(-55.169 -0.207)" fill="#2e3336"/>
    <path id="Path_11332" data-name="Path 11332" d="M137.552,20.211c.226-.2.457-.4.677-.608.29-.276.556-.579.859-.839a1.783,1.783,0,0,1,1.772-.413.215.215,0,0,0,.179-.047c.294-.29.578-.591.869-.884a.175.175,0,0,0,.028-.248,6.5,6.5,0,0,1-.8-3.8,6.258,6.258,0,0,1,1.845-4.033A7,7,0,0,1,146.1,7.516a4.71,4.71,0,0,1,.887-.118c.174-.015.25-.06.249-.261-.007-2.321,0-4.641,0-6.962,0-.048-.008-.1-.015-.176-.311.115-.6.212-.888.331q-2.251.939-4.5,1.887-1.458.612-2.916,1.222c-.415.175-.827.361-1.244.532-.125.051-.128.139-.128.244q0,1.573,0,3.147,0,6.361,0,12.722c0,.049,0,.1.006.127" transform="translate(-134.498)" fill="#2e3336"/>
    <path id="Path_11333" data-name="Path 11333" d="M170.183,118.476c-.171.165-.328.311-.48.463-.255.257-.513.512-.758.778-.107.116-.166.031-.234-.027a.876.876,0,0,0-.9-.2,1.142,1.142,0,0,0-.415.256q-1.834,1.821-3.655,3.654c-.377.378-.76.751-1.133,1.133a.981.981,0,0,0,.021,1.522q.535.53,1.066,1.065a.945.945,0,0,0,1.459.015c.858-.85,1.708-1.708,2.562-2.562.728-.728,1.452-1.46,2.189-2.18a.982.982,0,0,0,.324-1.046,1.116,1.116,0,0,0-.226-.365c-.073-.087-.082-.132.006-.216.381-.365.754-.738,1.129-1.109.061-.06.121-.109.025-.2-.284-.271-.56-.55-.839-.826-.04-.04-.076-.083-.139-.152" transform="translate(-162.255 -100.318)" fill="#2e3336"/>
    <path id="Path_11334" data-name="Path 11334" d="M96.974,59.323a5.741,5.741,0,1,0,5.677-5.849,5.767,5.767,0,0,0-5.677,5.849m1.022-.1a4.753,4.753,0,0,1,4.742-4.731,4.722,4.722,0,1,1-.073,9.445A4.706,4.706,0,0,1,98,59.228" transform="translate(-89.493 -45.279)" fill="#2e3336"/>
    <path id="Path_11335" data-name="Path 11335" d="M139.776,130.837l3.685-1.56-.009-.043a6.564,6.564,0,0,1-.651-.109,10.393,10.393,0,0,1-1.012-.319c-.266-.1-.513-.249-.774-.364a.225.225,0,0,0-.2.019c-.316.294-.623.6-.928.9a.164.164,0,0,0-.041.136,1.892,1.892,0,0,1-.07,1.336" transform="translate(-131.06 -108.746)" fill="#2e3336"/>
  </g>
</svg>
