<svg id="Group_15994" data-name="Group 15994" xmlns="http://www.w3.org/2000/svg" xmlns:xlink="http://www.w3.org/1999/xlink" width="25.26" height="21.763" viewBox="0 0 25.26 21.763">
  <defs>
    <clipPath id="clip-path">
      <rect id="Rectangle_2305" data-name="Rectangle 2305" width="25.26" height="21.763" fill="#2a8478"/>
    </clipPath>
  </defs>
  <g id="Group_15993" data-name="Group 15993" clip-path="url(#clip-path)">
    <path id="Path_11284" data-name="Path 11284" d="M20.9,21.763l-1.73-3.385.391-.2a11.72,11.72,0,0,0,3.079-2.226,8.855,8.855,0,0,0,2.38-4.129,7.837,7.837,0,0,0-.45-5.155A9.806,9.806,0,0,0,21.434,2.8,13.474,13.474,0,0,0,16.376.441a15.945,15.945,0,0,0-4.914-.4A15.294,15.294,0,0,0,7.19.957,13.105,13.105,0,0,0,4.657,2.213a10.67,10.67,0,0,0-3.4,3.366,8.054,8.054,0,0,0-1.25,4.613,8.258,8.258,0,0,0,1.658,4.641,11.432,11.432,0,0,0,4.3,3.512,14.228,14.228,0,0,0,3.468,1.172,15.625,15.625,0,0,0,2.671.309,14.306,14.306,0,0,0,2.114-.085.375.375,0,0,1,.15.018q2.43.748,4.859,1.5l1.552.48c.029.009.06.013.116.025m-8.344-13.1a1.187,1.187,0,0,1,1.211,1.176,1.216,1.216,0,0,1-2.433.018,1.182,1.182,0,0,1,1.222-1.194M19.59,9.853A1.179,1.179,0,0,1,18.4,11.062a1.218,1.218,0,0,1-1.23-1.195,1.188,1.188,0,0,1,1.217-1.2,1.154,1.154,0,0,1,1.2,1.185M6.671,8.668A1.2,1.2,0,0,1,7.9,9.858a1.213,1.213,0,0,1-2.425.011,1.186,1.186,0,0,1,1.2-1.2" transform="translate(0 0)" fill="#2a8478"/>
  </g>
</svg>
