<svg xmlns="http://www.w3.org/2000/svg" width="40" height="40" viewBox="0 0 40 40">
  <g id="Group_16296" data-name="Group 16296" transform="translate(0 0.046)">
    <circle id="Ellipse_202" data-name="Ellipse 202" cx="20" cy="20" r="20" transform="translate(0 -0.046)" fill="#449994"/>
    <g id="Group_16295" data-name="Group 16295" transform="translate(7.559 4.711)">
      <g id="Group_16306" data-name="Group 16306" transform="translate(0 0)">
        <path id="Path_11363" data-name="Path 11363" d="M22.688,122.337c-.041-.021-.154-.021-.195-.041a1.043,1.043,0,0,0-.267-.021,1,1,0,0,0-.934.482l-2.339,3.858-2.945.051a.889.889,0,0,0-.811,1.262h-4.72a.889.889,0,0,0-.811-1.262H6.724l-2.339-3.909a1.011,1.011,0,0,0-.934-.482,1.126,1.126,0,0,0-.267.021c-.041.021-.154.021-.195.041-3,.687-3.006,7.079-2.986,8.3a1.729,1.729,0,0,0,1.2,1.919,1.575,1.575,0,0,0,.636.133H6.99v4.453a1.159,1.159,0,0,0,2.319,0v-5.571a1.162,1.162,0,0,0-.349-.831,1.208,1.208,0,0,0-.831-.369H4.692v-2.575l-1.785-3.037a.25.25,0,0,1,.41-.287L5.39,127.99a.445.445,0,0,1,.041.072v1.611H20.246v-1.611a.165.165,0,0,0,.041-.072l2.073-3.519a.25.25,0,0,1,.41.287l-1.785,3.037v2.575H17.558a1.228,1.228,0,0,0-.831.369,1.162,1.162,0,0,0-.349.831v5.571a1.159,1.159,0,0,0,2.319,0v-4.453h5.15a1.575,1.575,0,0,0,.636-.133,1.729,1.729,0,0,0,1.2-1.919c.021-1.211.01-7.613-3-8.3" transform="translate(-0.001 -110.343)" fill="#fff"/>
        <path id="Path_11364" data-name="Path 11364" d="M222.263,73.189a2.073,2.073,0,1,1,1.8,2.31,2.072,2.072,0,0,1-1.8-2.31" transform="translate(-203.86 -63.649)" fill="#fff"/>
        <path id="Path_11365" data-name="Path 11365" d="M38.21,72.451a2.073,2.073,0,1,1,.849,2.805,2.073,2.073,0,0,1-.849-2.805" transform="translate(-34.823 -63.637)" fill="#fff"/>
        <path id="Path_11366" data-name="Path 11366" d="M113.943,9.793a4.9,4.9,0,1,0-4.9-4.89,4.912,4.912,0,0,0,4.9,4.89M113.5,2.517V1.875h.852v.669a2.954,2.954,0,0,1,1.206.564l-.59.682a2.278,2.278,0,0,0-.839-.406c-.406-.092-.852.013-.878.419-.013.17.066.485.957.734.472.131,1.573.419,1.573,1.455a1.451,1.451,0,0,1-1.416,1.337v.59h-.852V7.289a2.942,2.942,0,0,1-1.259-.6l.642-.642a2.387,2.387,0,0,0,.918.433c.511.066.813-.144.852-.433.066-.537-1.114-.734-1.534-.944-.511-.249-1.009-.577-1.009-1.272A1.338,1.338,0,0,1,113.5,2.517" transform="translate(-101.084)" fill="#fff"/>
      </g>
    </g>
  </g>
</svg>
