<svg id="Group_32" data-name="Group 32" xmlns="http://www.w3.org/2000/svg" xmlns:xlink="http://www.w3.org/1999/xlink" width="21.339" height="19.45" viewBox="0 0 21.339 19.45">
  <defs>
    <clipPath id="clip-path">
      <rect id="Rectangle_2031" data-name="Rectangle 2031" width="17.706" height="19.45" fill="#2e3336"/>
    </clipPath>
  </defs>
  <g id="Group_15867" data-name="Group 15867" transform="translate(0 0)">
    <g id="Group_15161" data-name="Group 15161" transform="translate(3.633 0)">
      <g id="Group_15160" data-name="Group 15160" transform="translate(0 0)" clip-path="url(#clip-path)">
        <path id="Path_5913" data-name="Path 5913" d="M8.879,15.92c1.946,0,3.892,0,5.838,0a2.849,2.849,0,0,0,1.9-.651,2.906,2.906,0,0,0,1.088-2.332,2.828,2.828,0,0,0-.5-1.566,9.445,9.445,0,0,1-1.4-3.385,11.886,11.886,0,0,1-.174-1.313,7.98,7.98,0,0,0-.565-2.535A6.68,6.68,0,0,0,11.766.667,6.577,6.577,0,0,0,8.678,0a6.58,6.58,0,0,0-4.2,1.607,6.724,6.724,0,0,0-1.8,2.425,7.43,7.43,0,0,0-.547,2.138A15.26,15.26,0,0,1,1.811,8.4a10.207,10.207,0,0,1-1.3,2.963,3.185,3.185,0,0,0-.475,1.2,2.853,2.853,0,0,0,.137,1.4A2.745,2.745,0,0,0,1.27,15.4,3.033,3.033,0,0,0,3,15.92q2.939,0,5.879,0" transform="translate(0 0)" fill="#2e3336"/>
        <path id="Path_5914" data-name="Path 5914" d="M24.047,54.557H18.008a3.382,3.382,0,0,0,2.651,1.734,3.439,3.439,0,0,0,3.387-1.734" transform="translate(-12.181 -36.863)" fill="#2e3336"/>
      </g>
    </g>
    <ellipse id="Ellipse_40" data-name="Ellipse 40" cx="3.788" cy="3.444" rx="3.788" ry="3.444" transform="translate(0 6.044)" fill="#00ae97"/>
  </g>
</svg>
