<svg xmlns="http://www.w3.org/2000/svg" xmlns:xlink="http://www.w3.org/1999/xlink" width="33.693" height="45.57" viewBox="0 0 33.693 45.57">
  <defs>
    <clipPath id="clip-path">
      <rect id="Rectangle_2266" data-name="Rectangle 2266" width="33.693" height="45.57" fill="#2e323d"/>
    </clipPath>
  </defs>
  <g id="Group_15860" data-name="Group 15860" transform="translate(-114)">
    <g id="Group_15859" data-name="Group 15859" transform="translate(114)" clip-path="url(#clip-path)">
      <path id="Path_11229" data-name="Path 11229" d="M66.461,0a10.83,10.83,0,0,1,4.8,1.26,7.163,7.163,0,0,1,3.508,5.553c.058.417.088.84.108,1.261A3.764,3.764,0,0,0,75.22,9.86c.677,1.245.019,3.747-1.044,4.67a1.3,1.3,0,0,0-.294.484,13.513,13.513,0,0,1-3.255,4.857c-2.791,2.569-5.914,2.553-8.684-.049a13.782,13.782,0,0,1-3.212-4.831c-.08-.19-.278-.327-.4-.5a7.022,7.022,0,0,1-.811-1.242,4.921,4.921,0,0,1-.273-3.236c.038-.138.085-.319.188-.384.407-.258.359-.66.426-1.053a24.518,24.518,0,0,1,.723-3.666A6.641,6.641,0,0,1,63.271.6,28.594,28.594,0,0,1,66.461,0" transform="translate(-49.595)" fill="#2e323d"/>
      <path id="Path_11230" data-name="Path 11230" d="M62.485,222.869c0-.69,0-1.3,0-1.919a1.775,1.775,0,0,1,1.964-1.967q2.8-.007,5.607,0a1.771,1.771,0,0,1,1.964,1.959c0,.615,0,1.23,0,1.9.212.011.382.028.553.029.991,0,1.983,0,2.974,0,.631,0,.933.3.934.926q.009,5.534,0,11.068c0,.673-.3.943-1.017.946-1.947.006-3.895,0-5.842,0H59.238c-1,0-1.217-.216-1.217-1.19q0-5.313,0-10.626c0-.888.24-1.127,1.126-1.128h3.338m2.261-.022h5.015v-1.6H64.746Z" transform="translate(-50.407 -190.244)" fill="#2e323d"/>
      <path id="Path_11231" data-name="Path 11231" d="M148.105,169.752a27.428,27.428,0,0,0,3.673-4.848c1.182.11,2.375.223,3.567.331a6.627,6.627,0,0,1,5.509,3.818,18.017,18.017,0,0,1,1.364,3.424A3.122,3.122,0,0,1,161.051,176a10.5,10.5,0,0,1-4.091,1.721,3.618,3.618,0,0,0-1.051-3.328c-.995-.857-2.2-.736-3.358-.738a4.126,4.126,0,0,0-4.446-3.9" transform="translate(-128.67 -143.265)" fill="#2e323d"/>
      <path id="Path_11232" data-name="Path 11232" d="M10.592,165.01a27.438,27.438,0,0,0,3.687,4.866,4.165,4.165,0,0,0-3.052.977,4,4,0,0,0-1.371,2.893c-.353,0-.7.018-1.05,0a3.129,3.129,0,0,0-3.424,3.4c.016.192,0,.386,0,.714-.87-.3-1.685-.538-2.47-.853a7.313,7.313,0,0,1-1.4-.771A3.283,3.283,0,0,1,.2,172.339a24.362,24.362,0,0,1,1.454-3.44,6.726,6.726,0,0,1,5.837-3.64c1.019-.069,2.037-.163,3.1-.249" transform="translate(0 -143.357)" fill="#2e323d"/>
      <path id="Path_11233" data-name="Path 11233" d="M118.848,178H116.34c.128-.522.275-1.012.358-1.511a1.276,1.276,0,0,0-.134-.6c-.176-.471-.372-.934-.6-1.494h3.086a2.129,2.129,0,0,1-.472,1.549.685.685,0,0,0-.117.511c.1.506.245,1,.384,1.543" transform="translate(-100.748 -151.51)" fill="#2e323d"/>
    </g>
  </g>
</svg>
