<svg id="Group_16053" data-name="Group 16053" xmlns="http://www.w3.org/2000/svg" xmlns:xlink="http://www.w3.org/1999/xlink" width="35.754" height="30.046" viewBox="0 0 35.754 30.046">
  <defs>
    <clipPath id="clip-path">
      <rect id="Rectangle_2320" data-name="Rectangle 2320" width="35.754" height="30.046" fill="#449994"/>
    </clipPath>
  </defs>
  <g id="Group_16052" data-name="Group 16052" transform="translate(0)" clip-path="url(#clip-path)">
    <path id="Path_11299" data-name="Path 11299" d="M20.294,53.946c0-.193,0-.349,0-.506a.825.825,0,0,1,.839-.832q2.54,0,5.079,0a.815.815,0,0,1,.888.89q0,3.172,0,6.344a.793.793,0,0,0,.414.779.842.842,0,0,0,.365.1q2.6.011,5.208.005a.785.785,0,0,0,.807-.835c.006-.268-.023-.537-.023-.806q0-3.758,0-7.517c0-.238.035-.477.021-.714a.586.586,0,0,0-.141-.353q-2.939-2.959-5.892-5.905-1.776-1.776-3.557-3.547a.793.793,0,0,0-1.2-.007Q21.134,43,19.173,44.966a.383.383,0,0,0-.1.254c.013.341.042.682.076,1.022a.91.91,0,0,0,.091.314,3.843,3.843,0,0,1,.207,2.85,6.581,6.581,0,0,1-.893,1.895c-.3.453-.561.929-.829,1.4-.106.187-.08.21.117.288.773.3,1.543.607,2.315.911.027.011.056.019.139.046" transform="translate(-0.747 -34.765)" fill="#449994"/>
    <path id="Path_11300" data-name="Path 11300" d="M93.726,129.6c-.108.443-.207.856-.31,1.268a29.555,29.555,0,0,1-2.9,7.462c-.2.356-.4.714-.618,1.059-.195.309-.393.3-.578-.005a29.509,29.509,0,0,1-2.2-4.381,34.784,34.784,0,0,1-1.578-5.248c-.023-.1-.052-.168-.184-.111-1.27.552-2.545,1.093-3.811,1.651a5.878,5.878,0,0,0-2.409,1.893,8.386,8.386,0,0,0-1.17,2.33,9.5,9.5,0,0,0-.528,2.849c-.007.353.037.433.357.574a14.021,14.021,0,0,0,3.37.956c1.016.17,2.039.319,3.064.4q2.089.174,4.188.231c1.209.034,2.421.028,3.629-.023,1.225-.051,2.449-.162,3.67-.278a22.968,22.968,0,0,0,4.608-.882c.366-.113.722-.26,1.079-.4.322-.128.4-.242.379-.585a9.949,9.949,0,0,0-.357-2.273,10.054,10.054,0,0,0-1.039-2.453,5.615,5.615,0,0,0-2.134-2.042,36.22,36.22,0,0,0-3.94-1.763l-.588-.237" transform="translate(-77.439 -110.514)" fill="#449994"/>
    <path id="Path_11301" data-name="Path 11301" d="M122.807,44.23c.016.237.035.475.045.712a.219.219,0,0,1-.046.163,1.29,1.29,0,0,0-.451,1.092,4.37,4.37,0,0,0,1.186,3.156,1.747,1.747,0,0,1,.351.607,4.784,4.784,0,0,0,2.479,2.942,3.541,3.541,0,0,0,3.961-.579,5.247,5.247,0,0,0,1.65-2.547.853.853,0,0,1,.184-.308,4.582,4.582,0,0,0,1.265-2.665,2.438,2.438,0,0,0-.1-1.23,3.129,3.129,0,0,0-.3-.427.5.5,0,0,1-.1-.235c-.019-.629,0-1.26-.041-1.888a4.263,4.263,0,0,0-2.874-3.9,6.226,6.226,0,0,0-5.07.374,2.17,2.17,0,0,0-1.177,1.651.386.386,0,0,1-.093.21,2.557,2.557,0,0,0-.737,1.521c-.079.443-.109.894-.161,1.342l.024,0" transform="translate(-115.73 -33.048)" fill="#449994"/>
    <path id="Path_11302" data-name="Path 11302" d="M1.585,8.744,4.669,5.669c.385-.384.769-.77,1.159-1.149a.731.731,0,0,1,1.131,0c.912.9,1.816,1.814,2.724,2.721q3.5,3.5,7.006,7a1.445,1.445,0,0,0,.413.295.649.649,0,0,0,.738-.1c.4-.369.8-.743,1.16-1.145a.762.762,0,0,0-.091-1.1Q16.966,10.241,15.02,8.3,11.013,4.292,7.006.285A.783.783,0,0,0,6.162.041.931.931,0,0,0,5.81.26Q2.976,3.079.152,5.906c-.2.2-.2.2,0,.394A5.019,5.019,0,0,1,1.533,8.592c.013.046.03.09.051.151" transform="translate(16.558 0)" fill="#449994"/>
    <path id="Path_11303" data-name="Path 11303" d="M153.463,166.759c.181-.323.369-.643.542-.971.188-.356.371-.715.538-1.081a.638.638,0,0,0,.039-.364c-.089-.454-.2-.9-.3-1.356a.244.244,0,0,0-.288-.226c-.385.014-.77.014-1.155,0a.21.21,0,0,0-.242.187c-.115.5-.231,1-.342,1.5a.257.257,0,0,0,.021.159q.552,1.083,1.111,2.162l.077-.01" transform="translate(-141.264 -138.787)" fill="#449994"/>
    <path id="Path_11304" data-name="Path 11304" d="M153.4,146.9c-.293,0-.587,0-.88,0-.251,0-.318.087-.272.332.085.455.176.909.262,1.363a.249.249,0,0,0,.279.228q.6,0,1.191,0a.268.268,0,0,0,.306-.26c.072-.426.165-.849.245-1.274.063-.335.016-.39-.325-.39H153.4" transform="translate(-141.227 -125.263)" fill="#449994"/>
  </g>
</svg>
