<svg id="Group_15847" data-name="Group 15847" xmlns="http://www.w3.org/2000/svg" xmlns:xlink="http://www.w3.org/1999/xlink" width="12.527" height="17.119" viewBox="0 0 12.527 17.119">
  <defs>
    <clipPath id="clip-path">
      <rect id="Rectangle_109" data-name="Rectangle 109" width="12.527" height="17.119" fill="#1b3356"/>
    </clipPath>
  </defs>
  <g id="Group_137" data-name="Group 137" clip-path="url(#clip-path)">
    <path id="Path_300" data-name="Path 300" d="M6.283,40.187h6.088c.153,0,.153,0,.153.151,0,1.059.007,2.118,0,3.178a6.266,6.266,0,0,1-1.8,4.452,6.116,6.116,0,0,1-3.644,1.824,5.9,5.9,0,0,1-3.668-.626,6.172,6.172,0,0,1-3.3-4.5A10.189,10.189,0,0,1,0,42.673c.005-.778,0-1.557,0-2.335,0-.139.011-.154.165-.154l4.768,0H6.283m-1.03,5.33h0c0,.214,0,.428,0,.642a1.022,1.022,0,0,0,.972.991,1.012,1.012,0,0,0,1.042-.979c.012-.428,0-.856,0-1.284a.231.231,0,0,1,.087-.2,1.606,1.606,0,0,0,.584-1.294,1.533,1.533,0,0,0-.572-1.181,1.655,1.655,0,1,0-2.2,2.474.219.219,0,0,1,.085.188c0,.214,0,.428,0,.642" transform="translate(0 -32.738)" fill="#1b3356"/>
    <path id="Path_301" data-name="Path 301" d="M11.923,6.2c0-.29,0-.577,0-.864a7.159,7.159,0,0,0-.044-1.118A2.363,2.363,0,0,0,10.1,2.243a3.069,3.069,0,0,0-.783-.1c-.763-.014-1.527-.006-2.29-.006A2.393,2.393,0,0,0,4.862,3.386a2.379,2.379,0,0,0-.353,1.322c.011.463,0,.926.005,1.39,0,.087-.016.121-.116.12-.631-.006-1.262,0-1.892,0-.062,0-.116.007-.115-.084.007-.619-.007-1.239.021-1.856a4.211,4.211,0,0,1,.569-1.869A4.422,4.422,0,0,1,5.369.315a4.751,4.751,0,0,1,1.564-.3c.876-.012,1.753-.035,2.628,0A4.449,4.449,0,0,1,13.023,1.76,4.5,4.5,0,0,1,14.03,4.586c0,.506,0,1.012,0,1.518,0,.091-.032.11-.116.11-.639,0-1.277,0-1.916,0a.536.536,0,0,1-.079-.013" transform="translate(-1.948 0)" fill="#1b3356"/>
  </g>
</svg>
