<svg xmlns="http://www.w3.org/2000/svg" xmlns:xlink="http://www.w3.org/1999/xlink" width="15.82" height="16.644" viewBox="0 0 15.82 16.644">
  <defs>
    <clipPath id="clip-path">
      <rect id="Rectangle_2261" data-name="Rectangle 2261" width="15.82" height="16.644" fill="#1b3356"/>
    </clipPath>
  </defs>
  <g id="Group_15523" data-name="Group 15523" clip-path="url(#clip-path)">
    <path id="Path_11223" data-name="Path 11223" d="M10.411,28.714a5.321,5.321,0,0,1-2.669-.681,14.653,14.653,0,0,1-3.6-2.942A23.459,23.459,0,0,1,1.61,21.828,11.7,11.7,0,0,1,.22,18.857a4.66,4.66,0,0,1-.1-2.425,3.342,3.342,0,0,1,3.8-2.672.833.833,0,0,1,.579.416,3.137,3.137,0,0,1,.359,1.072c.165.79.32,1.583.484,2.374a.552.552,0,0,1-.176.54,2.384,2.384,0,0,1-.8.451c-.165.069-.326.149-.484.233a.344.344,0,0,0-.182.442,7.359,7.359,0,0,0,.294.875,9.6,9.6,0,0,0,1.578,2.46,8.908,8.908,0,0,0,1.425,1.3c.219.158.431.324.654.476a3,3,0,0,0,.442.248.519.519,0,0,0,.706-.214c.123-.188.24-.38.365-.566a2.415,2.415,0,0,1,.195-.246.733.733,0,0,1,.882-.227,20.648,20.648,0,0,1,2.829,1.21c.636.338.737.534.616,1.24a3.459,3.459,0,0,1-2.435,2.751,7.126,7.126,0,0,1-.837.12" transform="translate(0 -12.069)" fill="#1b3356"/>
    <path id="Path_11224" data-name="Path 11224" d="M76.125,8.587c-.012.164-.011.33-.038.491a.362.362,0,0,1-.336.275.308.308,0,0,1-.328-.188.8.8,0,0,1-.049-.276c-.033-.473-.033-.95-.1-1.418A7.79,7.79,0,0,0,73.935,4,8.005,8.005,0,0,0,68.958.727a.41.41,0,0,1-.351-.339.353.353,0,0,1,.21-.35.653.653,0,0,1,.347-.024,8.826,8.826,0,0,1,4.972,3.041,8.6,8.6,0,0,1,1.781,3.778c.117.575.159,1.165.235,1.748l-.028.006" transform="translate(-60.332 -0.001)" fill="#1b3356"/>
    <path id="Path_11225" data-name="Path 11225" d="M73.247,24.329a1.662,1.662,0,0,1-.049.292.36.36,0,0,1-.413.221.326.326,0,0,1-.279-.321,7.083,7.083,0,0,0-.255-1.742,5.494,5.494,0,0,0-3.945-3.82c-.174-.049-.348-.091-.431-.283a.363.363,0,0,1,.289-.488.72.72,0,0,1,.221.024,6.278,6.278,0,0,1,4.349,3.744,6.646,6.646,0,0,1,.514,2.374" transform="translate(-59.667 -15.994)" fill="#1b3356"/>
    <path id="Path_11226" data-name="Path 11226" d="M69.562,40.764c0,.075-.006.16-.016.243a.359.359,0,0,1-.384.338.37.37,0,0,1-.343-.383,3.027,3.027,0,0,0-.452-1.636,2.847,2.847,0,0,0-1.586-1.206,3.323,3.323,0,0,1-.326-.109.363.363,0,0,1-.212-.391.387.387,0,0,1,.363-.282.951.951,0,0,1,.249.044,3.566,3.566,0,0,1,2.656,2.983c.023.127.033.257.05.4" transform="translate(-58.251 -32.837)" fill="#1b3356"/>
  </g>
</svg>
