<svg xmlns="http://www.w3.org/2000/svg" width="20.832" height="20.825" viewBox="0 0 20.832 20.825">
  <g id="Group_16290" data-name="Group 16290" transform="translate(0 0)">
    <path id="Path_4263" data-name="Path 4263" d="M8.446,5c0,1.081,0,2.163,0,3.244,0,.16-.045.2-.2.2q-3.085-.01-6.171,0A1.892,1.892,0,0,0,.2,9.558a1.955,1.955,0,0,0,1.62,2.813c.157.012.314.009.472.009H8.212c.233,0,.233,0,.233.231,0,2.026.01,4.053,0,6.079a1.974,1.974,0,0,0,3.936.316c.009-.12.011-.241.011-.362q0-3.016.007-6.031c0-.225,0-.229.234-.23q2.361,0,4.723,0c.556,0,1.113.013,1.668-.014A1.962,1.962,0,0,0,18.96,8.45c-.1,0-.2-.007-.3-.007l-6.061,0c-.213,0-.214,0-.214-.217,0-2.074-.007-4.147.01-6.22A2.028,2.028,0,0,0,10.733.026,1.967,1.967,0,0,0,8.554,1.318a2.723,2.723,0,0,0-.1.821c-.012.955,0,1.911,0,2.866" transform="translate(0 0)" fill="#abb2b8"/>
  </g>
</svg>
