<svg xmlns="http://www.w3.org/2000/svg" xmlns:xlink="http://www.w3.org/1999/xlink" width="96" height="97" viewBox="0 0 96 97">
  <defs>
    <filter id="Ellipse_43" x="0" y="0" width="96" height="97" filterUnits="userSpaceOnUse">
      <feOffset dy="1" input="SourceAlpha"/>
      <feGaussianBlur stdDeviation="6.5" result="blur"/>
      <feFlood flood-opacity="0.02"/>
      <feComposite operator="in" in2="blur"/>
      <feComposite in="SourceGraphic"/>
    </filter>
    <clipPath id="clip-path">
      <rect id="Rectangle_2264" data-name="Rectangle 2264" width="29.053" height="32.773" fill="#2e3336"/>
    </clipPath>
  </defs>
  <g id="Group_15873" data-name="Group 15873" transform="translate(19.5 18.5)">
    <g id="Group_16289" data-name="Group 16289">
      <g transform="matrix(1, 0, 0, 1, -19.5, -18.5)" filter="url(#Ellipse_43)">
        <g id="Ellipse_43-2" data-name="Ellipse 43" transform="translate(19.5 18.5)" fill="#fff" stroke="#449994" stroke-width="1">
          <ellipse cx="28.5" cy="29" rx="28.5" ry="29" stroke="none"/>
          <ellipse cx="28.5" cy="29" rx="28" ry="28.5" fill="none"/>
        </g>
      </g>
      <g id="Group_15857" data-name="Group 15857" transform="translate(13.974 13.065)">
        <g id="Group_15856" data-name="Group 15856" clip-path="url(#clip-path)">
          <path id="Path_11227" data-name="Path 11227" d="M19.265,174.349a4.539,4.539,0,0,1-.38.6c-.353.407-.72.8-1.1,1.185a40.433,40.433,0,0,1-3.165,2.76.121.121,0,0,1-.183,0c-.964-.831-1.936-1.653-2.891-2.494a9.605,9.605,0,0,1-1.39-1.472c-.134-.18-.238-.382-.363-.585-.079.056-.181.128-.282.2A10.229,10.229,0,0,1,6.081,176.2c-.71.189-1.441.3-2.156.473a11.374,11.374,0,0,0-1.513.434A3.02,3.02,0,0,0,.7,178.917a8.7,8.7,0,0,0-.475,1.9A24.079,24.079,0,0,0,0,184.238a1.843,1.843,0,0,0,.459,1.218A4.489,4.489,0,0,0,1.9,186.548a11.878,11.878,0,0,0,2.341.894c.519.142,1.042.273,1.569.384.69.145,1.381.3,2.079.389,1.178.149,2.362.266,3.546.364a39.933,39.933,0,0,0,4.87.071c1.1-.044,2.206-.151,3.307-.248.6-.053,1.193-.133,1.787-.218.477-.068.955-.143,1.424-.249.7-.158,1.405-.336,2.1-.524a11.34,11.34,0,0,0,2.029-.758,4.982,4.982,0,0,0,1.551-1.092,1.918,1.918,0,0,0,.549-1.408c-.04-.929-.053-1.862-.143-2.787a8.711,8.711,0,0,0-.568-2.491,3.059,3.059,0,0,0-2.07-1.907c-.725-.2-1.464-.356-2.2-.5a11.173,11.173,0,0,1-4.4-1.828l-.405-.288" transform="translate(0 -155.919)" fill="#2e3336"/>
          <path id="Path_11228" data-name="Path 11228" d="M73.572,0a7.113,7.113,0,0,0-3.779.918q-.634.374-1.248.781a3.948,3.948,0,0,0-1.493,2,8.961,8.961,0,0,0-.51,2.436c-.041.534-.091,1.067-.14,1.6a.21.21,0,0,1-.059.138,1.163,1.163,0,0,0-.424.848,4.859,4.859,0,0,0,.421,2.656,1.744,1.744,0,0,0,.64.785.492.492,0,0,1,.15.236A11.879,11.879,0,0,0,69.3,16.015a6.853,6.853,0,0,0,2.445,1.832,4.191,4.191,0,0,0,3.843-.246,8.244,8.244,0,0,0,2.719-2.576,12.239,12.239,0,0,0,1.389-2.62.473.473,0,0,1,.244-.28,1.427,1.427,0,0,0,.588-.708,4.884,4.884,0,0,0,.448-2.625,2.708,2.708,0,0,0-.218-.683.494.494,0,0,0-.2-.217.228.228,0,0,1-.123-.218c-.048-.744-.072-1.492-.167-2.23a7.05,7.05,0,0,0-.621-2.191,3.773,3.773,0,0,0-1.853-1.865,1.761,1.761,0,0,1-.3-.188A5.485,5.485,0,0,0,76.126.468,7.164,7.164,0,0,0,73.572,0" transform="translate(-58.915 0)" fill="#2e3336"/>
        </g>
      </g>
    </g>
  </g>
</svg>
