<svg id="Group_16467" data-name="Group 16467" xmlns="http://www.w3.org/2000/svg" xmlns:xlink="http://www.w3.org/1999/xlink" width="56.819" height="55.422" viewBox="0 0 56.819 55.422">
  <defs>
    <clipPath id="clip-path">
      <rect id="Rectangle_2414" data-name="Rectangle 2414" width="56.819" height="55.422" fill="#449994"/>
    </clipPath>
  </defs>
  <g id="Group_16466" data-name="Group 16466" clip-path="url(#clip-path)">
    <path id="Path_11487" data-name="Path 11487" d="M13.034,17.356l-2.538,2.5L7.061,23.242c-.4.392-.688.387-1.082-.012L.335,17.506c-.447-.453-.446-.709,0-1.153Q6.979,9.8,13.619,3.25a2.519,2.519,0,0,1,1.273-.694Q20.753,1.3,26.612.038a1.24,1.24,0,0,1,1.27.4c.194.215.408.413.609.622a.633.633,0,0,1-.01,1.06Q26.265,4.31,24.046,6.5L20.133,10.35c-.063.062-.119.13-.208.228.331.338.653.671.979,1L31.136,21.951,41.367,32.325,54.981,46.136c.321.326.647.648.965.977a.6.6,0,0,1,0,.939Q53,50.973,50.034,53.885c-.325.32-.632.3-.985-.059q-3.4-3.443-6.8-6.89l-12.7-12.878Q22.07,26.473,14.592,18.889c-.5-.507-1.016-1-1.558-1.533" transform="translate(0 0)" fill="#449994"/>
    <path id="Path_11488" data-name="Path 11488" d="M30.774,99.186c-1.35,1.391-2.661,2.747-3.98,4.1-.569.583-1.144,1.161-1.739,1.718a.5.5,0,0,0-.137.608,10.762,10.762,0,0,1-13.327,13.62,1.573,1.573,0,0,1-.307-.17,1.944,1.944,0,0,1,.2-.28c1.12-1.106,2.245-2.205,3.364-3.312,1.31-1.3,2.628-2.583,3.913-3.9a2.664,2.664,0,0,0,.57-.993,1.2,1.2,0,0,0-.345-1.26q-2.342-2.37-4.693-4.732a1.517,1.517,0,0,0-2.166.146c-1.093,1.07-2.175,2.15-3.262,3.227L5.086,111.7c-.087.087-.165.184-.258.263s-.219.161-.329.241a1.981,1.981,0,0,1-.182-.376,10.408,10.408,0,0,1,2.964-10.7,10.407,10.407,0,0,1,10.84-2.411.465.465,0,0,0,.55-.125c1.793-1.791,3.6-3.571,5.393-5.359a4.316,4.316,0,0,0,.363-.483l6.347,6.437" transform="translate(-2.71 -64.259)" fill="#449994"/>
    <path id="Path_11489" data-name="Path 11489" d="M106.491,26.364l-6.36-6.452c.412-.4.8-.777,1.191-1.16,1.254-1.24,2.5-2.485,3.763-3.719a.409.409,0,0,0,.122-.492A10.759,10.759,0,0,1,114.255.457a10.583,10.583,0,0,1,4.272.4,1.262,1.262,0,0,1,.291.185,2.392,2.392,0,0,1-.194.25q-1.572,1.553-3.148,3.1c-1.389,1.373-2.782,2.743-4.157,4.131a2.324,2.324,0,0,0-.514.806,1.347,1.347,0,0,0,.366,1.5q2.233,2.242,4.458,4.493a1.529,1.529,0,0,0,2.355.011q2.174-2.136,4.331-4.288,1.543-1.534,3.075-3.081c.229-.23.3-.055.354.138a10.539,10.539,0,0,1,.42,3.775,10.726,10.726,0,0,1-7.552,9.565,10.522,10.522,0,0,1-6.586-.069.529.529,0,0,0-.637.146c-1.544,1.55-3.1,3.087-4.655,4.627-.07.069-.146.131-.244.218" transform="translate(-69.374 -0.271)" fill="#449994"/>
  </g>
</svg>
