<svg id="Group_16445" data-name="Group 16445" xmlns="http://www.w3.org/2000/svg" xmlns:xlink="http://www.w3.org/1999/xlink" width="61.632" height="66.847" viewBox="0 0 61.632 66.847">
  <defs>
    <clipPath id="clip-path">
      <rect id="Rectangle_2408" data-name="Rectangle 2408" width="61.632" height="66.847" fill="#449994"/>
    </clipPath>
  </defs>
  <g id="Group_16444" data-name="Group 16444" clip-path="url(#clip-path)">
    <path id="Path_11458" data-name="Path 11458" d="M24.48,62.926h3.962c0-.812,0-1.6,0-2.4q0-17.874-.006-35.749c0-.621-.036-1.241-.025-1.862.005-.282-.092-.34-.356-.34q-6.6.009-13.2,0c-.779,0-.619.037-.619-.621q0-6.094,0-12.189c0-.494,0-.492.486-.63q6.779-1.9,13.558-3.8c3-.844,6-1.7,9-2.543q4.849-1.361,9.7-2.7C47.1.057,47.216.035,47.37,0V62.924h3.963V14.868h6.179V62.924h4.12v3.923H0V62.963H8.057c0-.519,0-1,0-1.487q-.006-7.614-.012-15.227Q8.034,36.575,8.013,26.9c0-.308.071-.413.394-.413q7.693.015,15.386.009c.675,0,.677.006.676.69q0,17.744-.009,35.488c0,.074.012.148.02.249M39.792,32.641c-1.254,0-2.449,0-3.645,0-.234,0-.351.068-.323.315a1.476,1.476,0,0,1-.008.163q.011,3.623.02,7.246c0,.195.075.24.25.239q1.73-.007,3.459,0c.194,0,.264-.058.263-.263q-.016-3.46-.017-6.92c0-.247,0-.494,0-.777m-21.553.023c-1.3,0-2.513,0-3.729,0-.25,0-.235.146-.235.324,0,2.427,0,4.855-.009,7.281,0,.26.069.34.327.336q1.664-.021,3.33-.008c.23,0,.294-.066.294-.3,0-1.546.015-3.091.022-4.637,0-.978,0-1.955,0-3m17.6-14.391c-.008.153-.022.291-.022.429.005,2.407.015,4.813.014,7.219,0,.23.093.264.294.263,1.153-.009,2.307-.006,3.461-.008a1.452,1.452,0,0,0,.171-.017V18.273Zm3.95,28.818c-1.286,0-2.5,0-3.722,0-.221,0-.243.1-.243.28q0,3.233,0,6.466v1.16c1.3,0,2.549,0,3.8-.012.062,0,.175-.17.175-.261.005-2.286,0-4.572-.006-6.858,0-.248,0-.5,0-.771m-21.554.023c-1.266,0-2.45.008-3.634-.006-.253,0-.331.045-.33.318q.017,3.641,0,7.283c0,.246.093.289.305.287,1.121-.009,2.242-.013,3.363-.005.217,0,.272-.061.272-.278,0-1.524.018-3.048.025-4.572,0-1,0-2,0-3.026" fill="#449994"/>
  </g>
</svg>
