<svg id="Group_16465" data-name="Group 16465" xmlns="http://www.w3.org/2000/svg" xmlns:xlink="http://www.w3.org/1999/xlink" width="70.916" height="85.622" viewBox="0 0 70.916 85.622">
  <defs>
    <clipPath id="clip-path">
      <rect id="Rectangle_2413" data-name="Rectangle 2413" width="70.916" height="85.622" fill="#449994"/>
    </clipPath>
  </defs>
  <g id="Group_16464" data-name="Group 16464" clip-path="url(#clip-path)">
    <path id="Path_11482" data-name="Path 11482" d="M27.741,125.546c.05-.37.115-.738.148-1.109.15-1.639.316-3.277.424-4.919a3.683,3.683,0,0,0-.78-2.511,3.079,3.079,0,0,1-.626-2.8,1.575,1.575,0,0,1,1.593-1.28q2.305-.038,4.612.008a1.683,1.683,0,0,1,1.545,1.766,2.831,2.831,0,0,1-.525,2,5.154,5.154,0,0,0-.986,3.9c.148,1.606.385,3.205.587,4.807.005.039.052.073.1.142a1.119,1.119,0,0,0,.161-.228q1.871-5.237,3.734-10.476c.268-.752.538-1.5.776-2.266.1-.327.254-.5.611-.44a20.417,20.417,0,0,1,2.164.357c3.589,1,7.166,2.031,10.749,3.049,1.215.346,2.441.653,3.645,1.03a4.458,4.458,0,0,1,3.195,3.833c.23,1.417.357,2.85.539,4.352-.36-.261-.687-.5-1.014-.736a4.565,4.565,0,0,0-5.619.049q-6.633,5.082-13.245,10.193a3.978,3.978,0,0,0-1.781,3.388,3.841,3.841,0,0,0,1.973,3.36.734.734,0,0,1,.424.722q-.013,5.093,0,10.187c0,.25-.034.427-.323.494-2.848.663-5.684,1.381-8.546,1.971a5.37,5.37,0,0,1-2.265-.194C23.306,152.8,17.6,151.352,11.9,149.918c-2.542-.639-5.087-1.265-7.622-1.932a6.5,6.5,0,0,1-3.141-1.661A3.768,3.768,0,0,1,0,143.552c.048-1.515.231-3.027.391-4.537.231-2.18.493-4.356.743-6.533q.464-4.053.929-8.105c.161-1.4.3-2.8.5-4.193a4.1,4.1,0,0,1,3.263-3.591c4.482-1.243,8.957-2.511,13.435-3.77a13.913,13.913,0,0,1,1.568-.44,19.675,19.675,0,0,1,2.373-.212.672.672,0,0,1,.487.4c1.17,3.854,2.317,7.714,3.468,11.573q.211.709.42,1.418l.166-.014" transform="translate(0 -68.83)" fill="#449994"/>
    <path id="Path_11484" data-name="Path 11484" d="M126.827,152.157V150.12h2.654c1.274,0,1.269,0,1.26,1.281-.007.961.039,1.924-.009,2.882a1.663,1.663,0,0,0,.795,1.526q1.561,1.16,3.073,2.384a1.347,1.347,0,0,1,.409,1.795,1.536,1.536,0,0,1-1.816.7,9.908,9.908,0,0,1-2.013-1.177c-3.433-2.625-6.839-5.286-10.257-7.93-.981-.759-1.063-.755-2.025-.013q-5.57,4.3-11.138,8.6a1.884,1.884,0,0,1-2.613.07,1.291,1.291,0,0,1-.048-1.884,7.394,7.394,0,0,1,.8-.691q6.108-4.7,12.221-9.395c.1-.078.2-.158.3-.234,1.191-.889,1.818-.887,3.007.027q2.38,1.828,4.754,3.665c.173.133.361.246.642.436" transform="translate(-64.277 -90.458)" fill="#449994"/>
    <path id="Path_11485" data-name="Path 11485" d="M136.415,178.163c0,1.954.006,3.908,0,5.862a.962.962,0,0,1-.762.979,1,1,0,0,1-1.113-.465,1.606,1.606,0,0,1-.153-.733c-.01-3.219-.034-6.438.009-9.657a1.931,1.931,0,0,0-.893-1.766c-3-2.155-5.989-4.337-8.983-6.507a1.207,1.207,0,0,0-1.776-.01q-4.617,3.326-9.23,6.656a1.6,1.6,0,0,0-.658,1.451c.014,3.3.006,6.6,0,9.9a1.023,1.023,0,0,1-1.292,1.115.982.982,0,0,1-.768-1.072c-.01-.929,0-1.858,0-2.787,0-2.835.007-5.67-.01-8.505a1.146,1.146,0,0,1,.557-1.056c3.391-2.44,6.761-4.91,10.135-7.374q.911-.666,1.808-1.349a.459.459,0,0,1,.639,0c3.953,2.891,7.9,5.786,11.885,8.639a1.316,1.316,0,0,1,.628,1.254c-.028,1.81-.01,3.62-.01,5.43Z" transform="translate(-68.002 -99.877)" fill="#449994"/>
    <path id="Path_11486" data-name="Path 11486" d="M74.634,9.656a3.928,3.928,0,0,1,.933,2.611,3.3,3.3,0,0,1-.119.777,16.164,16.164,0,0,0-.85,5.2,19.7,19.7,0,0,1-1.413,6.5,22.826,22.826,0,0,1-7.857,10.6,8.071,8.071,0,0,1-9.9.23,23.15,23.15,0,0,1-7.465-9.048,20.527,20.527,0,0,1-1.792-6.267c-.193-1.608-.586-3.192-.789-4.8A23.849,23.849,0,0,1,45.609,7.1,6.946,6.946,0,0,1,50.1,2.029,30.239,30.239,0,0,1,53.4,1.1c.415-.114.629.048.739.457a3.529,3.529,0,0,0,.369.894.565.565,0,0,0,.9.2Q56.578,1.9,57.782,1.2A9.647,9.647,0,0,1,63.838.075,9.2,9.2,0,0,1,69.955,3.7c.352.413.712.819,1.074,1.223a3.942,3.942,0,0,0,4.056,1.224c.121-.026.242-.056.364-.076.455-.075.7.086.626.535A6.019,6.019,0,0,1,75.6,8.23a10.992,10.992,0,0,1-.963,1.425M71.11,18.268c-1.931-.617-3.726-1.156-5.5-1.764-3.236-1.111-6.485-2.192-9.676-3.421A5.187,5.187,0,0,0,49.8,14.937a1.361,1.361,0,0,0-.292.665,18.026,18.026,0,0,0,1.614,9.549,20.005,20.005,0,0,0,6.248,7.559,4.7,4.7,0,0,0,3.893.778,6.118,6.118,0,0,0,2.614-1.444,18.778,18.778,0,0,0,6.752-11.021c.19-.918.327-1.847.485-2.756" transform="translate(-29.851 0.743)" fill="#449994"/>
  </g>
</svg>
