<svg id="Group_16058" data-name="Group 16058" xmlns="http://www.w3.org/2000/svg" xmlns:xlink="http://www.w3.org/1999/xlink" width="26.61" height="25.743" viewBox="0 0 26.61 25.743">
  <defs>
    <clipPath id="clip-path">
      <rect id="Rectangle_2321" data-name="Rectangle 2321" width="26.61" height="25.743" fill="#449994"/>
    </clipPath>
  </defs>
  <g id="Group_16057" data-name="Group 16057" transform="translate(0)" clip-path="url(#clip-path)">
    <path id="Path_11305" data-name="Path 11305" d="M53.558,25.731a2.774,2.774,0,0,1-1.8-1.64,3.514,3.514,0,0,1-.205-1.191q-.018-10.751-.013-21.5a1.815,1.815,0,0,0-.106-.7A1.139,1.139,0,0,0,50.3,0h-18a1.182,1.182,0,0,0-1.36,1.345q0,10.837,0,21.673a2.6,2.6,0,0,0,2.653,2.717q9.9.019,19.8.006c.056,0,.112-.007.167-.01M49.46,5.818h0c0,.658,0,1.315,0,1.973a1.619,1.619,0,0,1-1.592,1.656q-2.041.036-4.082,0A1.631,1.631,0,0,1,42.177,7.8q-.014-1.99,0-3.98A1.642,1.642,0,0,1,43.81,2.162q2.024-.028,4.048,0a1.629,1.629,0,0,1,1.6,1.649c.006.669,0,1.338,0,2.007m-8.211,9.714v0q-3.757,0-7.514,0c-.44,0-.7-.235-.7-.612a.618.618,0,0,1,.7-.617q7.515,0,15.03,0a.614.614,0,0,1,.692.62c0,.38-.253.609-.7.61q-3.757,0-7.514,0m0-4.252h6.256c.453,0,.907-.006,1.36,0a.567.567,0,0,1,.592.533.584.584,0,0,1-.5.663,1.87,1.87,0,0,1-.372.023q-7.344,0-14.688,0a1.42,1.42,0,0,1-.5-.066.6.6,0,0,1,.163-1.148c.112-.011.226-.007.34-.007h7.344m.033,7.291H33.906a2.947,2.947,0,0,1-.306-.005.61.61,0,0,1,0-1.216c.112-.011.226,0,.34,0l11.966-.006c.963,0,1.926,0,2.889.009a.594.594,0,0,1,.662.676c-.03.356-.289.547-.761.547q-3.706,0-7.413,0m0,3.03H33.9a1.778,1.778,0,0,1-.406-.026.547.547,0,0,1-.457-.589.541.541,0,0,1,.476-.572,2.2,2.2,0,0,1,.407-.019H48.584a2.649,2.649,0,0,1,.373.014.533.533,0,0,1,.5.547c.025.43-.219.644-.758.645q-3.709,0-7.417,0m-5-18.209c-.839,0-1.678,0-2.518,0-.46,0-.732-.237-.733-.621s.265-.614.733-.614q2.483,0,4.967,0c.464,0,.75.229.761.6s-.294.636-.761.638c-.816,0-1.633,0-2.449,0M36.26,6.409c-.839,0-1.678,0-2.516,0-.451,0-.7-.219-.708-.6a.619.619,0,0,1,.695-.627q2.533-.009,5.067,0a.643.643,0,0,1,.7.63c-.008.361-.286.592-.722.593-.839,0-1.678,0-2.516,0m.022,3.046c-.861,0-1.723,0-2.584,0a.61.61,0,1,1,.011-1.215c1.7,0,3.4-.007,5.1.007a.691.691,0,0,1,.5.2.877.877,0,0,1,.122.616.545.545,0,0,1-.6.395h-2.55" transform="translate(-30.936 0)" fill="#449994"/>
    <path id="Path_11306" data-name="Path 11306" d="M.014,37.734c0,.1-.012.186-.012.275q0,8.707,0,17.414a2.652,2.652,0,0,0,4.846,1.5,2.447,2.447,0,0,0,.455-1.4q0-8.316,0-16.632a1.127,1.127,0,0,0-1.138-1.189C2.827,37.685,1.489,37.7.151,37.7a.644.644,0,0,0-.138.033" transform="translate(21.305 -32.836)" fill="#449994"/>
  </g>
</svg>
