<svg id="Group_15923" data-name="Group 15923" xmlns="http://www.w3.org/2000/svg" xmlns:xlink="http://www.w3.org/1999/xlink" width="37" height="33.701" viewBox="0 0 37 33.701">
  <defs>
    <clipPath id="clip-path">
      <rect id="Rectangle_2285" data-name="Rectangle 2285" width="37" height="33.701" fill="#408e9f"/>
    </clipPath>
  </defs>
  <g id="Group_15922" data-name="Group 15922" clip-path="url(#clip-path)">
    <path id="Path_11251" data-name="Path 11251" d="M21.055,52.567h.217l11.642.006c1.306,0,2.611,0,3.917.008,1.435.008,2.87.03,4.305.037,1.653.008,3.305,0,4.958.007.088,0,.154.006.154-.126.007-2.305.023-4.61.031-6.915.009-2.874.012-5.749.021-8.624a.378.378,0,0,0-.15-.33q-1.7-1.392-3.394-2.794-1.652-1.366-3.3-2.74-1.792-1.49-3.583-2.98-1.085-.9-2.166-1.812a.188.188,0,0,0-.291.007c-.537.455-1.08.9-1.624,1.35q-.905.744-1.816,1.482c-.417.34-.836.679-1.251,1.021-.3.25-.6.507-.9.759q-.979.814-1.96,1.626-.9.749-1.805,1.5-1.306,1.077-2.615,2.151c-.384.314-.388.31-.388.807V52.567Zm11.892-5.195c.126-.137.219-.245.321-.346.085-.084.111-.147-.027-.2-.091-.036-.175-.089-.265-.127-.182-.077-.19-.093-.081-.25.05-.072.1-.141.156-.213.139-.2.138-.2-.025-.363a2.108,2.108,0,0,1-.208-.23.4.4,0,0,1-.074-.192c-.038-.579-.062-1.158-.107-1.736a.936.936,0,0,0-.125-.391c-.118-.2-.27-.379-.4-.572a.971.971,0,0,0-.374-.329A4.193,4.193,0,0,1,29.642,37.6a3.986,3.986,0,0,1,3-2.89,3.723,3.723,0,0,1,1.616-.091,4.222,4.222,0,0,1,3.333,2.744,4.182,4.182,0,0,1,.225,1.773,3.783,3.783,0,0,1-1.431,2.772,3.567,3.567,0,0,0-1.043,1.177,1.093,1.093,0,0,0-.136.571c.054.951.1,1.9.149,2.854.051,1,.1,2.007.155,3.01a.234.234,0,0,1-.113.231c-.262.185-.523.372-.779.565-.325.245-.32.243-.657.005-.256-.181-.522-.349-.784-.523l-.05-.056a.6.6,0,0,0,.142-.067c.183-.153.364-.308.54-.468.115-.1.106-.146-.018-.241-.173-.132-.343-.268-.514-.4L33,48.342l.61-.7-.662-.27" transform="translate(-15.17 -18.923)" fill="#408e9f"/>
    <path id="Path_11252" data-name="Path 11252" d="M18.475,0c-.119,0-.238,0-.357,0A1.987,1.987,0,0,0,16.8.516c-1.627,1.332-3.246,2.673-4.872,4.006-.82.673-1.649,1.336-2.47,2.008-.58.476-1.151.963-1.73,1.441S6.569,8.923,5.989,9.4q-1.362,1.119-2.723,2.239c-.821.673-1.648,1.338-2.464,2.016A2.009,2.009,0,0,0,.075,15.82a1.968,1.968,0,0,0,1.649,1.449,2.205,2.205,0,0,0,1.829-.582q1.5-1.246,3-2.489c1.067-.879,2.14-1.752,3.208-2.629q1.866-1.534,3.731-3.07c.993-.814,1.993-1.62,2.986-2.434q.937-.768,1.862-1.552a.2.2,0,0,1,.305-.007q2.715,2.24,5.435,4.473,1.866,1.534,3.734,3.067,2.266,1.868,4.528,3.74c.431.356.862.713,1.3,1.058a2.04,2.04,0,0,0,3.239-.93,1.963,1.963,0,0,0-.666-2.235q-1.369-1.136-2.743-2.266c-.861-.706-1.728-1.4-2.589-2.11-.684-.561-1.363-1.129-2.046-1.693q-1.648-1.359-3.3-2.716-2.017-1.657-4.036-3.31c-.444-.364-.892-.726-1.333-1.093A2.073,2.073,0,0,0,18.646.005c-.057,0-.114,0-.171,0V0" transform="translate(0 0)" fill="#408e9f"/>
    <path id="Path_11253" data-name="Path 11253" d="M61.507,63.879A1.9,1.9,0,0,0,63.38,62.02a1.912,1.912,0,1,0-1.873,1.859" transform="translate(-42.986 -43.316)" fill="#408e9f"/>
  </g>
</svg>
