<svg id="Group_16297" data-name="Group 16297" xmlns="http://www.w3.org/2000/svg" xmlns:xlink="http://www.w3.org/1999/xlink" width="40" height="40" viewBox="0 0 40 40">
  <defs>
    <clipPath id="clip-path">
      <rect id="Rectangle_2285" data-name="Rectangle 2285" width="23.669" height="21.559" fill="#fff"/>
    </clipPath>
  </defs>
  <path id="Path_11435" data-name="Path 11435" d="M20,0A20,20,0,1,1,0,20,20,20,0,0,1,20,0Z" fill="#41bb95"/>
  <g id="Group_15923" data-name="Group 15923" transform="translate(8.665 7.22)">
    <g id="Group_15922" data-name="Group 15922" clip-path="url(#clip-path)">
      <path id="Path_11251" data-name="Path 11251" d="M21.055,43.081h.139l7.448,0c.835,0,1.67,0,2.506,0,.918.005,1.836.019,2.754.024,1.057,0,2.114,0,3.171,0,.056,0,.1,0,.1-.081,0-1.475.015-2.949.02-4.424.006-1.839.007-3.678.014-5.517a.242.242,0,0,0-.1-.211q-1.088-.89-2.171-1.787-1.057-.874-2.11-1.753l-2.292-1.906q-.694-.578-1.386-1.159a.12.12,0,0,0-.186,0c-.344.291-.691.578-1.039.864q-.579.476-1.161.948c-.267.218-.535.434-.8.653-.194.16-.385.324-.578.485l-1.254,1.04q-.577.479-1.155.958-.835.689-1.673,1.376c-.246.2-.248.2-.248.517v9.956Zm7.608-3.323c.08-.087.14-.157.205-.222s.071-.094-.017-.129c-.058-.023-.112-.057-.17-.081-.117-.049-.121-.06-.052-.16.032-.046.067-.09.1-.136.089-.125.088-.125-.016-.232a1.347,1.347,0,0,1-.133-.147.253.253,0,0,1-.048-.123c-.024-.37-.04-.741-.068-1.111a.6.6,0,0,0-.08-.25c-.076-.128-.173-.243-.256-.366a.621.621,0,0,0-.239-.211,2.682,2.682,0,0,1-1.34-3.085,2.55,2.55,0,0,1,1.92-1.849A2.381,2.381,0,0,1,29.5,31.6a2.7,2.7,0,0,1,2.132,1.755,2.675,2.675,0,0,1,.144,1.134,2.42,2.42,0,0,1-.916,1.773,2.282,2.282,0,0,0-.667.753.7.7,0,0,0-.087.365c.035.608.065,1.217.1,1.825.033.642.063,1.284.1,1.925a.149.149,0,0,1-.072.148c-.168.118-.335.238-.5.362-.208.157-.2.156-.42,0-.164-.116-.334-.223-.5-.335l-.032-.036a.386.386,0,0,0,.091-.043c.117-.1.233-.2.345-.3.074-.067.068-.094-.012-.154-.111-.084-.219-.171-.329-.257l-.179-.14.39-.447-.424-.173" transform="translate(-17.29 -21.558)" fill="#fff"/>
      <path id="Path_11252" data-name="Path 11252" d="M11.819,0c-.076,0-.152,0-.229,0a1.271,1.271,0,0,0-.842.329c-1.041.852-2.077,1.71-3.116,2.563-.525.431-1.055.854-1.58,1.285-.371.3-.737.616-1.107.922s-.743.608-1.114.913q-.871.716-1.742,1.432c-.525.431-1.054.856-1.576,1.29A1.285,1.285,0,0,0,.048,10.12a1.259,1.259,0,0,0,1.055.927,1.411,1.411,0,0,0,1.17-.372q.959-.8,1.92-1.592C4.876,8.52,5.562,7.962,6.245,7.4q1.194-.981,2.387-1.964c.635-.521,1.275-1.036,1.91-1.557q.6-.491,1.191-.993a.127.127,0,0,1,.2,0q1.737,1.433,3.477,2.861,1.194.981,2.389,1.962,1.45,1.195,2.9,2.393c.276.228.551.456.833.676A1.305,1.305,0,0,0,23.6,10.18a1.256,1.256,0,0,0-.426-1.43q-.876-.727-1.754-1.449c-.551-.452-1.105-.9-1.656-1.35-.438-.359-.872-.723-1.309-1.083Q17.4,4,16.341,3.131q-1.29-1.06-2.582-2.118c-.284-.233-.57-.464-.853-.7A1.326,1.326,0,0,0,11.928,0c-.036,0-.073,0-.109,0V0" transform="translate(0 0.001)" fill="#fff"/>
      <path id="Path_11253" data-name="Path 11253" d="M60.806,62.5A1.213,1.213,0,0,0,62,61.314a1.223,1.223,0,1,0-1.2,1.189" transform="translate(-48.957 -49.35)" fill="#fff"/>
    </g>
  </g>
</svg>
