<svg xmlns="http://www.w3.org/2000/svg" xmlns:xlink="http://www.w3.org/1999/xlink" width="50.699" height="40.648" viewBox="0 0 50.699 40.648">
  <defs>
    <clipPath id="clip-path">
      <rect id="Rectangle_2350" data-name="Rectangle 2350" width="50.699" height="40.648" fill="#449994"/>
    </clipPath>
  </defs>
  <g id="Group_16132" data-name="Group 16132" clip-path="url(#clip-path)">
    <path id="Path_11346" data-name="Path 11346" d="M35.347,10.865a14.007,14.007,0,0,0-8.275,3.768A16.319,16.319,0,0,0,23.5,19.014a14.362,14.362,0,0,0-1.746,5.678,18.743,18.743,0,0,0,.976,8.273,13.621,13.621,0,0,0,5.161,6.575c.511.351,1.049.663,1.574.994.049.03.093.069.147.109H28.68l-22.475.005c-.173,0-.347,0-.52-.015A1.525,1.525,0,0,1,4.2,39.05q0-9.173,0-18.347v-.44c-.188.145-.325.26-.471.363A2.318,2.318,0,0,1,.147,19.51a2.189,2.189,0,0,1,.641-2.475c.478-.443.985-.855,1.482-1.277Q6.036,12.566,9.8,9.376,14.926,5.042,20.05.71A2.283,2.283,0,0,1,22.3.1a3.4,3.4,0,0,1,1.1.63c1.493,1.233,2.961,2.494,4.44,3.744q3.63,3.069,7.261,6.137c.08.068.146.151.247.256M17.393,23.244H12.784v4.621h4.609Z" transform="translate(0 0)" fill="#2e3336"/>
    <path id="Path_11347" data-name="Path 11347" d="M98.624,67.037a13.23,13.23,0,1,1,13.253,13.255A13.284,13.284,0,0,1,98.624,67.037m12.346-.846.087-.015a1.42,1.42,0,0,1-.111.142l-5.9,5.9a8.208,8.208,0,0,0-.613.639,1.131,1.131,0,0,0,.077,1.552,1.113,1.113,0,0,0,1.57.073c.256-.216.488-.463.723-.7.467-.477.929-.959,1.395-1.442.427.422.783.818,1.187,1.157a2.231,2.231,0,0,0,.84.456,1.05,1.05,0,0,0,1.1-.55,1.141,1.141,0,0,0-.128-1.361c-.353-.394-.737-.76-1.106-1.141-.067-.069-.124-.148-.18-.216.889-.89,1.755-1.752,2.614-2.62.135-.136.236-.2.442-.093a4.493,4.493,0,0,0,6.557-4.054,4.37,4.37,0,0,0-2.787-4.186,4.543,4.543,0,0,0-6.263,4.688,11.449,11.449,0,0,0,.5,1.774" transform="translate(-74.385 -40.606)" fill="#449994"/>
    <path id="Path_11348" data-name="Path 11348" d="M17.09,25.1V23.3q0-2.2,0-4.4a1.692,1.692,0,0,1,1.595-1.726c1.241-.042,2.485-.041,3.725,0A1.734,1.734,0,0,1,23.974,19.2a.757.757,0,0,1-.292.4c-1.325,1.114-2.66,2.217-3.989,3.326-.813.679-1.621,1.363-2.431,2.045-.037.031-.079.056-.173.122" transform="translate(-12.889 -12.926)" fill="#2e3336"/>
    <path id="Path_11349" data-name="Path 11349" d="M156.295,87.992a2.2,2.2,0,0,1,2.2-2.219,2.256,2.256,0,0,1,2.241,2.264,2.193,2.193,0,0,1-2.285,2.138,2.163,2.163,0,0,1-2.16-2.184" transform="translate(-117.882 -64.694)" fill="#449994"/>
  </g>
</svg>
