<svg id="Group_16130" data-name="Group 16130" xmlns="http://www.w3.org/2000/svg" xmlns:xlink="http://www.w3.org/1999/xlink" width="51.632" height="65.379" viewBox="0 0 51.632 65.379">
  <defs>
    <clipPath id="clip-path">
      <rect id="Rectangle_2348" data-name="Rectangle 2348" width="51.632" height="65.379" fill="#1b3356"/>
    </clipPath>
  </defs>
  <g id="Group_16129" data-name="Group 16129" clip-path="url(#clip-path)">
    <path id="Path_11343" data-name="Path 11343" d="M42.162,32.491c0-2.379.021-4.758-.006-7.137a2.889,2.889,0,0,0-1.412-2.431,3.4,3.4,0,0,0-1.99-.444c-.165,0-.276-.011-.28-.232-.024-1.411-.109-2.823-.084-4.232a18.406,18.406,0,0,0-.856-6.005c-.227-.708-.6-1.369-.88-2.061a10.007,10.007,0,0,0-1.346-2.381,29.18,29.18,0,0,0-1.866-2.326A16.726,16.726,0,0,0,26.586.909,15.687,15.687,0,0,0,22.2.021a16.869,16.869,0,0,0-6.242.774,19.494,19.494,0,0,0-3.786,1.711,16.79,16.79,0,0,0-4.9,4.487,15.49,15.49,0,0,0-1.946,3.373c-.105.261-.173.537-.281.8-.127.3-.292.595-.414.9-.033.082.031.2.05.305-.07.27-.241.531-.325.817a12.94,12.94,0,0,0-.548,3.525c-.017,1.707-.008,3.414-.01,5.122,0,.206,0,.412,0,.676-.328,0-.612,0-.9,0A3,3,0,0,0,0,25.463c.037,1.3.011,2.606.01,3.909Q.007,35.32,0,41.268c0,.64.012,1.281.012,1.921,0,3.267-.016,6.535.01,9.8A3.091,3.091,0,0,0,2.969,55.9c5.516-.012,11.032,0,16.548,0q5.729,0,11.458,0c.086,0,.172-.009.252-.013A10.965,10.965,0,0,1,34.466,48.2a10.56,10.56,0,0,1,7.7-3.172v-.365q0-6.085,0-12.171M10.85,16.424a8.807,8.807,0,0,1,1.1-3.925A10.259,10.259,0,0,1,24.195,7.466a10.29,10.29,0,0,1,4.074,2.478,9.868,9.868,0,0,1,2.684,4.522,11.881,11.881,0,0,1,.379,3.192q-.009,2.221,0,4.441c0,.278-.054.392-.374.39-3.3-.013-6.61-.008-9.914-.008v0q-5,0-10,0c-.2,0-.261-.069-.259-.257.02-1.934,0-3.868.063-5.8M38.072,41.761a4.511,4.511,0,0,1-3.99,2.185c-6,.024-12,.013-18,.014-2.486,0-4.973.011-7.459-.008a9.944,9.944,0,0,1-1.7-.178A4.219,4.219,0,0,1,4.332,42.09,4.507,4.507,0,0,1,3.8,37.157,4.571,4.571,0,0,1,8.2,34.4c4.282-.021,8.564-.006,12.847-.006v0c4.341,0,8.683-.041,13.024.018a4.765,4.765,0,0,1,4,7.342" transform="translate(0 0.001)" fill="#1b3356"/>
    <path id="Path_11344" data-name="Path 11344" d="M146.958,214.246a9.477,9.477,0,1,1,9.489-9.25,9.491,9.491,0,0,1-9.489,9.25m-.074-16.135-.059-.013c-.039.182-.08.364-.116.546a.435.435,0,0,1-.459.395,4.135,4.135,0,0,0-1.181.246,6.118,6.118,0,0,0-3.282,2.891,5.834,5.834,0,0,0-.422,4.009c.1.445.1.442-.291.62a1.229,1.229,0,0,0-.227.138c-.214.16-.241.326-.034.482.669.5,1.345,1,2.034,1.478.27.187.493.074.524-.251q.117-1.221.2-2.445c.02-.319-.114-.4-.428-.312-.184.053-.363.12-.561.186-.019-.09-.029-.137-.037-.184s-.011-.1-.02-.146a4.428,4.428,0,0,1,.429-3.091,4.6,4.6,0,0,1,3.241-2.394,8.415,8.415,0,0,1,1.619-.025.523.523,0,0,0,.6-.592c0-.366-.212-.584-.649-.616-.32-.023-.643,0-1.015,0l.132-.916m4.434,5.348a4.92,4.92,0,0,1,.151.49,4.66,4.66,0,0,1-3.536,5.313,11.886,11.886,0,0,1-1.7.07,1.194,1.194,0,0,0-.552.136.487.487,0,0,0-.173.606.647.647,0,0,0,.6.443,5.831,5.831,0,0,0,6.5-7.123c-.111-.464-.11-.464.309-.669.345-.168.423-.429.151-.638-.648-.5-1.315-.974-1.986-1.441-.212-.147-.4-.049-.465.205a3.834,3.834,0,0,0-.051.41c-.085.675-.179,1.348-.253,2.024-.038.349.162.5.494.388.158-.052.308-.127.517-.214" transform="translate(-104.818 -148.869)" fill="#449994"/>
    <path id="Path_11345" data-name="Path 11345" d="M36.123,150.57q4.9,0,9.8,0c.937,0,1.874-.031,2.811-.025a3.77,3.77,0,0,1,2.335.609,3.352,3.352,0,0,1-.3,5.743,4.024,4.024,0,0,1-2.108.437q-8.613-.009-17.225,0c-2.723,0-5.448-.069-8.168.024a3.534,3.534,0,0,1-3.425-4.046,3.26,3.26,0,0,1,3-2.708c1.071-.069,2.148-.044,3.223-.047q4.513-.012,9.026-.013h1.036v.029m9.482,2.413c-.1-.074-.178-.118-.242-.174-.222-.194-.467-.208-.624-.032a.432.432,0,0,0,.074.631,3.727,3.727,0,0,0,.43.361c.186.131.168.23,0,.359a4.024,4.024,0,0,0-.485.432.372.372,0,0,0,0,.556.4.4,0,0,0,.563.041c.092-.067.177-.143.278-.226.1.3-.026.714.441.752.577.048.445-.439.522-.781.111.089.184.154.264.211a.455.455,0,0,0,.617-.018.441.441,0,0,0-.067-.61c-.109-.114-.236-.21-.348-.321-.079-.078-.146-.168-.213-.245.216-.189.41-.343.583-.517a.423.423,0,0,0,.038-.611.39.39,0,0,0-.556-.064c-.105.058-.206.125-.322.2-.077-.581-.161-.736-.437-.734-.5,0-.4.446-.517.793m-13.227,1.953c.074.3-.058.7.393.748.588.068.476-.424.546-.781.116.1.186.168.266.224a.417.417,0,1,0,.558-.62,4.345,4.345,0,0,0-.415-.378c-.158-.127-.151-.224.01-.347a3.975,3.975,0,0,0,.459-.418.376.376,0,0,0-.012-.576.386.386,0,0,0-.556-.043c-.086.061-.169.125-.29.216-.093-.338-.023-.784-.508-.767-.461.016-.365.453-.464.765-.106-.078-.186-.133-.262-.193a.411.411,0,1,0-.561.6,2.778,2.778,0,0,0,.419.372c.228.157.2.274-.009.42a3.4,3.4,0,0,0-.423.369.381.381,0,0,0-.03.559.4.4,0,0,0,.558.083c.1-.062.19-.137.322-.233m-6.616-1.958-.3-.21a.412.412,0,0,0-.6.03.4.4,0,0,0,.066.581,4.721,4.721,0,0,0,.453.378c.164.121.159.224.007.35a4.89,4.89,0,0,0-.5.455.367.367,0,0,0-.014.534.4.4,0,0,0,.582.063c.1-.074.2-.143.314-.228.058.639.1.724.393.753.571.058.467-.416.553-.764.117.1.2.212.3.235.158.036.377.072.481-.007a.536.536,0,0,0,.132-.459c-.033-.142-.191-.267-.316-.375a5.031,5.031,0,0,0-.459-.321c.3-.253.491-.4.667-.574a.418.418,0,0,0,.048-.629c-.16-.182-.368-.184-.6-.008-.072.053-.148.1-.235.163-.12-.329-.058-.771-.524-.75s-.357.455-.437.781m13.225,1.943c.1.324-.043.793.5.772.517-.02.363-.463.453-.776a4.074,4.074,0,0,0,.343.258.376.376,0,0,0,.511-.054.4.4,0,0,0,.033-.541,2.642,2.642,0,0,0-.292-.292c-.123-.118-.247-.235-.378-.358.232-.2.435-.355.614-.535a.4.4,0,0,0,.046-.585.389.389,0,0,0-.576-.067l-.3.2c-.079-.327.011-.729-.428-.749-.508-.024-.429.434-.526.782a2.734,2.734,0,0,1-.259-.173.41.41,0,0,0-.6-.024.423.423,0,0,0,.035.607,3.644,3.644,0,0,0,.452.379c.187.132.164.234,0,.362a4.252,4.252,0,0,0-.465.409.4.4,0,0,0-.027.583.433.433,0,0,0,.592.029c.083-.064.162-.135.269-.225" transform="translate(-15.073 -114.755)" fill="#1b3356"/>
  </g>
</svg>
