<svg id="Group_16297" data-name="Group 16297" xmlns="http://www.w3.org/2000/svg" width="40" height="40" viewBox="0 0 40 40">
  <path id="Path_11435" data-name="Path 11435" d="M20,0A20,20,0,1,1,0,20,20,20,0,0,1,20,0Z" fill="#41bb95"/>
  <g id="Group_16341" data-name="Group 16341" transform="translate(7.081 10.054)">
    <g id="Group_15926" data-name="Group 15926" transform="translate(2)">
      <path id="Path_11251" data-name="Path 11251" d="M21.055,41.778h.128l6.872,0c.771,0,1.541,0,2.312,0,.847,0,1.694.018,2.541.022.976,0,1.951,0,2.926,0,.052,0,.091,0,.091-.074,0-1.361.014-2.721.018-4.082.006-1.7.007-3.393.013-5.09a.223.223,0,0,0-.089-.195q-1-.821-2-1.649-.975-.806-1.947-1.617L29.8,27.346q-.64-.533-1.279-1.07a.111.111,0,0,0-.172,0c-.317.269-.638.533-.959.8q-.534.439-1.072.875c-.246.2-.493.4-.738.6-.179.148-.355.3-.534.448l-1.157.96q-.533.442-1.066.884-.771.636-1.544,1.269c-.227.185-.229.183-.229.477v9.186Z" transform="translate(-17.581 -21.92)" fill="#eff2f3"/>
      <path id="Path_11252" data-name="Path 11252" d="M10.9,0c-.07,0-.141,0-.211,0a1.173,1.173,0,0,0-.777.3C8.957,1.09,8,1.882,7.041,2.669c-.484.4-.974.788-1.458,1.185-.342.281-.68.568-1.021.85s-.686.561-1.028.843q-.8.66-1.607,1.321c-.484.4-.973.79-1.454,1.19A1.186,1.186,0,0,0,.045,9.337a1.161,1.161,0,0,0,.973.855A1.3,1.3,0,0,0,2.1,9.849q.885-.736,1.772-1.469c.63-.519,1.263-1.034,1.893-1.552q1.1-.905,2.2-1.812c.586-.481,1.176-.956,1.762-1.437q.553-.453,1.1-.916a.117.117,0,0,1,.18,0q1.6,1.322,3.208,2.64,1.1.905,2.2,1.81,1.338,1.1,2.673,2.208c.255.21.509.421.769.624a1.2,1.2,0,0,0,1.912-.549,1.159,1.159,0,0,0-.393-1.319Q20.57,7.4,19.759,6.736c-.508-.417-1.02-.829-1.528-1.246-.4-.331-.8-.667-1.208-1q-.973-.8-1.947-1.6-1.19-.978-2.382-1.954c-.262-.215-.526-.428-.787-.645a1.224,1.224,0,0,0-.9-.286c-.033,0-.067,0-.1,0V0" transform="translate(0 0.001)" fill="#eff2f3"/>
      <g id="Group_15928" data-name="Group 15928" transform="translate(7.533 10.348)">
        <g id="Group_15929" data-name="Group 15929" transform="translate(0 0)">
          <path id="Path_11255" data-name="Path 11255" d="M32.582,6.769a3.058,3.058,0,0,1-1.036-.1,3.474,3.474,0,0,1-.947-.417,3.528,3.528,0,0,1-.8-.729A3.332,3.332,0,0,1,29.226,4.5a3.394,3.394,0,0,1-.146-1.556,3.009,3.009,0,0,1,.218-.819,3.842,3.842,0,0,1,.365-.666,3.408,3.408,0,0,1,.536-.6,3.517,3.517,0,0,1,.914-.573,3.471,3.471,0,0,1,.88-.247,3.166,3.166,0,0,1,1.072.022c.069.013.133.052.2.066a2.967,2.967,0,0,1,1.058.467,3.522,3.522,0,0,1,.828.794A3.358,3.358,0,0,1,35.6,2.2a3.3,3.3,0,0,1,.216,1.324,3.373,3.373,0,0,1-1.367,2.6,3.394,3.394,0,0,1-.643.36c-.2.09-.425.124-.627.212a1.49,1.49,0,0,1-.6.071m.73-4.158v0H33.5c.062,0,.125,0,.187,0,.085,0,.117-.036.121-.119a.556.556,0,0,0,0-.09,1.173,1.173,0,0,0-.633-.962,2.517,2.517,0,0,0-.333-.131c-.117-.042-.136-.062-.139-.189,0-.107,0-.214,0-.322a.1.1,0,0,0-.087-.113,1.109,1.109,0,0,0-.236-.007c-.1.009-.126.042-.128.145s0,.229-.01.343a.127.127,0,0,1-.114.121,1.582,1.582,0,0,0-.54.188,1.071,1.071,0,0,0-.5.594,1.179,1.179,0,0,0-.022.685,1,1,0,0,0,.449.644q.111.068.226.132a2.483,2.483,0,0,0,.4.206,2.539,2.539,0,0,1,.4.182.544.544,0,0,1,.221.695.284.284,0,0,1-.255.181c-.065,0-.13,0-.195,0a.373.373,0,0,1-.325-.205,1.021,1.021,0,0,1-.092-.281c-.025-.11-.049-.14-.163-.144-.082,0-.165,0-.247,0-.152,0-.3,0-.457,0-.057,0-.121.008-.123.089a1.158,1.158,0,0,0,.574,1.068,2.24,2.24,0,0,0,.417.172c.073.024.147.046.219.072a.1.1,0,0,1,.071.1c0,.107,0,.214.006.321,0,.056.014.116.073.124a1.176,1.176,0,0,0,.288,0,.127.127,0,0,0,.11-.146c0-.095,0-.19,0-.284a.147.147,0,0,1,.123-.155c.144-.046.29-.09.429-.149a.976.976,0,0,0,.482-.46A1.293,1.293,0,0,0,33.78,4.1a.864.864,0,0,0-.2-.421A2.4,2.4,0,0,0,32.93,3.2,2.721,2.721,0,0,0,32.5,3a1.133,1.133,0,0,1-.351-.222.191.191,0,0,1-.063-.089,1.441,1.441,0,0,1-.044-.322.344.344,0,0,1,.256-.332c.149-.044.407.137.407.137a3.382,3.382,0,0,1,.114.328.126.126,0,0,0,.137.11h.352" transform="translate(-29.048 0)" fill="#41bb95"/>
        </g>
      </g>
    </g>
  </g>
</svg>
