<svg id="Group_15923" data-name="Group 15923" xmlns="http://www.w3.org/2000/svg" xmlns:xlink="http://www.w3.org/1999/xlink" width="37.929" height="34.548" viewBox="0 0 37.929 34.548">
  <defs>
    <linearGradient id="linear-gradient" x1="1.193" y1="0.186" x2="-0.371" y2="0.915" gradientUnits="objectBoundingBox">
      <stop offset="0" stop-color="#449994"/>
      <stop offset="1" stop-color="#3774b9"/>
    </linearGradient>
  </defs>
  <g id="Group_15926" data-name="Group 15926">
    <path id="Path_11251" data-name="Path 11251" d="M21.055,53.228h.223l11.934.006c1.338,0,2.677,0,4.015.008,1.471.009,2.942.031,4.413.038,1.694.008,3.388,0,5.082.007.09,0,.157.006.158-.129.007-2.363.024-4.726.031-7.089.01-2.947.012-5.894.022-8.84a.387.387,0,0,0-.154-.338q-1.744-1.427-3.479-2.864-1.693-1.4-3.381-2.809-1.837-1.527-3.673-3.055-1.112-.926-2.221-1.858a.193.193,0,0,0-.3.007c-.55.467-1.107.926-1.665,1.384q-.928.763-1.861,1.519c-.428.349-.857.7-1.282,1.047-.311.257-.617.52-.927.778q-1,.835-2.009,1.667-.925.767-1.851,1.534-1.338,1.1-2.681,2.2c-.394.322-.4.318-.4.828V53.228Z" transform="translate(-15.022 -18.739)" fill="#408e9f"/>
    <path id="Path_11252" data-name="Path 11252" d="M18.939,0c-.122,0-.244,0-.366,0a2.037,2.037,0,0,0-1.35.527c-1.667,1.366-3.328,2.74-4.994,4.107-.841.69-1.691,1.369-2.532,2.059-.595.488-1.18.987-1.773,1.477s-1.191.975-1.785,1.463q-1.4,1.147-2.791,2.295C2.506,12.62,1.658,13.3.822,14a2.06,2.06,0,0,0-.745,2.221A2.017,2.017,0,0,0,1.767,17.7a2.26,2.26,0,0,0,1.875-.6q1.537-1.278,3.077-2.551c1.094-.9,2.193-1.8,3.288-2.7q1.913-1.572,3.824-3.148c1.018-.835,2.043-1.661,3.061-2.5q.961-.788,1.909-1.591a.2.2,0,0,1,.313-.007Q21.9,6.915,24.686,9.2q1.913,1.572,3.828,3.144,2.323,1.915,4.642,3.834c.442.365.884.731,1.335,1.084a2.092,2.092,0,0,0,3.32-.953,2.013,2.013,0,0,0-.683-2.291q-1.4-1.165-2.811-2.323c-.882-.724-1.771-1.44-2.654-2.163-.7-.575-1.4-1.158-2.1-1.735q-1.689-1.393-3.381-2.784-2.067-1.7-4.138-3.393C21.592,1.251,21.133.88,20.681.5a2.125,2.125,0,0,0-1.566-.5c-.058,0-.117,0-.175,0V0" transform="translate(0 0.001)" fill="#408e9f"/>
    <path id="Path_11253" data-name="Path 11253" d="M61.556,63.974a1.944,1.944,0,0,0,1.92-1.905,1.96,1.96,0,1,0-1.92,1.905" transform="translate(-42.57 -42.896)" fill="url(#linear-gradient)"/>
    <g id="Group_15928" data-name="Group 15928" transform="translate(13.084 17.972)">
      <g id="Group_15929" data-name="Group 15929" transform="translate(0 0)">
        <path id="Path_11255" data-name="Path 11255" d="M35.186,11.756a5.31,5.31,0,0,1-1.8-.172,6.034,6.034,0,0,1-1.644-.724,6.128,6.128,0,0,1-1.4-1.267,5.786,5.786,0,0,1-.988-1.784,5.9,5.9,0,0,1-.253-2.7,5.225,5.225,0,0,1,.379-1.423,6.673,6.673,0,0,1,.634-1.157,5.918,5.918,0,0,1,.932-1.041A6.108,6.108,0,0,1,32.636.492a6.028,6.028,0,0,1,1.529-.43A5.5,5.5,0,0,1,36.027.1c.12.022.232.09.352.114a5.154,5.154,0,0,1,1.837.812A6.117,6.117,0,0,1,39.653,2.4a5.833,5.833,0,0,1,.772,1.417,5.734,5.734,0,0,1,.374,2.3,5.858,5.858,0,0,1-2.374,4.518,5.894,5.894,0,0,1-1.116.626c-.348.156-.739.216-1.089.369a2.588,2.588,0,0,1-1.035.123m1.268-7.221v0h.325c.108,0,.217,0,.325,0,.148-.007.2-.062.21-.207a.965.965,0,0,0,0-.156A2.037,2.037,0,0,0,36.21,2.5a4.37,4.37,0,0,0-.579-.228c-.2-.073-.236-.108-.241-.329,0-.186,0-.372,0-.559a.174.174,0,0,0-.151-.2,1.927,1.927,0,0,0-.411-.012c-.179.015-.219.073-.222.251,0,.2,0,.4-.018.6a.22.22,0,0,1-.2.211,2.747,2.747,0,0,0-.938.327,1.861,1.861,0,0,0-.861,1.032,2.048,2.048,0,0,0-.038,1.189,1.732,1.732,0,0,0,.78,1.118q.193.119.392.229a4.312,4.312,0,0,0,.686.358,4.409,4.409,0,0,1,.691.317.945.945,0,0,1,.383,1.207.494.494,0,0,1-.443.314c-.112.007-.225,0-.338,0a.648.648,0,0,1-.564-.357,1.773,1.773,0,0,1-.16-.488c-.043-.191-.086-.243-.283-.249-.143-.005-.286,0-.429,0-.264,0-.529,0-.793.008-.1,0-.21.014-.214.154a2.011,2.011,0,0,0,1,1.855,3.891,3.891,0,0,0,.724.3c.127.042.255.08.38.124a.174.174,0,0,1,.123.179c0,.186.008.372.01.558,0,.1.024.2.127.215a2.042,2.042,0,0,0,.5.006.221.221,0,0,0,.191-.254c-.005-.164,0-.329,0-.494a.256.256,0,0,1,.214-.27c.25-.08.5-.157.745-.259a1.7,1.7,0,0,0,.837-.8,2.245,2.245,0,0,0,.154-1.434,1.5,1.5,0,0,0-.342-.731,4.172,4.172,0,0,0-1.133-.831,4.726,4.726,0,0,0-.739-.346,1.968,1.968,0,0,1-.609-.385.332.332,0,0,1-.11-.155,2.5,2.5,0,0,1-.076-.559.6.6,0,0,1,.444-.576c.259-.077.707.239.707.239a5.875,5.875,0,0,1,.2.57.218.218,0,0,0,.237.191c.2,0,.407,0,.611,0" transform="translate(-29.048 0)" fill="#fff"/>
      </g>
    </g>
  </g>
</svg>
