<svg xmlns="http://www.w3.org/2000/svg" xmlns:xlink="http://www.w3.org/1999/xlink" width="24.845" height="24.845" viewBox="0 0 24.845 24.845">
  <defs>
    <clipPath id="clip-path">
      <rect id="Rectangle_2397" data-name="Rectangle 2397" width="24.845" height="24.845" fill="#449994"/>
    </clipPath>
  </defs>
  <g id="Group_16426" data-name="Group 16426" transform="translate(0 0)">
    <g id="Group_16425" data-name="Group 16425" transform="translate(0 0)" clip-path="url(#clip-path)">
      <path id="Path_11443" data-name="Path 11443" d="M48.375,0c.965,0,1.931,0,2.9,0a2.854,2.854,0,0,1,2.97,2.614c.022.217.022.437.022.656,0,1.732,0,3.463,0,5.195a2.942,2.942,0,0,1-.937,2.242,2.693,2.693,0,0,1-1.631.724,8.353,8.353,0,0,1-.849.033q-2.545,0-5.09,0a2.832,2.832,0,0,1-2.606-1.495A2.865,2.865,0,0,1,42.8,8.524q-.011-2.851,0-5.7A2.886,2.886,0,0,1,45.212.041,5.007,5.007,0,0,1,45.9,0c.826,0,1.652,0,2.478,0" transform="translate(-29.421 0)" fill="#449994"/>
      <path id="Path_11444" data-name="Path 11444" d="M5.576,0c.965,0,1.931,0,2.9,0A2.894,2.894,0,0,1,9.9.314,2.851,2.851,0,0,1,11.445,2.63a6.237,6.237,0,0,1,.022.626c0,1.737,0,3.473,0,5.21A2.968,2.968,0,0,1,10.82,10.4,2.844,2.844,0,0,1,8.5,11.464c-1.856.012-3.712.008-5.568,0A2.817,2.817,0,0,1,.358,9.974,2.861,2.861,0,0,1,0,8.526q-.011-2.851,0-5.7A2.886,2.886,0,0,1,2.414.042,4.858,4.858,0,0,1,3.1,0C3.924,0,4.75,0,5.576,0" transform="translate(0 0)" fill="#449994"/>
      <path id="Path_11445" data-name="Path 11445" d="M5.583,42.8c.96,0,1.921,0,2.881,0a2.914,2.914,0,0,1,1.4.295,2.848,2.848,0,0,1,1.58,2.34c.02.2.021.4.021.6q0,2.613,0,5.225a2.885,2.885,0,0,1-.207,1.211,2.8,2.8,0,0,1-2.421,1.769c-.247.023-.5.028-.745.028q-2.568,0-5.135,0A2.816,2.816,0,0,1,.282,52.62,2.9,2.9,0,0,1,0,51.3Q0,48.459,0,45.615a2.832,2.832,0,0,1,2.6-2.783c.993-.049,1.99-.009,2.984-.009V42.8" transform="translate(0 -29.422)" fill="#449994"/>
      <path id="Path_11446" data-name="Path 11446" d="M54.275,48.553a5.732,5.732,0,1,1-5.733-5.73,5.719,5.719,0,0,1,5.733,5.73" transform="translate(-29.432 -29.439)" fill="#449994"/>
    </g>
  </g>
</svg>
