<svg xmlns="http://www.w3.org/2000/svg" xmlns:xlink="http://www.w3.org/1999/xlink" width="98" height="98" viewBox="0 0 98 98">
  <defs>
    <linearGradient id="linear-gradient" x1="0.5" y1="-0.276" x2="0.5" y2="1.193" gradientUnits="objectBoundingBox">
      <stop offset="0" stop-color="#2ad8c1"/>
      <stop offset="1" stop-color="#2b887c"/>
    </linearGradient>
    <linearGradient id="linear-gradient-2" x1="0.5" y1="1.908" x2="0.477" y2="-0.088" gradientUnits="objectBoundingBox">
      <stop offset="0" stop-color="#0e9771"/>
      <stop offset="1" stop-color="#c0f2db" stop-opacity="0.502"/>
    </linearGradient>
    <clipPath id="clip-path">
      <rect id="Rectangle_2340" data-name="Rectangle 2340" width="54" height="57.924" fill="url(#linear-gradient)"/>
    </clipPath>
  </defs>
  <g id="Group_16095" data-name="Group 16095" transform="translate(-145.98 -46.98)">
    <rect id="Rectangle_2341" data-name="Rectangle 2341" width="98" height="98" rx="21" transform="translate(145.98 46.98)" opacity="0.53" fill="url(#linear-gradient-2)"/>
    <g id="Group_16094" data-name="Group 16094" transform="translate(170.01 67.018)">
      <g id="Group_16093" data-name="Group 16093" transform="translate(0 0)" clip-path="url(#clip-path)">
        <path id="Path_11324" data-name="Path 11324" d="M7.894,15.2A15.061,15.061,0,0,1,23.13,0a15.018,15.018,0,0,1,15.2,15.182A15.217,15.217,0,1,1,7.894,15.2M38.256,31.368c-.8-.565-1.65-1.049-2.455-1.6a1.679,1.679,0,0,0-2.224.115,17.325,17.325,0,0,1-10.924,3.384,17.867,17.867,0,0,1-10.487-3.652,1.357,1.357,0,0,0-1.151-.107A17.236,17.236,0,0,0,5.3,33.726,20.418,20.418,0,0,0,.057,45.6c-.26,2.431.34,4.425,2.581,5.7,1.963,1.119,3.848,2.408,5.9,3.333a34.185,34.185,0,0,0,22.9,2.2,9.589,9.589,0,0,0,1.057-.407C29,52.29,27.638,47.747,29.182,42.59s5.146-8.3,10.5-9.908a17.009,17.009,0,0,0-1.43-1.314m4.453,3.853A11.351,11.351,0,1,0,54,46.58,11.284,11.284,0,0,0,42.71,35.221M43.778,48c-2.047,0-4.093,0-6.14,0a5.137,5.137,0,0,1-1-.065,1.324,1.324,0,0,1-1.152-1.509A1.361,1.361,0,0,1,37,45.144c2.26-.03,4.521-.015,6.781-.023.322,0,.643-.028,1.212-.054-.521-.558-.887-.943-1.247-1.335a1.385,1.385,0,0,1-.182-2.033,1.46,1.46,0,0,1,2.129.03c1.232,1.186,2.449,2.39,3.625,3.633a1.53,1.53,0,0,1-.029,2.427c-1.114,1.174-2.28,2.3-3.428,3.441a2.391,2.391,0,0,1-.362.279,1.336,1.336,0,0,1-1.9-.17,1.249,1.249,0,0,1,.1-1.881,10.973,10.973,0,0,1,1.324-.982c-.094-.146-.187-.293-.28-.439-.324-.014-.646-.04-.969-.041" transform="translate(0 0)" fill="url(#linear-gradient)"/>
      </g>
    </g>
  </g>
</svg>
