<svg xmlns="http://www.w3.org/2000/svg" xmlns:xlink="http://www.w3.org/1999/xlink" width="96" height="97" viewBox="0 0 96 97">
  <defs>
    <filter id="Ellipse_42" x="0" y="0" width="96" height="97" filterUnits="userSpaceOnUse">
      <feOffset dy="1" input="SourceAlpha"/>
      <feGaussianBlur stdDeviation="6.5" result="blur"/>
      <feFlood flood-opacity="0.02"/>
      <feComposite operator="in" in2="blur"/>
      <feComposite in="SourceGraphic"/>
    </filter>
  </defs>
  <g id="Group_15872" data-name="Group 15872" transform="translate(19.5 18.5)">
    <g transform="matrix(1, 0, 0, 1, -19.5, -18.5)" filter="url(#Ellipse_42)">
      <ellipse id="Ellipse_42-2" data-name="Ellipse 42" cx="28.5" cy="29" rx="28.5" ry="29" transform="translate(19.5 18.5)" fill="#fff"/>
    </g>
    <g id="Group_15869" data-name="Group 15869" transform="translate(12.717 14.782)">
      <g id="Group_15870" data-name="Group 15870" transform="translate(0)">
        <path id="Path_11235" data-name="Path 11235" d="M44.053,46.989c.308.019.616.056.924.055a7.909,7.909,0,0,0,3.535-.814,10.729,10.729,0,0,0,3.712-3.044,12.669,12.669,0,0,0,2.338-4.743,10.493,10.493,0,0,0,.282-3.468,9.708,9.708,0,0,0-1.863-4.889,9.458,9.458,0,0,0-2.133-2.14,9.817,9.817,0,0,0-14.121,2.668,9.161,9.161,0,0,0-1.472,4.024,10.611,10.611,0,0,0,.7,5.211,13.7,13.7,0,0,0,1.078,2.158.482.482,0,0,0,.262.2c.538.13,1.08.241,1.622.353a.2.2,0,0,0,.145-.041,2.734,2.734,0,0,1,1.783-.569c.618.012,1.236,0,1.854,0a2.678,2.678,0,0,1,1.461,4.918c-.037.028-.075.055-.113.082Z" transform="translate(-28.782 -19.713)" fill="#2e3336"/>
        <path id="Path_11236" data-name="Path 11236" d="M8.83,18.825c0,.811.022,1.623-.005,2.433a2.506,2.506,0,0,0,3.789,2.116.142.142,0,0,1,.182,0,12.122,12.122,0,0,0,5.123,2.014c.45.076.905.123,1.359.178a.358.358,0,0,1,.3.173,1.3,1.3,0,0,0,1.032.635c.748.031,1.5.039,2.247,0a1.459,1.459,0,0,0-.052-2.911c-.7-.023-1.4-.015-2.1,0a1.382,1.382,0,0,0-1.053.549.286.286,0,0,1-.274.12A13.366,13.366,0,0,1,14.509,22.7c-.249-.131-.483-.29-.724-.435-.1-.059-.114-.122-.076-.24a2.535,2.535,0,0,0,.115-.6c.025-.368.031-.737.034-1.106,0-.709.008-1.418,0-2.128s0-1.439-.056-2.152a2.255,2.255,0,0,0-1.214-1.813.174.174,0,0,1-.105-.2,13.418,13.418,0,0,1,.764-3.575,12.469,12.469,0,0,1,3.008-4.609,12.353,12.353,0,0,1,4.653-2.893,12.208,12.208,0,0,1,3.2-.656,13.4,13.4,0,0,1,2.549.056,12.32,12.32,0,0,1,6.353,2.7,12.483,12.483,0,0,1,4.166,6.223,14.245,14.245,0,0,1,.489,2.8c0,.049-.06.125-.111.156a2.4,2.4,0,0,0-1.129,1.394,3.167,3.167,0,0,0-.129.874c-.012,1.525-.008,3.051,0,4.576a2.49,2.49,0,0,0,1.391,2.38,2.522,2.522,0,0,0,3.624-1.868,2.679,2.679,0,0,0,.017-.393c0-1.579,0-3.157,0-4.736A2.422,2.422,0,0,0,40.012,14.2a.263.263,0,0,1-.094-.189,15.412,15.412,0,0,0-.838-4.138,14.638,14.638,0,0,0-4.125-6.1,14.464,14.464,0,0,0-4.316-2.7A14.722,14.722,0,0,0,26.734.089a15.371,15.371,0,0,0-3.583.033,14.215,14.215,0,0,0-4.444,1.3,15.083,15.083,0,0,0-5.6,4.628,14.555,14.555,0,0,0-2.512,5.43,14.367,14.367,0,0,0-.358,2.475.327.327,0,0,1-.18.3,2.414,2.414,0,0,0-1.206,1.7,2.17,2.17,0,0,0-.025.377q0,1.246,0,2.492Z" transform="translate(-8.824 0)" fill="#2e3336"/>
      </g>
    </g>
  </g>
</svg>
