<svg xmlns="http://www.w3.org/2000/svg" xmlns:xlink="http://www.w3.org/1999/xlink" width="36.271" height="36.254" viewBox="0 0 36.271 36.254">
  <defs>
    <clipPath id="clip-path">
      <rect id="Rectangle_2193" data-name="Rectangle 2193" width="36.271" height="36.254" transform="translate(0)" fill="#29a9ea"/>
    </clipPath>
  </defs>
  <g id="Group_15348" data-name="Group 15348" clip-path="url(#clip-path)">
    <path id="Path_6139" data-name="Path 6139" d="M18.154,0A18.127,18.127,0,1,1,0,17.651,18.14,18.14,0,0,1,18.154,0M14.788,26.433a1.359,1.359,0,0,0,1.006-.516q.988-.965,1.976-1.929c.08-.078.136-.109.249-.025q2.113,1.578,4.238,3.14a1.94,1.94,0,0,0,.511.272.852.852,0,0,0,1.178-.549,1.328,1.328,0,0,0,.068-.2c.092-.4.184-.8.27-1.206q.541-2.54,1.079-5.081C25.878,17.919,26.4,15.5,26.9,13.08a6.84,6.84,0,0,0,.184-1.289.82.82,0,0,0-1.049-.856,2.067,2.067,0,0,0-.392.1c-.738.279-1.474.564-2.211.848q-2.712,1.045-5.424,2.091Q13.95,15.55,9.889,17.125c-.566.219-1.137.424-1.7.662a2.462,2.462,0,0,0-.665.421.437.437,0,0,0,.062.726,1.62,1.62,0,0,0,.439.22c1.34.43,2.688.84,4.023,1.285A.812.812,0,0,0,13,20.305a.061.061,0,0,1,.015-.009q3.026-1.9,6.052-3.8c1.3-.819,2.6-1.643,3.908-2.459a1,1,0,0,1,.375-.144.755.755,0,0,1,.284.079.78.78,0,0,1-.116.239c-.255.245-.522.478-.784.716q-3.751,3.388-7.5,6.78a.44.44,0,0,0-.13.255c-.038.352-.058.705-.082,1.059q-.1,1.535-.207,3.071c-.007.11-.015.219-.023.342" transform="translate(0 0)" fill="#29a9ea"/>
  </g>
</svg>
