<svg xmlns="http://www.w3.org/2000/svg" xmlns:xlink="http://www.w3.org/1999/xlink" width="40" height="40" viewBox="0 0 40 40">
  <defs>
    <clipPath id="clip-path">
      <rect id="Rectangle_2374" data-name="Rectangle 2374" width="22.137" height="22.133" fill="#eff2f3"/>
    </clipPath>
  </defs>
  <g id="Group_16296" data-name="Group 16296" transform="translate(-40 -353)">
    <circle id="Ellipse_202" data-name="Ellipse 202" cx="20" cy="20" r="20" transform="translate(40 353)" fill="#449994"/>
    <g id="Group_16309" data-name="Group 16309" transform="translate(49.931 362.299)">
      <g id="Group_16308" data-name="Group 16308" clip-path="url(#clip-path)">
        <path id="Path_11376" data-name="Path 11376" d="M17.537,0a1.678,1.678,0,0,0,.121.152q.786.788,1.574,1.575c.038.038.072.078.1.1l-.614.724-1.489-1.5L14.883,3.388h3.55l.147.985H0V3.392H1.362c-.079-.083-.121-.129-.165-.173C.848,2.87.5,2.518.149,2.176A.4.4,0,0,1,0,1.827c.012-.137,0-.276,0-.444l1.979,2L4.344,1.02H.011V0H17.537M5.085,1.081l-2.3,2.3H7.377l-2.292-2.3m6.1,0-2.3,2.295h4.593L11.183,1.081m5.3-.049H11.891l2.286,2.291,2.3-2.291M8.057,3.311,10.34,1.035H5.8L8.057,3.311" transform="translate(0)" fill="#eff2f3"/>
        <path id="Path_11377" data-name="Path 11377" d="M60.605,152.79q0,1.351,0,2.7c0,.4-.173.58-.576.58H57.017c-.4,0-.579-.179-.579-.577q0-1.9,0-3.8c0-.427-.183-.61-.61-.61H52.834a.519.519,0,0,0-.59.6q0,1.889,0,3.779c0,.445-.162.61-.6.61H48.667c-.415,0-.591-.175-.591-.585q0-2.729,0-5.458a.389.389,0,0,1,.129-.3q2.864-2.853,5.724-5.712a.512.512,0,0,1,.835,0q2.867,2.863,5.73,5.731a.42.42,0,0,1,.11.267c.008.925,0,1.85,0,2.775" transform="translate(-44.776 -133.94)" fill="#eff2f3"/>
        <path id="Path_11378" data-name="Path 11378" d="M32.622,92.571a2.568,2.568,0,0,0-.382.26q-1.6,1.587-3.191,3.185l-2.763,2.762a.507.507,0,0,1-.809,0q-.253-.25-.5-.5a.508.508,0,0,1,0-.822q2.478-2.478,4.959-4.954L32.2,90.225a.52.52,0,0,1,.861,0l7.229,7.226a.5.5,0,0,1,0,.809l-.489.492a.518.518,0,0,1-.849,0l-4.647-4.646c-.439-.439-.874-.881-1.32-1.313a2.153,2.153,0,0,0-.372-.231" transform="translate(-23.067 -83.826)" fill="#eff2f3"/>
        <path id="Path_11379" data-name="Path 11379" d="M280.575,41.966l.356.2a1.029,1.029,0,0,1,.526.769,1.4,1.4,0,0,1-.641,1.392,1.261,1.261,0,0,1-1.42-.1,1.067,1.067,0,0,1-.415-.8.639.639,0,0,1,.054-.281.25.25,0,0,1,.305-.17c.087.033.154.151.2.245.057.112.067.248.128.356a.54.54,0,0,0,.567.286.584.584,0,0,0,.51-.411.538.538,0,0,0-.168-.612,4.341,4.341,0,0,0-.377-.287,1.492,1.492,0,0,1-.663-.924c-.045-.22-.127-.431-.182-.649a1.69,1.69,0,0,0-.434-.857,1.222,1.222,0,0,1-.33-.9q0-3.905,0-7.811a1.513,1.513,0,0,1,2.989-.3,1.536,1.536,0,0,1,.037.324q0,3.869,0,7.738a1.519,1.519,0,0,1-.513,1.165.328.328,0,0,0-.1.123c-.147.5-.288,1-.433,1.514M279.3,32.728V37.84a4.26,4.26,0,0,1,.817-.151,4.184,4.184,0,0,1,.809.156V32.729a1.6,1.6,0,0,1-1.625,0" transform="translate(-259.487 -27.866)" fill="#eff2f3"/>
      </g>
    </g>
  </g>
</svg>
