<svg xmlns="http://www.w3.org/2000/svg" width="26.715" height="26.774" viewBox="0 0 26.715 26.774">
  <g id="Group_16336" data-name="Group 16336" transform="translate(47 0)">
    <g id="Group_16381" data-name="Group 16381" transform="translate(-47 0)">
      <path id="Path_11433" data-name="Path 11433" d="M3.837,12.41c0-.769,0-1.51,0-2.25q0-4.586,0-9.173A.938.938,0,0,1,4.829,0Q7.64,0,10.452,0A.945.945,0,0,1,11.46,1.022q0,5.571,0,11.142v.244c.927,0,1.831,0,2.736,0a.986.986,0,0,1,1.071.816.97.97,0,0,1-.352.921L10.667,18.4,8.454,20.615a.984.984,0,0,1-1.608.01Q3.608,17.382.369,14.139a.953.953,0,0,1-.289-1.12.989.989,0,0,1,.993-.61c.812,0,1.624,0,2.436,0h.328M7.6,18.634l4.315-4.282c-.378,0-.775,0-1.172,0-.845-.005-1.187-.351-1.187-1.2q0-5.442,0-10.884V1.934H5.747v.291q0,3.161,0,6.323,0,2.332,0,4.664a1.01,1.01,0,0,1-1.15,1.14c-.345,0-.691,0-1.036,0-.072,0-.143.011-.236.02L7.6,18.634" transform="translate(21 21.036) rotate(180)" fill="#449994"/>
      <path id="Path_11434" data-name="Path 11434" d="M13.359,87.874c-2.937,0-5.875.039-8.811-.013A4.654,4.654,0,0,1,.175,84.336a6.153,6.153,0,0,1-.161-1.354c-.024-.889-.008-1.78-.007-2.669a.962.962,0,0,1,.944-1.043.982.982,0,0,1,.972,1.055c0,.967-.012,1.935,0,2.9A2.815,2.815,0,0,0,4.7,85.952c2.747.007,5.494,0,8.241,0,2.972,0,5.943-.024,8.914.011a2.908,2.908,0,0,0,2.917-2.387,3.659,3.659,0,0,0,.034-.593c0-.9-.005-1.8,0-2.7a.982.982,0,0,1,.977-1.021.925.925,0,0,1,.928.869c0,1.259.037,2.525-.075,3.776a4.652,4.652,0,0,1-3.42,3.788,7.047,7.047,0,0,1-1.484.17c-2.79.016-5.581.008-8.371.008Z" transform="translate(0 -61.113)" fill="#449994"/>
    </g>
  </g>
</svg>
