<svg id="Group_116" data-name="Group 116" xmlns="http://www.w3.org/2000/svg" xmlns:xlink="http://www.w3.org/1999/xlink" width="43.25" height="42.089" viewBox="0 0 43.25 42.089">
  <defs>
    <clipPath id="clip-path">
      <rect id="Rectangle_1199" data-name="Rectangle 1199" width="43.25" height="42.089" fill="#abb2b8"/>
    </clipPath>
  </defs>
  <g id="Group_115" data-name="Group 115" clip-path="url(#clip-path)">
    <path id="Path_4177" data-name="Path 4177" d="M24.021,25.56c-1.337,4.1-.825,7.855,1.992,11.106A10.774,10.774,0,0,0,36.7,40.232v.45q0,6.7-.006,13.4c0,1.495,0,2.99-.048,4.483a4.286,4.286,0,0,1-2.84,3.89,3.01,3.01,0,0,1-.951.175q-10.129.017-20.258.012H4.527a4.427,4.427,0,0,1-3.635-1.9A4.38,4.38,0,0,1,0,57.994Q0,43.945,0,29.9a4.108,4.108,0,0,1,3.4-4.2,7.194,7.194,0,0,1,1.379-.131q9.422-.011,18.845,0h.4M18.813,56.7v.05q6.032,0,12.065,0A6.1,6.1,0,0,0,31.8,56.7c.535-.083.7-.417.486-.914-.042-.1-.095-.188-.145-.281-.764-1.385-1.525-2.772-2.295-4.154q-2.575-4.625-5.16-9.244a8.943,8.943,0,0,0-.718-1.125.451.451,0,0,0-.771-.044,3.916,3.916,0,0,0-.578.716c-1.309,2.072-2.6,4.154-3.915,6.222a5.169,5.169,0,0,1-.787.953,1.5,1.5,0,0,1-1.945.195,12.008,12.008,0,0,1-1.132-.916c-.28-.234-.538-.5-.835-.707a1.97,1.97,0,0,0-1.806-.276,3.148,3.148,0,0,0-1.616,1.234c-1.014,1.4-2.009,2.815-3.034,4.208A31.736,31.736,0,0,1,4.88,56.1a.882.882,0,0,0-.137.2c-.133.247-.086.359.185.415a1.927,1.927,0,0,0,.434.044c.52-.012,1.039-.052,1.558-.053q5.947-.007,11.894,0M6.143,35.9a4.824,4.824,0,1,0,4.807-4.82A4.863,4.863,0,0,0,6.143,35.9" transform="translate(0 -20.556)" fill="#abb2b8"/>
    <path id="Path_4178" data-name="Path 4178" d="M138.288,0a8.924,8.924,0,0,1,9.033,9.02A8.964,8.964,0,1,1,138.288,0m-.962,6.469.081.021c.014.194.041.388.041.582q0,3.375,0,6.749c0,.341.006.682.008,1.023,0,.206.112.288.308.284.43-.008.86-.014,1.291-.019.368,0,.379-.014.379-.391q0-3.545,0-7.09a5.9,5.9,0,0,1,.006-.608.35.35,0,0,1,.151-.221c.035-.023.149.032.2.081q1.068,1.068,2.126,2.144c.214.217.309.22.529.01.282-.269.564-.538.841-.812s.256-.329-.009-.593q-1-1-2-2-1.349-1.355-2.7-2.711c-.193-.194-.288-.191-.469-.011l-4.708,4.7c-.2.2-.218.313-.038.543.25.32.507.634.765.947.179.218.223.221.423.025.8-.785,1.594-1.575,2.395-2.359a4.27,4.27,0,0,1,.374-.295" transform="translate(-104.071 0)" fill="#abb2b8"/>
  </g>
</svg>
