<svg xmlns="http://www.w3.org/2000/svg" width="52.496" height="60.768" viewBox="0 0 52.496 60.768">
  <g id="Group_15864" data-name="Group 15864" transform="translate(-22.59 -16.731)">
    <path id="Path_162" data-name="Path 162" d="M122.921,82.272a15.956,15.956,0,0,1,10.292-3.184c.6.016,1.109.059,1.15-.84a7.722,7.722,0,0,0-7.93-8.463c-8.091-.021-16.183-.008-24.275,0a8.093,8.093,0,0,0-2.009.17,7.713,7.713,0,0,0-5.929,7.594q-.021,11.221,0,22.442h0c0,7.577-.012,15.154.005,22.731a7.664,7.664,0,0,0,6.11,7.535,15.141,15.141,0,0,0,2.967.25c4.527.025,9.055.038,13.582,0,3.433-.028,6.869.156,10.3-.122a7.635,7.635,0,0,0,7.154-7.663c.021-2.921-.025-5.844.023-8.765.015-.91-.321-1.145-1.179-1.137-3.821.036-7.642.029-11.463.013a7.129,7.129,0,0,1-6.86-4.278,7.294,7.294,0,0,1,.869-8.056,1.909,1.909,0,0,0,.4-1.587c-.985-6.865,1.249-12.461,6.792-16.64m-8.61,38.739a1.713,1.713,0,1,1-1.808,1.648,1.733,1.733,0,0,1,1.808-1.648" transform="translate(-71.621 -53.043)" fill="#1b3356"/>
    <path id="Path_163" data-name="Path 163" d="M208.173,127.891a13.9,13.9,0,1,0-27.317,4.726,1.983,1.983,0,0,1-.639,2.333,4.406,4.406,0,0,0-1.232,5.256,4.542,4.542,0,0,0,4.564,2.921c1.83.033,3.662.007,6.007.007,2.08-.1,4.693.229,7.272-.255a13.978,13.978,0,0,0,11.344-14.988m-9.814,2.752a56.889,56.889,0,0,1-8.067,0c-1.116-.078-1.617-.64-1.553-1.542.063-.874.663-1.366,1.75-1.381,1.282-.018,2.565,0,3.847,0s2.565-.017,3.847.005c1.061.018,1.663.552,1.7,1.437.031.867-.455,1.4-1.518,1.48" transform="translate(-133.146 -86.259)" fill="#449994"/>
  </g>
</svg>
