<svg id="Group_15347" data-name="Group 15347" xmlns="http://www.w3.org/2000/svg" xmlns:xlink="http://www.w3.org/1999/xlink" width="33.735" height="34.282" viewBox="0 0 33.735 34.282">
  <defs>
    <clipPath id="clip-path">
      <rect id="Rectangle_1679" data-name="Rectangle 1679" width="33.735" height="34.282" fill="#2cb742"/>
    </clipPath>
  </defs>
  <g id="Group_14384" data-name="Group 14384" transform="translate(0 0)" clip-path="url(#clip-path)">
    <path id="Path_2691" data-name="Path 2691" d="M16.984,33.5a16.012,16.012,0,0,1-2.764-.243,17.305,17.305,0,0,1-4.391-1.366c-.273-.126-.531-.284-.8-.413a.35.35,0,0,0-.247-.012q-3.657,1.361-7.31,2.731a1.02,1.02,0,0,1-1.417-.6A1.176,1.176,0,0,1,.1,32.8c.476-1.291.95-2.582,1.431-3.87.4-1.064.809-2.123,1.206-3.187a.318.318,0,0,0-.022-.242,16.946,16.946,0,0,1-1.55-3.271,18.229,18.229,0,0,1-.876-4.179A15.9,15.9,0,0,1,.4,14.39a16.069,16.069,0,0,1,1.214-4.278,17.387,17.387,0,0,1,3.5-5.147A16.5,16.5,0,0,1,11.048,1.1a16.246,16.246,0,0,1,3.47-.911,16.013,16.013,0,0,1,4.67-.031,17.385,17.385,0,0,1,4.186,1.121,17.234,17.234,0,0,1,3.581,2.041,16.693,16.693,0,0,1,5.172,6.32,14.93,14.93,0,0,1,.887,2.287,17.763,17.763,0,0,1,.72,4.647,15.222,15.222,0,0,1-.187,2.534,16.244,16.244,0,0,1-1.384,4.7,16.916,16.916,0,0,1-8.5,8.29,15.571,15.571,0,0,1-4.48,1.238c-.73.086-1.464.143-2.2.213l0-.046m4.06-8.616a7.442,7.442,0,0,0,.814-.1,4.26,4.26,0,0,0,2.879-2,1.944,1.944,0,0,0-.08-2.327,5.657,5.657,0,0,0-1.09-1.127,5,5,0,0,0-2.033-1.048,1.326,1.326,0,0,0-1.35.366c-.091.1-.191.187-.291.277a4.29,4.29,0,0,1-1.04.751,1.121,1.121,0,0,1-1.1-.041c-.178-.1-.348-.222-.515-.343a15.648,15.648,0,0,1-2.276-2.143c-.365-.4-.689-.832-1.016-1.263a1.262,1.262,0,0,1,.038-1.647.89.89,0,0,1,.059-.081c.265-.3.521-.611.8-.9a1.234,1.234,0,0,0,.365-1.1,3.6,3.6,0,0,0-.117-.537,5.632,5.632,0,0,0-1.253-2.055,4,4,0,0,0-1.4-1.072,1.369,1.369,0,0,0-.83-.129A3.66,3.66,0,0,0,9.215,9.934,4.489,4.489,0,0,0,8.6,13.128,8.146,8.146,0,0,0,9.315,15.5a15.241,15.241,0,0,0,1.457,2.55A22.961,22.961,0,0,0,13.5,21.065,14.266,14.266,0,0,0,19,24.532a6.124,6.124,0,0,0,2.048.348" transform="translate(0 0)" fill="#2cb742"/>
  </g>
</svg>
