<svg id="Group_16001" data-name="Group 16001" xmlns="http://www.w3.org/2000/svg" xmlns:xlink="http://www.w3.org/1999/xlink" width="23.459" height="24.514" viewBox="0 0 23.459 24.514">
  <defs>
    <clipPath id="clip-path">
      <rect id="Rectangle_2308" data-name="Rectangle 2308" width="23.459" height="24.514" fill="#fff"/>
    </clipPath>
  </defs>
  <g id="Group_16000" data-name="Group 16000" clip-path="url(#clip-path)">
    <path id="Path_11285" data-name="Path 11285" d="M0,34.473a3.794,3.794,0,0,0,1.23,2.9,4.338,4.338,0,0,0,1.757.936,7.155,7.155,0,0,0,3.311.155,12.69,12.69,0,0,0,3.038-.869,13.752,13.752,0,0,0,3.2-2.034,21.828,21.828,0,0,0,1.811-1.67c.656-.686,1.276-1.41,1.866-2.154.657-.827,1.277-1.683,1.885-2.547a7.643,7.643,0,0,0,.651-1.168c.335-.717.67-1.437.951-2.176a11.289,11.289,0,0,0,.789-3.968A5.562,5.562,0,0,0,19.2,18.043a4.55,4.55,0,0,0-2.915-1.593,4.388,4.388,0,0,0-1.454.005,1.158,1.158,0,0,0-1.052.942c-.04.213-.1.423-.145.635-.258,1.2-.488,2.4-.78,3.595a2.389,2.389,0,0,0,1.032,2.635c.156.115.321.218.483.324a.975.975,0,0,1,.35,1.429c-.44.707-.908,1.4-1.384,2.081a24.936,24.936,0,0,1-2.617,3.154A11.663,11.663,0,0,1,9.5,32.3a1.03,1.03,0,0,1-1.485-.021c-.323-.262-.606-.573-.928-.836a3.9,3.9,0,0,0-.681-.427,1.422,1.422,0,0,0-1.116.013,39.045,39.045,0,0,0-3.849,1.312c-.183.079-.358.177-.542.255a1.346,1.346,0,0,0-.846,1.216c-.021.222-.039.444-.058.666" transform="translate(2.973 -14.071)" fill="#fff"/>
    <path id="Path_11286" data-name="Path 11286" d="M83.3,15a.953.953,0,0,0,.906-.948,16.027,16.027,0,0,1,.651-3.347,13.231,13.231,0,0,1,2.7-4.921A13.794,13.794,0,0,1,91.7,2.571c.674-.342,1.378-.626,2.072-.928A.8.8,0,0,0,94.288.79a.778.778,0,0,0-.655-.784,1.072,1.072,0,0,0-.48.063,16.575,16.575,0,0,0-2.6,1.2,17.509,17.509,0,0,0-2.523,1.7,15.071,15.071,0,0,0-1.887,1.843,14.835,14.835,0,0,0-3.051,5.874,18.914,18.914,0,0,0-.569,3.47A.783.783,0,0,0,83.3,15" transform="translate(-82.517 0)" fill="#fff"/>
    <path id="Path_11287" data-name="Path 11287" d="M78.263,37.131a.74.74,0,0,0,.408.794.859.859,0,0,0,.988-.12.965.965,0,0,0,.311-.687,10.716,10.716,0,0,1,.517-2.44A8.649,8.649,0,0,1,82.5,31.407a9.45,9.45,0,0,1,2.9-2.024c.268-.119.541-.229.806-.353a.751.751,0,0,0,.427-.928.771.771,0,0,0-.842-.642,2.772,2.772,0,0,0-.659.175,10.582,10.582,0,0,0-3.425,2.148,10.3,10.3,0,0,0-2.259,2.945,11.1,11.1,0,0,0-1.141,3.789c0,.023-.005.047-.007.07q-.023.272-.045.543" transform="translate(-74.294 -23.568)" fill="#fff"/>
    <path id="Path_11288" data-name="Path 11288" d="M72.172,57.8c-.027.893.589,1.377,1.211,1.186.293-.09.379-.351.462-.6a3.366,3.366,0,0,0,.088-.467,5.427,5.427,0,0,1,.7-2.033A4.574,4.574,0,0,1,76.462,54.3c.282-.144.571-.276.848-.431a.687.687,0,0,0,.344-.6.844.844,0,0,0-.7-.932,1.309,1.309,0,0,0-.563.1,6.293,6.293,0,0,0-2.267,1.385,6.05,6.05,0,0,0-1.727,2.836c-.123.444-.178.907-.221,1.136" transform="translate(-64.413 -44.924)" fill="#fff"/>
  </g>
</svg>
