<svg xmlns="http://www.w3.org/2000/svg" xmlns:xlink="http://www.w3.org/1999/xlink" width="23.755" height="25.436" viewBox="0 0 23.755 25.436">
  <defs>
    <clipPath id="clip-path">
      <rect id="Rectangle_2388" data-name="Rectangle 2388" width="23.755" height="25.436" fill="#707070"/>
    </clipPath>
  </defs>
  <g id="Group_16372" data-name="Group 16372" opacity="0.53">
    <g id="Group_16371" data-name="Group 16371" clip-path="url(#clip-path)">
      <path id="Path_11437" data-name="Path 11437" d="M11.939,85.358h1.734l3.1,0,3.055,0H22.8a1.117,1.117,0,0,1,.466.075.845.845,0,0,1,.527.825c0,.629,0,1.258,0,1.887q0,1.051,0,2.1c0,.827,0,1.653,0,2.48s0,1.629,0,2.444c0,1.012,0,2.025,0,3.037a9.2,9.2,0,0,1-.04,1.094,2.352,2.352,0,0,1-.762,1.455,2.447,2.447,0,0,1-1.654.7c-.554.015-1.108.018-1.662.018q-8.423,0-16.847,0a2.87,2.87,0,0,1-1.128-.178,2.714,2.714,0,0,1-.493-.254,2.5,2.5,0,0,1-1.1-1.613,3.743,3.743,0,0,1-.055-.643c-.009-.509-.008-1.018-.008-1.527,0-.647.006-1.293.006-1.94,0-.461-.006-.922-.006-1.383,0-.644.006-1.287.006-1.931,0-.686-.007-1.371-.006-2.057,0-1.045,0-2.09.007-3.135,0-.2,0-.4,0-.593a.864.864,0,0,1,.892-.861H3.567q1.639,0,3.279,0c.626,0,1.251.007,1.877.007.88,0,1.761-.005,2.641-.008h.575v.005M7.677,96.393c0-.3,0-.593,0-.889a.839.839,0,0,0-.8-.825q-.884-.015-1.769,0a.818.818,0,0,0-.825.824q-.015.871,0,1.743a.813.813,0,0,0,.784.826c.262.02.526.007.79.006.347,0,.695.012,1.041-.007a.827.827,0,0,0,.778-.842q0-.418,0-.835m10.178-4.25h0c.293,0,.587.005.88,0a.839.839,0,0,0,.82-.806q.017-.884,0-1.769a.834.834,0,0,0-.857-.823H17.012a.834.834,0,0,0-.851.853q0,.853,0,1.707a.846.846,0,0,0,.815.837c.293.006.587,0,.88,0M13.61,96.377h0c0-.3.007-.6,0-.9a.8.8,0,0,0-.8-.8q-.867-.011-1.734,0a.933.933,0,0,0-.381.083.812.812,0,0,0-.464.805c0,.228,0,.455,0,.683,0,.344,0,.689,0,1.033a.822.822,0,0,0,.721.782c.172.016.347.011.52.011.446,0,.892.009,1.338-.007a.8.8,0,0,0,.8-.816c.008-.293,0-.587,0-.88m0-5.926h0c0-.3.007-.6,0-.9a.8.8,0,0,0-.808-.8c-.6-.008-1.2-.007-1.8,0a.8.8,0,0,0-.755.661,2.946,2.946,0,0,0-.02.429c0,.5-.008,1.006.006,1.508a.8.8,0,0,0,.814.8q.871.009,1.742,0a.8.8,0,0,0,.817-.8c.008-.3,0-.592,0-.889" transform="translate(-0.04 -76.036)" fill="#707070"/>
      <path id="Path_11438" data-name="Path 11438" d="M4.67,2.541c.013-.378.015-.749.041-1.119A1.36,1.36,0,0,1,5.033.675,1.658,1.658,0,0,1,7.76.753a1.952,1.952,0,0,1,.311,1.122c0,.218,0,.436,0,.661h7.619c0-.036,0-.068,0-.1,0-.266.012-.533.015-.8A1.72,1.72,0,0,1,16.165.544a1.663,1.663,0,0,1,2.451,0,1.737,1.737,0,0,1,.46,1.209c0,.26,0,.521,0,.794h.075c.71,0,1.42-.011,2.129.006a2.512,2.512,0,0,1,2.015,1.093A2.124,2.124,0,0,1,23.719,4.8c.025.4.033.8.019,1.2A.807.807,0,0,1,23,6.761c-.334.023-.67.015-1.005.015l-6.28,0-5.175,0-6.441,0q-1.55,0-3.1,0A.987.987,0,0,1,.269,6.53a.742.742,0,0,1-.245-.5,5.762,5.762,0,0,1,.05-1.477,2.453,2.453,0,0,1,1.25-1.681,2.278,2.278,0,0,1,.732-.284,3.751,3.751,0,0,1,.625-.048c.617-.006,1.234,0,1.851,0Z" transform="translate(0 -0.001)" fill="#707070"/>
    </g>
  </g>
</svg>
