<svg id="Group_16327" data-name="Group 16327" xmlns="http://www.w3.org/2000/svg" xmlns:xlink="http://www.w3.org/1999/xlink" width="76.548" height="63.646" viewBox="0 0 76.548 63.646">
  <defs>
    <clipPath id="clip-path">
      <rect id="Rectangle_2382" data-name="Rectangle 2382" width="76.548" height="63.646" fill="none"/>
    </clipPath>
  </defs>
  <g id="Group_16326" data-name="Group 16326" clip-path="url(#clip-path)">
    <path id="Path_11418" data-name="Path 11418" d="M38.315,56.247c-6.828,0-13.657.014-20.485-.008a49.522,49.522,0,0,1-6.523-.212A13.236,13.236,0,0,1,.237,45.989,11.365,11.365,0,0,1,0,43.606q0-14.948.035-29.9A14.336,14.336,0,0,1,8.582.822,12.809,12.809,0,0,1,13.619,0Q38.01,0,62.4.013A13.619,13.619,0,0,1,74.66,7a14.512,14.512,0,0,1,1.883,7.749q.017,12.279-.018,24.558a40.2,40.2,0,0,1-.169,5.855A13.254,13.254,0,0,1,63.67,56.173c-8.452-.021-16.9-.006-25.355-.006v.08M37.933,2.16v.053c-8.431,0-16.862-.018-25.293.024a8.244,8.244,0,0,0-3.048.546,12.116,12.116,0,0,0-6.927,7.756,7.784,7.784,0,0,0-.413,1.947c-.08,1.152-.067,2.311-.068,3.468q-.007,13.814,0,27.629c0,.311,0,.624.033.933a10.93,10.93,0,0,0,9.822,9.538c1.99.154,4,.083,6,.084,15.039.006,30.078-.018,45.116.014,5.869.012,11.452-5.118,11.381-11.344-.107-9.432-.022-18.865-.03-28.3C74.5,7.3,69.394,2.169,62.226,2.162q-12.146-.013-24.293,0" transform="translate(0 0)" fill="#26262b"/>
    <path id="Path_11419" data-name="Path 11419" d="M34.12,111.572H8.9c-.844,0-1.691.034-2.533-.017-.82-.05-1.1-.327-1.073-.886a1.182,1.182,0,0,1,1.228-1.078c1.6-.017,3.2-.012,4.8-.012q6.037,0,12.074,0l37.76-.018c.378,0,.756.023,1.133.025.529,0,.846.23.862.789a1.082,1.082,0,0,1-.823,1.194,17.758,17.758,0,0,1-1.8.088q-13.208.008-26.417,0v-.087" transform="translate(-2.347 -48.57)" fill="#26262b"/>
    <path id="Path_11420" data-name="Path 11420" d="M118.627,109.569a1.306,1.306,0,0,1,1.427,1.176,1.441,1.441,0,0,1-1.5,1.441,1.193,1.193,0,0,1-1.329-1.169,1.4,1.4,0,0,1,1.4-1.448" transform="translate(-51.967 -48.574)" fill="#26262b"/>
    <path id="Path_11421" data-name="Path 11421" d="M130.53,110.788a1.318,1.318,0,0,1-1.415,1.343,1.3,1.3,0,0,1-1.2-1.4,1.384,1.384,0,0,1,1.422-1.358,1.327,1.327,0,0,1,1.192,1.42" transform="translate(-56.707 -48.484)" fill="#26262b"/>
    <path id="Path_11422" data-name="Path 11422" d="M53.287,27.039c3.581,0,7.162-.009,10.743,0a8.524,8.524,0,0,1,7.751,4.585,6.549,6.549,0,0,1,.635,2.955c.1,2.82.08,5.645.068,8.467A28.627,28.627,0,0,1,72.3,47.5a7.632,7.632,0,0,1-7.4,6.65c-1.861.116-3.733.077-5.6.082-5.427.013-10.855.076-16.28-.012-2.265-.037-4.55-.333-6.316-2.052a7.93,7.93,0,0,1-2.507-6.1c.07-3.758.021-7.517.094-11.274a7.812,7.812,0,0,1,6.921-7.66,44.373,44.373,0,0,1,4.732-.1c2.447-.012,4.893,0,7.34,0m5.081,13.719-.018-.286-8.967-4.519v9.64l.222.14,8.763-4.975" transform="translate(-15.161 -11.981)" fill="#e34544"/>
    <path id="Path_11423" data-name="Path 11423" d="M48.585,54.493c-2.154,0-4.32-.012-6.468-.046-2.335-.038-5-.35-7.074-2.368A9.075,9.075,0,0,1,32.2,45.164c.035-1.851.04-3.738.046-5.562.006-1.871.011-3.8.048-5.712A8.97,8.97,0,0,1,40.2,25.145a29.175,29.175,0,0,1,3.609-.11c.415.005.83.013,1.243.007,1.724-.008,3.448-.006,5.172,0H55.66q3.743,0,7.486,0a9.662,9.662,0,0,1,8.712,5.143,7.537,7.537,0,0,1,.783,3.473c.094,2.764.081,5.566.07,8.277v.232c0,.277,0,.554,0,.832a22.871,22.871,0,0,1-.2,3.794,8.726,8.726,0,0,1-8.43,7.582c-1.493.094-3,.091-4.456.085h-1.21q-2,.005-4,.016c-1.92.009-3.872.019-5.832.019m-5.853-27.24a20.191,20.191,0,0,0-2.28.1,6.738,6.738,0,0,0-5.933,6.575c-.037,1.888-.042,3.814-.048,5.675-.006,1.834-.011,3.73-.046,5.6A6.838,6.838,0,0,0,36.6,50.483c1.511,1.472,3.564,1.7,5.557,1.737,4.079.067,8.235.047,12.253.027q2-.008,4.006-.016h1.222c1.421.007,2.89.008,4.312-.081a6.514,6.514,0,0,0,6.371-5.718,20.84,20.84,0,0,0,.167-3.425c0-.285,0-.569,0-.853v-.232c.012-2.69.024-5.471-.068-8.192a5.708,5.708,0,0,0-.488-2.438,7.45,7.45,0,0,0-6.789-4.026q-3.739-.012-7.477,0H50.224c-1.72,0-3.439,0-5.158,0-.425,0-.852,0-1.279-.007-.357,0-.709-.008-1.055-.008M48.717,45.96a1.112,1.112,0,0,1-.59-.169l-.227-.143a1.113,1.113,0,0,1-.518-.941v-9.64A1.113,1.113,0,0,1,49,34.073l8.967,4.518a1.112,1.112,0,0,1,.61.925l.015.237a1.187,1.187,0,0,1-.558,1.088l-8.763,4.975a1.113,1.113,0,0,1-.549.145m.891-9.086V43.06l5.773-3.277Zm7.872,3h0Z" transform="translate(-14.274 -11.095)" fill="#26262b"/>
    <path id="Path_11424" data-name="Path 11424" d="M14.866,7.532a3.377,3.377,0,0,1-.446.761A31.908,31.908,0,0,0,9.813,13.7a1.039,1.039,0,0,1-1.739.166.924.924,0,0,1-.117-1.322q2.422-2.913,4.877-5.8c.289-.341.686-.621,1.1-.308a6.583,6.583,0,0,1,.936,1.093" transform="translate(-3.426 -2.794)" fill="#26262b"/>
  </g>
</svg>
